G04*
G04 #@! TF.GenerationSoftware,Altium Limited,Altium Designer,22.1.2 (22)*
G04*
G04 Layer_Physical_Order=1*
G04 Layer_Color=255*
%FSLAX25Y25*%
%MOIN*%
G70*
G04*
G04 #@! TF.SameCoordinates,E6BCAF42-7E50-4797-BEDC-23F1F838AA05*
G04*
G04*
G04 #@! TF.FilePolarity,Positive*
G04*
G01*
G75*
%ADD13C,0.00197*%
%ADD14R,0.07874X0.03543*%
%ADD15R,0.05236X0.05236*%
%ADD16R,0.03543X0.07874*%
%ADD17R,0.05118X0.02756*%
%ADD18R,0.03543X0.03150*%
%ADD19R,0.03150X0.03543*%
%ADD20R,0.03937X0.09646*%
%ADD21R,0.09646X0.03937*%
%ADD22R,0.04331X0.06299*%
%ADD23R,0.05512X0.13780*%
%ADD24R,0.05512X0.04724*%
%ADD25R,0.06299X0.04331*%
%ADD26R,0.07874X0.11811*%
%ADD27R,0.07480X0.07087*%
%ADD28R,0.01575X0.05315*%
%ADD29R,0.08268X0.06299*%
%ADD30R,0.03543X0.03740*%
%ADD31R,0.03740X0.03543*%
%ADD32R,0.02756X0.05118*%
%ADD56C,0.01000*%
%ADD57C,0.01500*%
%ADD58C,0.03937*%
%ADD59C,0.03150*%
%ADD60C,0.04724*%
%ADD61C,0.00787*%
%ADD62C,0.09843*%
%ADD63C,0.01968*%
G36*
X158571Y429D02*
X429D01*
Y271570D01*
X5876D01*
X5975Y271070D01*
X5195Y270747D01*
X4225Y270099D01*
X3401Y269275D01*
X2753Y268305D01*
X2306Y267227D01*
X2079Y266083D01*
Y266000D01*
X13921D01*
Y266083D01*
X13694Y267227D01*
X13247Y268305D01*
X12599Y269275D01*
X11775Y270099D01*
X10805Y270747D01*
X10025Y271070D01*
X10124Y271570D01*
X146876D01*
X146975Y271070D01*
X146195Y270747D01*
X145225Y270099D01*
X144401Y269275D01*
X143753Y268305D01*
X143306Y267227D01*
X143079Y266083D01*
Y266000D01*
X154921D01*
Y266083D01*
X154694Y267227D01*
X154247Y268305D01*
X153599Y269275D01*
X152775Y270099D01*
X151805Y270747D01*
X151025Y271070D01*
X151124Y271570D01*
X158571D01*
Y429D01*
D02*
G37*
%LPC*%
G36*
X134772Y264724D02*
X132500D01*
Y262650D01*
X134772D01*
Y264724D01*
D02*
G37*
G36*
X131500D02*
X129228D01*
Y262650D01*
X131500D01*
Y264724D01*
D02*
G37*
G36*
X154921Y265000D02*
X149500D01*
Y259579D01*
X149583D01*
X150727Y259806D01*
X151805Y260253D01*
X152775Y260901D01*
X153599Y261725D01*
X154247Y262695D01*
X154694Y263773D01*
X154921Y264917D01*
Y265000D01*
D02*
G37*
G36*
X148500D02*
X143079D01*
Y264917D01*
X143306Y263773D01*
X143753Y262695D01*
X144401Y261725D01*
X145225Y260901D01*
X146195Y260253D01*
X147273Y259806D01*
X148417Y259579D01*
X148500D01*
Y265000D01*
D02*
G37*
G36*
X13921D02*
X8500D01*
Y259579D01*
X8583D01*
X9727Y259806D01*
X10805Y260253D01*
X11775Y260901D01*
X12599Y261725D01*
X13247Y262695D01*
X13694Y263773D01*
X13921Y264917D01*
Y265000D01*
D02*
G37*
G36*
X7500D02*
X2079D01*
Y264917D01*
X2306Y263773D01*
X2753Y262695D01*
X3401Y261725D01*
X4225Y260901D01*
X5195Y260253D01*
X6273Y259806D01*
X7417Y259579D01*
X7500D01*
Y265000D01*
D02*
G37*
G36*
X134772Y261650D02*
X132500D01*
Y259575D01*
X134772D01*
Y261650D01*
D02*
G37*
G36*
X131500D02*
X129228D01*
Y259575D01*
X131500D01*
Y261650D01*
D02*
G37*
G36*
X46772Y260224D02*
X44500D01*
Y258150D01*
X46772D01*
Y260224D01*
D02*
G37*
G36*
X43500D02*
X41228D01*
Y258150D01*
X43500D01*
Y260224D01*
D02*
G37*
G36*
X60850Y258811D02*
X56413D01*
Y256539D01*
X60850D01*
Y258811D01*
D02*
G37*
G36*
X55413D02*
X50976D01*
Y256539D01*
X55413D01*
Y258811D01*
D02*
G37*
G36*
X127779D02*
X123343D01*
Y256539D01*
X127779D01*
Y258811D01*
D02*
G37*
G36*
X122343D02*
X117905D01*
Y256539D01*
X122343D01*
Y258811D01*
D02*
G37*
G36*
X46772Y257150D02*
X44500D01*
Y255075D01*
X46772D01*
Y257150D01*
D02*
G37*
G36*
X43500D02*
X41228D01*
Y255075D01*
X43500D01*
Y257150D01*
D02*
G37*
G36*
X60850Y255539D02*
X55913D01*
X50976D01*
Y253349D01*
X50976Y253268D01*
X50780Y252849D01*
X45972D01*
Y253125D01*
X44482D01*
X44212Y253306D01*
X43520Y253443D01*
X8314D01*
X8073Y253684D01*
X7489Y254022D01*
X6837Y254196D01*
X6163D01*
X5511Y254022D01*
X4927Y253684D01*
X4450Y253207D01*
X4112Y252623D01*
X3938Y251971D01*
Y251296D01*
X4112Y250645D01*
X4450Y250061D01*
X4927Y249584D01*
X5511Y249246D01*
X6163Y249072D01*
X6837D01*
X7489Y249246D01*
X8073Y249584D01*
X8314Y249824D01*
X42028D01*
Y249576D01*
X43110D01*
X43422Y249367D01*
X44114Y249230D01*
X51776D01*
Y249068D01*
X60050D01*
Y252768D01*
X60050Y253011D01*
X60444Y253268D01*
X60850D01*
Y255539D01*
D02*
G37*
G36*
X127779Y255539D02*
X122843D01*
X117905D01*
Y253268D01*
X118312D01*
X118705Y253011D01*
X118705Y252768D01*
Y249068D01*
X126979D01*
Y250276D01*
X137214D01*
X138495Y248995D01*
X138727Y248841D01*
X139000Y248786D01*
X139273Y248841D01*
X139505Y248995D01*
X139659Y249227D01*
X139714Y249500D01*
X139659Y249773D01*
X139505Y250005D01*
X138014Y251495D01*
X137783Y251649D01*
X137510Y251704D01*
X127333D01*
X126979Y252057D01*
X126979Y253011D01*
X127373Y253268D01*
X127779D01*
Y255539D01*
D02*
G37*
G36*
X147406Y258061D02*
X132000D01*
X131154Y257893D01*
X130753Y257625D01*
X130028D01*
Y256803D01*
X129957Y256697D01*
X129789Y255850D01*
X129957Y255004D01*
X130028Y254898D01*
Y254076D01*
X130753D01*
X131154Y253808D01*
X132000Y253639D01*
X146490D01*
X150021Y250108D01*
X150112Y249767D01*
X150450Y249183D01*
X150927Y248706D01*
X151511Y248368D01*
X152163Y248194D01*
X152837D01*
X153489Y248368D01*
X154073Y248706D01*
X154550Y249183D01*
X154888Y249767D01*
X155062Y250419D01*
Y251093D01*
X154888Y251745D01*
X154550Y252329D01*
X154073Y252806D01*
X153489Y253144D01*
X153148Y253235D01*
X148969Y257414D01*
X148252Y257893D01*
X147406Y258061D01*
D02*
G37*
G36*
X7000Y246595D02*
Y243748D01*
X9847D01*
X9633Y244546D01*
X9190Y245312D01*
X8564Y245938D01*
X7798Y246381D01*
X7000Y246595D01*
D02*
G37*
G36*
X6000D02*
X5202Y246381D01*
X4436Y245938D01*
X3810Y245312D01*
X3367Y244546D01*
X3153Y243748D01*
X6000D01*
Y246595D01*
D02*
G37*
G36*
X126979Y248011D02*
X118705D01*
Y244068D01*
X126979D01*
Y245326D01*
X135165D01*
X136995Y243495D01*
X137227Y243341D01*
X137500Y243286D01*
X137773Y243341D01*
X138005Y243495D01*
X138159Y243727D01*
X138214Y244000D01*
X138159Y244273D01*
X138005Y244505D01*
X135965Y246544D01*
X135734Y246699D01*
X135461Y246753D01*
X126979D01*
Y248011D01*
D02*
G37*
G36*
X153000Y245717D02*
Y242870D01*
X155847D01*
X155633Y243668D01*
X155190Y244434D01*
X154564Y245060D01*
X153798Y245503D01*
X153000Y245717D01*
D02*
G37*
G36*
X152000D02*
X151202Y245503D01*
X150436Y245060D01*
X149810Y244434D01*
X149367Y243668D01*
X149153Y242870D01*
X152000D01*
Y245717D01*
D02*
G37*
G36*
X9847Y242748D02*
X7000D01*
Y239901D01*
X7798Y240115D01*
X8564Y240558D01*
X9190Y241184D01*
X9633Y241950D01*
X9847Y242748D01*
D02*
G37*
G36*
X6000D02*
X3153D01*
X3367Y241950D01*
X3810Y241184D01*
X4436Y240558D01*
X5202Y240115D01*
X6000Y239901D01*
Y242748D01*
D02*
G37*
G36*
X60050Y243011D02*
X51776D01*
Y241714D01*
X40000D01*
X39727Y241659D01*
X39495Y241505D01*
X39421Y241430D01*
X39266Y241198D01*
X39211Y240925D01*
X39266Y240652D01*
X39421Y240421D01*
X39652Y240266D01*
X39925Y240212D01*
X40198Y240266D01*
X40229Y240286D01*
X51776D01*
Y239068D01*
X60050D01*
Y243011D01*
D02*
G37*
G36*
X155847Y241870D02*
X153000D01*
Y239023D01*
X153798Y239237D01*
X154564Y239680D01*
X155190Y240306D01*
X155633Y241072D01*
X155847Y241870D01*
D02*
G37*
G36*
X152000D02*
X149153D01*
X149367Y241072D01*
X149810Y240306D01*
X150436Y239680D01*
X151202Y239237D01*
X152000Y239023D01*
Y241870D01*
D02*
G37*
G36*
X60050Y238011D02*
X51776D01*
Y236964D01*
X40250D01*
X39977Y236910D01*
X39746Y236755D01*
X39421Y236430D01*
X39266Y236198D01*
X39211Y235925D01*
X39266Y235652D01*
X39421Y235420D01*
X39652Y235266D01*
X39925Y235211D01*
X40198Y235266D01*
X40430Y235420D01*
X40546Y235537D01*
X51776D01*
Y234068D01*
X60050D01*
Y238011D01*
D02*
G37*
G36*
X77716Y237177D02*
X74598D01*
Y234059D01*
X77716D01*
Y237177D01*
D02*
G37*
G36*
X96618Y237118D02*
X93500D01*
Y234000D01*
X96618D01*
Y237118D01*
D02*
G37*
G36*
X126979Y243011D02*
X118705D01*
Y241753D01*
X111039D01*
X110766Y241699D01*
X110535Y241544D01*
X106995Y238005D01*
X106841Y237773D01*
X106786Y237500D01*
Y219500D01*
X106841Y219227D01*
X106995Y218995D01*
X111286Y214704D01*
Y198296D01*
X108495Y195505D01*
X108341Y195273D01*
X108286Y195000D01*
X108341Y194727D01*
X108495Y194495D01*
X108727Y194341D01*
X109000Y194286D01*
X109273Y194341D01*
X109505Y194495D01*
X112505Y197495D01*
X112659Y197727D01*
X112714Y198000D01*
Y215000D01*
X112659Y215273D01*
X112505Y215505D01*
X108214Y219796D01*
Y237204D01*
X111335Y240326D01*
X118705D01*
Y239068D01*
X126979D01*
Y240326D01*
X134683D01*
X141017Y233991D01*
X141249Y233837D01*
X141522Y233782D01*
X150039D01*
X150112Y233507D01*
X150450Y232923D01*
X150927Y232446D01*
X151511Y232108D01*
X152163Y231934D01*
X152837D01*
X153489Y232108D01*
X154073Y232446D01*
X154550Y232923D01*
X154888Y233507D01*
X155062Y234159D01*
Y234833D01*
X154888Y235485D01*
X154550Y236069D01*
X154073Y236546D01*
X153489Y236884D01*
X152837Y237058D01*
X152163D01*
X151511Y236884D01*
X150927Y236546D01*
X150450Y236069D01*
X150112Y235485D01*
X150039Y235210D01*
X141817D01*
X135483Y241544D01*
X135251Y241699D01*
X134978Y241753D01*
X126979D01*
Y243011D01*
D02*
G37*
G36*
X81835Y237177D02*
X78716D01*
Y233559D01*
X78216D01*
Y233059D01*
X74598D01*
Y229941D01*
X74598D01*
X74579Y229894D01*
X74579Y229894D01*
X74579Y229449D01*
Y226776D01*
X78197D01*
Y225776D01*
X74579D01*
Y222657D01*
X74598D01*
Y219551D01*
X78216D01*
Y219051D01*
X78716D01*
Y215433D01*
X84941D01*
Y219051D01*
X85941D01*
Y215433D01*
X89059D01*
Y215433D01*
X89500D01*
Y215433D01*
X92618D01*
Y219051D01*
X93118D01*
Y219551D01*
X96736D01*
Y222669D01*
X96618Y222736D01*
Y225854D01*
X93000D01*
Y226854D01*
X96618D01*
Y229882D01*
X96618D01*
Y233000D01*
X93000D01*
Y233500D01*
X92500D01*
Y237118D01*
X89382D01*
Y237118D01*
X89059D01*
Y237118D01*
X85941D01*
Y233500D01*
X84941D01*
Y237118D01*
X81835D01*
Y237177D01*
D02*
G37*
G36*
X24500Y238714D02*
X17000D01*
X16727Y238659D01*
X16495Y238505D01*
X9995Y232005D01*
X9841Y231773D01*
X9786Y231500D01*
Y229532D01*
X9286Y229398D01*
X9190Y229564D01*
X8564Y230190D01*
X7798Y230633D01*
X7000Y230847D01*
Y227500D01*
Y224153D01*
X7798Y224367D01*
X8564Y224810D01*
X9190Y225436D01*
X9286Y225602D01*
X9786Y225468D01*
Y184552D01*
X7736Y182501D01*
X7489Y182643D01*
X6837Y182818D01*
X6163D01*
X5511Y182643D01*
X4927Y182306D01*
X4450Y181829D01*
X4112Y181245D01*
X3938Y180593D01*
Y179919D01*
X4112Y179267D01*
X4450Y178683D01*
X4927Y178206D01*
X5511Y177868D01*
X6163Y177694D01*
X6837D01*
X7489Y177868D01*
X8073Y178206D01*
X8550Y178683D01*
X8888Y179267D01*
X9062Y179919D01*
Y180593D01*
X8888Y181245D01*
X8745Y181492D01*
X11005Y183751D01*
X11159Y183983D01*
X11214Y184256D01*
Y231204D01*
X17296Y237286D01*
X24500D01*
X24773Y237341D01*
X25005Y237495D01*
X25159Y237727D01*
X25214Y238000D01*
X25159Y238273D01*
X25005Y238505D01*
X24773Y238659D01*
X24500Y238714D01*
D02*
G37*
G36*
X6000Y230847D02*
X5202Y230633D01*
X4436Y230190D01*
X3810Y229564D01*
X3367Y228798D01*
X3153Y228000D01*
X6000D01*
Y230847D01*
D02*
G37*
G36*
X60050Y248011D02*
X51776D01*
Y246753D01*
X17165D01*
X16892Y246699D01*
X16661Y246544D01*
X7736Y237619D01*
X7489Y237762D01*
X6837Y237936D01*
X6163D01*
X5511Y237762D01*
X4927Y237424D01*
X4450Y236947D01*
X4112Y236363D01*
X3938Y235711D01*
Y235037D01*
X4112Y234385D01*
X4450Y233801D01*
X4927Y233324D01*
X5511Y232986D01*
X6163Y232812D01*
X6837D01*
X7489Y232986D01*
X8073Y233324D01*
X8550Y233801D01*
X8888Y234385D01*
X9062Y235037D01*
Y235711D01*
X8888Y236363D01*
X8745Y236610D01*
X17461Y245326D01*
X51776D01*
Y244068D01*
X60050D01*
Y245326D01*
X66165D01*
X69286Y242204D01*
Y227000D01*
X69341Y226727D01*
X69495Y226495D01*
X69727Y226341D01*
X70000Y226286D01*
X70273Y226341D01*
X70505Y226495D01*
X70659Y226727D01*
X70714Y227000D01*
Y242500D01*
X70659Y242773D01*
X70505Y243005D01*
X66965Y246544D01*
X66734Y246699D01*
X66461Y246753D01*
X60050D01*
Y248011D01*
D02*
G37*
G36*
X126979Y233011D02*
X118705D01*
Y229068D01*
X126979D01*
Y230326D01*
X133665D01*
X138995Y224995D01*
X139227Y224841D01*
X139500Y224786D01*
X139773Y224841D01*
X140005Y224995D01*
X140159Y225227D01*
X140214Y225500D01*
X140159Y225773D01*
X140005Y226005D01*
X134465Y231544D01*
X134234Y231699D01*
X133961Y231753D01*
X126979D01*
Y233011D01*
D02*
G37*
G36*
X6000Y227000D02*
X3153D01*
X3367Y226202D01*
X3810Y225436D01*
X4436Y224810D01*
X5202Y224367D01*
X6000Y224153D01*
Y227000D01*
D02*
G37*
G36*
X126979Y228011D02*
X118705D01*
Y224068D01*
X126979D01*
Y228011D01*
D02*
G37*
G36*
X60050D02*
X51776D01*
Y226753D01*
X38039D01*
X37766Y226699D01*
X37535Y226544D01*
X34495Y223505D01*
X34341Y223273D01*
X34286Y223000D01*
X34341Y222727D01*
X34495Y222495D01*
X34727Y222341D01*
X35000Y222286D01*
X35273Y222341D01*
X35505Y222495D01*
X38335Y225326D01*
X51776D01*
Y224068D01*
X60050D01*
Y228011D01*
D02*
G37*
G36*
X116500Y238214D02*
X113172D01*
X112899Y238159D01*
X112667Y238005D01*
X110495Y235833D01*
X110341Y235601D01*
X110286Y235328D01*
Y218828D01*
X110341Y218555D01*
X110495Y218324D01*
X113286Y215533D01*
Y197467D01*
X110995Y195176D01*
X110841Y194945D01*
X110786Y194672D01*
Y193000D01*
X110841Y192727D01*
X110995Y192495D01*
X111227Y192341D01*
X111500Y192286D01*
X111773Y192341D01*
X112005Y192495D01*
X112159Y192727D01*
X112214Y193000D01*
Y194376D01*
X114505Y196667D01*
X114659Y196898D01*
X114714Y197172D01*
Y215828D01*
X114659Y216102D01*
X114505Y216333D01*
X111714Y219124D01*
Y235033D01*
X113467Y236786D01*
X116204D01*
X117456Y235535D01*
X117687Y235380D01*
X117961Y235326D01*
X118705D01*
Y234068D01*
X126979D01*
Y235326D01*
X133246D01*
X142454Y226117D01*
X142685Y225963D01*
X142959Y225908D01*
X150039D01*
X150112Y225633D01*
X150450Y225049D01*
X150927Y224572D01*
X151511Y224235D01*
X152163Y224060D01*
X152837D01*
X153489Y224235D01*
X154073Y224572D01*
X154550Y225049D01*
X154888Y225633D01*
X155062Y226285D01*
Y226959D01*
X154888Y227611D01*
X154550Y228195D01*
X154073Y228672D01*
X153489Y229010D01*
X152837Y229184D01*
X152163D01*
X151511Y229010D01*
X150927Y228672D01*
X150450Y228195D01*
X150112Y227611D01*
X150039Y227336D01*
X143254D01*
X134046Y236544D01*
X133815Y236699D01*
X133541Y236753D01*
X126979D01*
Y238011D01*
X118705D01*
Y236876D01*
X118205Y236804D01*
X117005Y238005D01*
X116773Y238159D01*
X116500Y238214D01*
D02*
G37*
G36*
X6837Y222188D02*
X6163D01*
X5511Y222014D01*
X4927Y221676D01*
X4450Y221199D01*
X4112Y220615D01*
X3938Y219963D01*
Y219289D01*
X4112Y218637D01*
X4450Y218053D01*
X4927Y217576D01*
X5511Y217238D01*
X6163Y217064D01*
X6837D01*
X7489Y217238D01*
X8073Y217576D01*
X8550Y218053D01*
X8888Y218637D01*
X9062Y219289D01*
Y219963D01*
X8888Y220615D01*
X8550Y221199D01*
X8073Y221676D01*
X7489Y222014D01*
X6837Y222188D01*
D02*
G37*
G36*
X152837Y221310D02*
X152163D01*
X151511Y221136D01*
X150927Y220798D01*
X150450Y220321D01*
X150112Y219737D01*
X149938Y219085D01*
Y218411D01*
X150112Y217759D01*
X150450Y217175D01*
X150927Y216698D01*
X151511Y216360D01*
X152163Y216186D01*
X152837D01*
X153489Y216360D01*
X154073Y216698D01*
X154550Y217175D01*
X154888Y217759D01*
X155062Y218411D01*
Y219085D01*
X154888Y219737D01*
X154550Y220321D01*
X154073Y220798D01*
X153489Y221136D01*
X152837Y221310D01*
D02*
G37*
G36*
X96736Y218551D02*
X93618D01*
Y215433D01*
X96736D01*
Y218551D01*
D02*
G37*
G36*
X77716D02*
X74598D01*
Y215433D01*
X77716D01*
Y218551D01*
D02*
G37*
G36*
X113000Y235214D02*
X112727Y235159D01*
X112495Y235005D01*
X112341Y234773D01*
X112286Y234500D01*
Y220000D01*
X112341Y219727D01*
X112495Y219495D01*
X116456Y215535D01*
X116688Y215380D01*
X116961Y215326D01*
X118705D01*
Y214068D01*
X126979D01*
Y215326D01*
X137039D01*
X137312Y215380D01*
X137544Y215535D01*
X139005Y216995D01*
X139159Y217227D01*
X139214Y217500D01*
X139159Y217773D01*
X139005Y218005D01*
X138773Y218159D01*
X138500Y218214D01*
X138227Y218159D01*
X137995Y218005D01*
X136744Y216753D01*
X126979D01*
Y218011D01*
X118705D01*
Y216753D01*
X117256D01*
X113714Y220296D01*
Y234500D01*
X113659Y234773D01*
X113505Y235005D01*
X113273Y235159D01*
X113000Y235214D01*
D02*
G37*
G36*
X6837Y214314D02*
X6163D01*
X5511Y214140D01*
X4927Y213802D01*
X4450Y213325D01*
X4112Y212741D01*
X3938Y212089D01*
Y211415D01*
X4112Y210763D01*
X4450Y210179D01*
X4927Y209702D01*
X5511Y209364D01*
X6163Y209190D01*
X6837D01*
X7489Y209364D01*
X8073Y209702D01*
X8550Y210179D01*
X8888Y210763D01*
X9062Y211415D01*
Y212089D01*
X8888Y212741D01*
X8550Y213325D01*
X8073Y213802D01*
X7489Y214140D01*
X6837Y214314D01*
D02*
G37*
G36*
X126979Y213011D02*
X118705D01*
Y209068D01*
X126979D01*
Y210286D01*
X144500D01*
X144773Y210341D01*
X145005Y210495D01*
X145159Y210727D01*
X145214Y211000D01*
X145159Y211273D01*
X145005Y211505D01*
X144773Y211659D01*
X144500Y211714D01*
X126979D01*
Y213011D01*
D02*
G37*
G36*
X60050D02*
X51776D01*
Y211753D01*
X26539D01*
X26266Y211699D01*
X26035Y211544D01*
X25995Y211505D01*
X25841Y211273D01*
X25786Y211000D01*
X25841Y210727D01*
X25995Y210495D01*
X26227Y210341D01*
X26500Y210286D01*
X26698Y210326D01*
X51776D01*
Y209068D01*
X60050D01*
Y213011D01*
D02*
G37*
G36*
X152837Y213436D02*
X152163D01*
X151511Y213262D01*
X150927Y212924D01*
X150450Y212447D01*
X150112Y211863D01*
X149938Y211211D01*
Y210537D01*
X150112Y209885D01*
X150450Y209301D01*
X150927Y208824D01*
X151511Y208486D01*
X152163Y208312D01*
X152837D01*
X153489Y208486D01*
X154073Y208824D01*
X154550Y209301D01*
X154888Y209885D01*
X155062Y210537D01*
Y211211D01*
X154888Y211863D01*
X154550Y212447D01*
X154073Y212924D01*
X153489Y213262D01*
X152837Y213436D01*
D02*
G37*
G36*
X126979Y208011D02*
X118705D01*
Y204068D01*
X126979D01*
Y205326D01*
X137665D01*
X137995Y204995D01*
X138227Y204841D01*
X138500Y204786D01*
X138773Y204841D01*
X139005Y204995D01*
X139159Y205227D01*
X139214Y205500D01*
X139159Y205773D01*
X139005Y206005D01*
X138465Y206544D01*
X138234Y206699D01*
X137961Y206753D01*
X126979D01*
Y208011D01*
D02*
G37*
G36*
X60050D02*
X51776D01*
Y206753D01*
X26539D01*
X26266Y206699D01*
X26035Y206544D01*
X25995Y206505D01*
X25841Y206273D01*
X25786Y206000D01*
X25841Y205727D01*
X25995Y205495D01*
X26227Y205341D01*
X26500Y205286D01*
X26698Y205326D01*
X51776D01*
Y204068D01*
X60050D01*
Y208011D01*
D02*
G37*
G36*
Y233011D02*
X51776D01*
Y231214D01*
X34500D01*
X34227Y231159D01*
X33995Y231005D01*
X33841Y230773D01*
X33786Y230500D01*
X33841Y230227D01*
X33995Y229995D01*
X34227Y229841D01*
X34500Y229786D01*
X51776D01*
Y229068D01*
X57116D01*
X57185Y229054D01*
X59719D01*
X68286Y220487D01*
Y213000D01*
X68341Y212727D01*
X68495Y212495D01*
X71495Y209495D01*
X71727Y209341D01*
X72000Y209286D01*
X89704D01*
X93995Y204995D01*
X94227Y204841D01*
X94500Y204786D01*
X108704D01*
X109495Y203995D01*
X109727Y203841D01*
X110000Y203786D01*
X110273Y203841D01*
X110505Y203995D01*
X110659Y204227D01*
X110714Y204500D01*
X110659Y204773D01*
X110505Y205005D01*
X109505Y206005D01*
X109273Y206159D01*
X109000Y206214D01*
X94796D01*
X90505Y210505D01*
X90273Y210659D01*
X90000Y210714D01*
X72296D01*
X69714Y213296D01*
Y220783D01*
X69659Y221056D01*
X69505Y221287D01*
X60520Y230272D01*
X60288Y230427D01*
X60050Y230474D01*
Y233011D01*
D02*
G37*
G36*
X6837Y206440D02*
X6163D01*
X5511Y206265D01*
X4927Y205928D01*
X4450Y205451D01*
X4112Y204867D01*
X3938Y204215D01*
Y203541D01*
X4112Y202889D01*
X4450Y202305D01*
X4927Y201828D01*
X5511Y201490D01*
X6163Y201316D01*
X6837D01*
X7489Y201490D01*
X8073Y201828D01*
X8550Y202305D01*
X8888Y202889D01*
X9062Y203541D01*
Y204215D01*
X8888Y204867D01*
X8550Y205451D01*
X8073Y205928D01*
X7489Y206265D01*
X6837Y206440D01*
D02*
G37*
G36*
X152837Y205562D02*
X152163D01*
X151511Y205388D01*
X150927Y205050D01*
X150450Y204573D01*
X150112Y203989D01*
X149938Y203337D01*
Y202663D01*
X150112Y202011D01*
X150450Y201427D01*
X150927Y200950D01*
X151511Y200612D01*
X152163Y200438D01*
X152837D01*
X153489Y200612D01*
X154073Y200950D01*
X154550Y201427D01*
X154888Y202011D01*
X155062Y202663D01*
Y203337D01*
X154888Y203989D01*
X154550Y204573D01*
X154073Y205050D01*
X153489Y205388D01*
X152837Y205562D01*
D02*
G37*
G36*
X60050Y223011D02*
X51776D01*
Y220950D01*
X30736D01*
X30463Y220895D01*
X30231Y220741D01*
X30077Y220509D01*
X30022Y220236D01*
X30077Y219963D01*
X30231Y219731D01*
X30463Y219577D01*
X30736Y219522D01*
X51776D01*
Y219068D01*
X60050D01*
Y220326D01*
X61665D01*
X65286Y216704D01*
Y210000D01*
X65341Y209727D01*
X65495Y209495D01*
X67995Y206995D01*
X68227Y206841D01*
X68500Y206786D01*
X87204D01*
X93995Y199995D01*
X94227Y199841D01*
X94500Y199786D01*
X107500D01*
X107773Y199841D01*
X108005Y199995D01*
X108159Y200227D01*
X108214Y200500D01*
X108159Y200773D01*
X108005Y201005D01*
X107773Y201159D01*
X107500Y201214D01*
X94796D01*
X88005Y208005D01*
X87773Y208159D01*
X87500Y208214D01*
X68796D01*
X66714Y210296D01*
Y217000D01*
X66659Y217273D01*
X66505Y217505D01*
X62465Y221544D01*
X62234Y221699D01*
X61961Y221753D01*
X60050D01*
Y223011D01*
D02*
G37*
G36*
Y218011D02*
X51776D01*
Y216753D01*
X33500D01*
X33227Y216699D01*
X32995Y216544D01*
X29995Y213544D01*
X29841Y213313D01*
X29786Y213039D01*
X29841Y212766D01*
X29995Y212535D01*
X30227Y212380D01*
X30500Y212326D01*
X30773Y212380D01*
X31005Y212535D01*
X33796Y215326D01*
X51776D01*
Y214068D01*
X59041D01*
X59302Y213806D01*
X59534Y213652D01*
X59807Y213597D01*
X60176D01*
X60637Y213137D01*
Y210602D01*
X60691Y210329D01*
X60846Y210098D01*
X65948Y204995D01*
X66180Y204841D01*
X66453Y204786D01*
X81204D01*
X84495Y201495D01*
X84727Y201341D01*
X85000Y201286D01*
X88204D01*
X89495Y199995D01*
X89727Y199841D01*
X90000Y199786D01*
X90273Y199841D01*
X90505Y199995D01*
X90659Y200227D01*
X90714Y200500D01*
X90659Y200773D01*
X90505Y201005D01*
X89005Y202505D01*
X88773Y202659D01*
X88500Y202714D01*
X85296D01*
X82005Y206005D01*
X81773Y206159D01*
X81500Y206214D01*
X66748D01*
X62064Y210898D01*
Y213432D01*
X62010Y213705D01*
X61855Y213937D01*
X60976Y214816D01*
X60745Y214970D01*
X60472Y215025D01*
X60103D01*
X60050Y215077D01*
Y218011D01*
D02*
G37*
G36*
X74500Y200714D02*
X64305D01*
X64032Y200659D01*
X63801Y200505D01*
X60550Y197254D01*
X60050Y197370D01*
Y198011D01*
X51776D01*
Y196718D01*
X15004D01*
X14984Y196714D01*
X14500D01*
X14227Y196659D01*
X13995Y196505D01*
X13841Y196273D01*
X13786Y196000D01*
X13841Y195727D01*
X13995Y195495D01*
X14227Y195341D01*
X14500Y195286D01*
X15000D01*
X15020Y195290D01*
X51776D01*
Y194068D01*
X60050D01*
Y195746D01*
X60765D01*
X61038Y195800D01*
X61269Y195955D01*
X64601Y199286D01*
X74204D01*
X74995Y198495D01*
X75227Y198341D01*
X75500Y198286D01*
X75773Y198341D01*
X76005Y198495D01*
X76159Y198727D01*
X76214Y199000D01*
X76159Y199273D01*
X76005Y199505D01*
X75005Y200505D01*
X74773Y200659D01*
X74500Y200714D01*
D02*
G37*
G36*
X60050Y203011D02*
X51776D01*
Y201753D01*
X29642D01*
X29369Y201699D01*
X29137Y201544D01*
X26102Y198509D01*
X25947Y198277D01*
X25893Y198004D01*
X25947Y197731D01*
X26102Y197499D01*
X26333Y197345D01*
X26606Y197290D01*
X26879Y197345D01*
X27111Y197499D01*
X29937Y200326D01*
X51776D01*
Y199068D01*
X60050D01*
Y200326D01*
X62516D01*
X62789Y200380D01*
X63021Y200535D01*
X63773Y201286D01*
X78204D01*
X81995Y197495D01*
X82227Y197341D01*
X82500Y197286D01*
X107500D01*
X107773Y197341D01*
X108005Y197495D01*
X108159Y197727D01*
X108214Y198000D01*
X108159Y198273D01*
X108005Y198505D01*
X107773Y198659D01*
X107500Y198714D01*
X82796D01*
X79005Y202505D01*
X78773Y202659D01*
X78500Y202714D01*
X63477D01*
X63204Y202659D01*
X62972Y202505D01*
X62221Y201753D01*
X60050D01*
Y203011D01*
D02*
G37*
G36*
X6837Y198566D02*
X6163D01*
X5511Y198391D01*
X4927Y198054D01*
X4450Y197577D01*
X4112Y196993D01*
X3938Y196341D01*
Y195667D01*
X4112Y195015D01*
X4450Y194431D01*
X4927Y193954D01*
X5511Y193616D01*
X6163Y193442D01*
X6837D01*
X7489Y193616D01*
X8073Y193954D01*
X8550Y194431D01*
X8888Y195015D01*
X9062Y195667D01*
Y196341D01*
X8888Y196993D01*
X8550Y197577D01*
X8073Y198054D01*
X7489Y198391D01*
X6837Y198566D01*
D02*
G37*
G36*
X152837Y197688D02*
X152163D01*
X151511Y197514D01*
X150927Y197176D01*
X150450Y196699D01*
X150112Y196115D01*
X149938Y195463D01*
Y194789D01*
X150112Y194137D01*
X150450Y193553D01*
X150927Y193076D01*
X151511Y192738D01*
X152163Y192564D01*
X152837D01*
X153489Y192738D01*
X154073Y193076D01*
X154550Y193553D01*
X154888Y194137D01*
X155062Y194789D01*
Y195463D01*
X154888Y196115D01*
X154550Y196699D01*
X154073Y197176D01*
X153489Y197514D01*
X152837Y197688D01*
D02*
G37*
G36*
X126979Y203011D02*
X118705D01*
Y199068D01*
X126979D01*
Y200326D01*
X139665D01*
X143893Y196098D01*
Y191903D01*
X143947Y191630D01*
X144102Y191399D01*
X144333Y191244D01*
X144606Y191190D01*
X144879Y191244D01*
X145111Y191399D01*
X145266Y191630D01*
X145320Y191903D01*
Y196394D01*
X145266Y196667D01*
X145111Y196898D01*
X140465Y201544D01*
X140234Y201699D01*
X139961Y201753D01*
X126979D01*
Y203011D01*
D02*
G37*
G36*
X18500Y193714D02*
X18227Y193659D01*
X17995Y193505D01*
X17841Y193273D01*
X17786Y193000D01*
X17841Y192727D01*
X17995Y192495D01*
X19956Y190535D01*
X20188Y190380D01*
X20461Y190326D01*
X51776D01*
Y189068D01*
X60050D01*
Y190326D01*
X61802D01*
X62000Y190286D01*
X62273Y190341D01*
X62505Y190495D01*
X62659Y190727D01*
X62714Y191000D01*
X62659Y191273D01*
X62505Y191505D01*
X62465Y191544D01*
X62234Y191699D01*
X61961Y191753D01*
X60050D01*
Y193011D01*
X51776D01*
Y191753D01*
X20756D01*
X19005Y193505D01*
X18773Y193659D01*
X18500Y193714D01*
D02*
G37*
G36*
X66594Y192039D02*
X64323D01*
Y187602D01*
X66594D01*
Y192039D01*
D02*
G37*
G36*
X60929Y188437D02*
X56492D01*
Y186165D01*
X60929D01*
Y188437D01*
D02*
G37*
G36*
X55492D02*
X51055D01*
Y186165D01*
X55492D01*
Y188437D01*
D02*
G37*
G36*
X6837Y190692D02*
X6163D01*
X5511Y190517D01*
X4927Y190180D01*
X4450Y189703D01*
X4112Y189119D01*
X3938Y188467D01*
Y187793D01*
X4112Y187141D01*
X4450Y186557D01*
X4927Y186080D01*
X5511Y185742D01*
X6163Y185568D01*
X6837D01*
X7489Y185742D01*
X8073Y186080D01*
X8550Y186557D01*
X8888Y187141D01*
X9062Y187793D01*
Y188467D01*
X8888Y189119D01*
X8550Y189703D01*
X8073Y190180D01*
X7489Y190517D01*
X6837Y190692D01*
D02*
G37*
G36*
X69866Y192039D02*
X67594D01*
Y187102D01*
X67094D01*
Y186602D01*
X64323D01*
Y185340D01*
X63817Y184834D01*
X60929D01*
Y185165D01*
X55992D01*
X51055D01*
Y182894D01*
X51461D01*
X51855Y182637D01*
X51855Y182394D01*
Y181379D01*
X40630D01*
X33005Y189005D01*
X32773Y189159D01*
X32500Y189214D01*
X18500D01*
X18227Y189159D01*
X17995Y189005D01*
X17841Y188773D01*
X17786Y188500D01*
X17841Y188227D01*
X17995Y187995D01*
X18227Y187841D01*
X18500Y187786D01*
X32204D01*
X39830Y180161D01*
X40062Y180006D01*
X40335Y179952D01*
X51855D01*
Y178694D01*
X60129D01*
Y179952D01*
X71081D01*
X71354Y180006D01*
X71585Y180161D01*
X72599Y181175D01*
X72754Y181406D01*
X72808Y181679D01*
Y182965D01*
X74066D01*
Y191239D01*
X70366D01*
X70123Y191239D01*
X69866Y191633D01*
Y192039D01*
D02*
G37*
G36*
X152837Y189814D02*
X152163D01*
X151511Y189640D01*
X150927Y189302D01*
X150450Y188825D01*
X150112Y188241D01*
X149938Y187589D01*
Y186915D01*
X150112Y186263D01*
X150450Y185679D01*
X150927Y185202D01*
X151511Y184864D01*
X152163Y184690D01*
X152837D01*
X153489Y184864D01*
X154073Y185202D01*
X154550Y185679D01*
X154888Y186263D01*
X155062Y186915D01*
Y187589D01*
X154888Y188241D01*
X154550Y188825D01*
X154073Y189302D01*
X153489Y189640D01*
X152837Y189814D01*
D02*
G37*
G36*
X114066Y191239D02*
X110123D01*
Y182965D01*
X110841D01*
X110956Y182465D01*
X110509Y182018D01*
X110354Y181787D01*
X110300Y181514D01*
X110354Y181241D01*
X110509Y181009D01*
X110741Y180854D01*
X111014Y180800D01*
X111287Y180854D01*
X111519Y181009D01*
X112256Y181746D01*
X112410Y181978D01*
X112465Y182251D01*
Y182965D01*
X114066D01*
Y182965D01*
X114378Y183367D01*
X121337D01*
X121610Y183421D01*
X121841Y183576D01*
X121959Y183694D01*
X127058D01*
Y187637D01*
X118784D01*
Y184794D01*
X114674D01*
X114066Y185402D01*
Y191239D01*
D02*
G37*
G36*
X101527Y196214D02*
X70500D01*
X70227Y196159D01*
X69995Y196005D01*
X69841Y195773D01*
X69786Y195500D01*
X69841Y195227D01*
X69995Y194995D01*
X70227Y194841D01*
X70500Y194786D01*
X101231D01*
X105109Y190908D01*
Y188374D01*
X105123Y188305D01*
Y182965D01*
X106381D01*
Y180892D01*
X106435Y180619D01*
X106590Y180387D01*
X107968Y179009D01*
X108199Y178854D01*
X108472Y178800D01*
X118784D01*
Y178694D01*
X127058D01*
Y182637D01*
X118784D01*
Y180227D01*
X108768D01*
X107808Y181187D01*
Y182965D01*
X109066D01*
Y191239D01*
X106529D01*
X106482Y191477D01*
X106327Y191709D01*
X102032Y196005D01*
X101800Y196159D01*
X101527Y196214D01*
D02*
G37*
G36*
X152837Y181940D02*
X152163D01*
X151511Y181766D01*
X150927Y181428D01*
X150450Y180951D01*
X150112Y180367D01*
X149938Y179715D01*
Y179041D01*
X150112Y178389D01*
X150450Y177805D01*
X150927Y177328D01*
X151511Y176990D01*
X152163Y176816D01*
X152837D01*
X153489Y176990D01*
X154073Y177328D01*
X154550Y177805D01*
X154888Y178389D01*
X155062Y179041D01*
Y179715D01*
X154888Y180367D01*
X154550Y180951D01*
X154073Y181428D01*
X153489Y181766D01*
X152837Y181940D01*
D02*
G37*
G36*
X79224Y191239D02*
X75280D01*
Y182965D01*
X76538D01*
Y179219D01*
X73699Y176379D01*
X60129D01*
Y177637D01*
X51855D01*
Y173694D01*
X60129D01*
Y174952D01*
X73994D01*
X74267Y175006D01*
X74499Y175161D01*
X77757Y178419D01*
X77911Y178650D01*
X77966Y178923D01*
Y182965D01*
X79224D01*
Y191239D01*
D02*
G37*
G36*
X24500Y236714D02*
X18000D01*
X17727Y236659D01*
X17495Y236505D01*
X11995Y231005D01*
X11841Y230773D01*
X11786Y230500D01*
Y178677D01*
X7736Y174627D01*
X7489Y174769D01*
X6837Y174944D01*
X6163D01*
X5511Y174769D01*
X4927Y174432D01*
X4450Y173955D01*
X4112Y173371D01*
X3938Y172719D01*
Y172045D01*
X4112Y171393D01*
X4450Y170809D01*
X4927Y170332D01*
X5511Y169994D01*
X6163Y169820D01*
X6837D01*
X7489Y169994D01*
X8073Y170332D01*
X8550Y170809D01*
X8888Y171393D01*
X9062Y172045D01*
Y172719D01*
X8888Y173371D01*
X8745Y173618D01*
X13005Y177877D01*
X13159Y178109D01*
X13214Y178382D01*
Y230204D01*
X18296Y235286D01*
X24500D01*
X24773Y235341D01*
X25005Y235495D01*
X25159Y235727D01*
X25214Y236000D01*
X25159Y236273D01*
X25005Y236505D01*
X24773Y236659D01*
X24500Y236714D01*
D02*
G37*
G36*
X104066Y191239D02*
X100123D01*
Y182965D01*
X101381D01*
Y178923D01*
X101435Y178650D01*
X101590Y178419D01*
X104848Y175161D01*
X105079Y175006D01*
X105352Y174952D01*
X118784D01*
Y173694D01*
X127058D01*
Y177637D01*
X118784D01*
Y176379D01*
X105648D01*
X102808Y179219D01*
Y182965D01*
X104066D01*
Y191239D01*
D02*
G37*
G36*
X84066D02*
X80123D01*
Y182965D01*
X81381D01*
Y175676D01*
X77084Y171379D01*
X60129D01*
Y172637D01*
X51855D01*
Y168694D01*
X60129D01*
Y169952D01*
X77380D01*
X77653Y170006D01*
X77885Y170161D01*
X82599Y174875D01*
X82754Y175107D01*
X82808Y175380D01*
Y182965D01*
X84066D01*
Y191239D01*
D02*
G37*
G36*
X152837Y174066D02*
X152163D01*
X151511Y173891D01*
X150927Y173554D01*
X150450Y173077D01*
X150112Y172493D01*
X149938Y171841D01*
Y171167D01*
X150112Y170515D01*
X150450Y169931D01*
X150927Y169454D01*
X151511Y169116D01*
X152163Y168942D01*
X152837D01*
X153489Y169116D01*
X154073Y169454D01*
X154550Y169931D01*
X154888Y170515D01*
X155062Y171167D01*
Y171841D01*
X154888Y172493D01*
X154550Y173077D01*
X154073Y173554D01*
X153489Y173891D01*
X152837Y174066D01*
D02*
G37*
G36*
X99066Y191239D02*
X95123D01*
Y182965D01*
X96381D01*
Y174396D01*
X96435Y174123D01*
X96590Y173891D01*
X100320Y170161D01*
X100552Y170006D01*
X100825Y169952D01*
X118784D01*
Y168694D01*
X127058D01*
Y172637D01*
X118784D01*
Y171379D01*
X101120D01*
X97808Y174691D01*
Y182965D01*
X99066D01*
Y191239D01*
D02*
G37*
G36*
X89066D02*
X85123D01*
Y182965D01*
X86381D01*
Y172014D01*
X80746Y166379D01*
X60129D01*
Y167637D01*
X51855D01*
Y163694D01*
X60129D01*
Y164952D01*
X81041D01*
X81314Y165006D01*
X81546Y165161D01*
X87599Y171214D01*
X87754Y171445D01*
X87808Y171719D01*
Y182965D01*
X89066D01*
Y191239D01*
D02*
G37*
G36*
X94066D02*
X90123D01*
Y182965D01*
X91578D01*
Y171561D01*
X91632Y171288D01*
X91787Y171056D01*
X97840Y165003D01*
X98071Y164848D01*
X98344Y164794D01*
X118784D01*
Y163694D01*
X127058D01*
Y167637D01*
X118784D01*
Y166222D01*
X98640D01*
X93005Y171857D01*
Y182965D01*
X94066D01*
Y191239D01*
D02*
G37*
G36*
X6837Y167070D02*
X6163D01*
X5511Y166895D01*
X4927Y166558D01*
X4450Y166081D01*
X4112Y165497D01*
X3938Y164845D01*
Y164171D01*
X4112Y163519D01*
X4450Y162935D01*
X4927Y162458D01*
X5511Y162120D01*
X6163Y161946D01*
X6837D01*
X7489Y162120D01*
X8073Y162458D01*
X8550Y162935D01*
X8888Y163519D01*
X9062Y164171D01*
Y164845D01*
X8888Y165497D01*
X8550Y166081D01*
X8073Y166558D01*
X7489Y166895D01*
X6837Y167070D01*
D02*
G37*
G36*
X88500Y170214D02*
X87704D01*
X87431Y170159D01*
X87200Y170005D01*
X81574Y164379D01*
X61822D01*
X61549Y164325D01*
X61317Y164170D01*
X59351Y162204D01*
X59351Y162204D01*
X56352Y159205D01*
X56197Y158973D01*
X56143Y158700D01*
Y157652D01*
X54000Y155509D01*
X52005Y157505D01*
X51773Y157659D01*
X51500Y157714D01*
X26796D01*
X21005Y163505D01*
X20773Y163659D01*
X20500Y163714D01*
X20227Y163659D01*
X19995Y163505D01*
X19841Y163273D01*
X19786Y163000D01*
X19841Y162727D01*
X19995Y162495D01*
X25995Y156495D01*
X26227Y156341D01*
X26500Y156286D01*
X51204D01*
X52409Y155081D01*
X52409Y155081D01*
X52410Y155081D01*
X53286Y154204D01*
Y147237D01*
X52103D01*
Y143688D01*
X56046D01*
Y147237D01*
X54714D01*
Y154204D01*
X57361Y156852D01*
X57516Y157083D01*
X57570Y157357D01*
Y158404D01*
X60361Y161195D01*
X60361Y161195D01*
X62118Y162952D01*
X81870D01*
X82143Y163006D01*
X82374Y163161D01*
X88000Y168786D01*
X88500D01*
X88773Y168841D01*
X89005Y168995D01*
X89159Y169227D01*
X89214Y169500D01*
X89159Y169773D01*
X89005Y170005D01*
X88773Y170159D01*
X88500Y170214D01*
D02*
G37*
G36*
X6837Y159196D02*
X6163D01*
X5511Y159021D01*
X4927Y158684D01*
X4450Y158207D01*
X4112Y157623D01*
X3938Y156971D01*
Y156297D01*
X4112Y155645D01*
X4450Y155061D01*
X4927Y154584D01*
X5511Y154246D01*
X6163Y154072D01*
X6837D01*
X7489Y154246D01*
X8073Y154584D01*
X8550Y155061D01*
X8888Y155645D01*
X9062Y156297D01*
Y156971D01*
X8888Y157623D01*
X8550Y158207D01*
X8073Y158684D01*
X7489Y159021D01*
X6837Y159196D01*
D02*
G37*
G36*
X118347Y152037D02*
X116075D01*
Y149963D01*
X118347D01*
Y152037D01*
D02*
G37*
G36*
X115075D02*
X112803D01*
Y149963D01*
X115075D01*
Y152037D01*
D02*
G37*
G36*
X107846D02*
X105575D01*
Y149963D01*
X107846D01*
Y152037D01*
D02*
G37*
G36*
X104575D02*
X102303D01*
Y149963D01*
X104575D01*
Y152037D01*
D02*
G37*
G36*
X90000Y179714D02*
X89727Y179659D01*
X89495Y179505D01*
X89341Y179273D01*
X89286Y179000D01*
Y171024D01*
X89341Y170751D01*
X89495Y170519D01*
X98519Y161495D01*
X98751Y161341D01*
X99024Y161286D01*
X131204D01*
X137361Y155130D01*
Y151237D01*
X136103D01*
Y147688D01*
X140046D01*
Y151237D01*
X138788D01*
Y155425D01*
X138734Y155698D01*
X138579Y155930D01*
X132005Y162505D01*
X131773Y162659D01*
X131500Y162714D01*
X99320D01*
X90714Y171320D01*
Y179000D01*
X90659Y179273D01*
X90505Y179505D01*
X90273Y179659D01*
X90000Y179714D01*
D02*
G37*
G36*
X130000Y155214D02*
X126500D01*
X126227Y155159D01*
X125995Y155005D01*
X125841Y154773D01*
X125786Y154500D01*
X125841Y154227D01*
X125995Y153995D01*
X126227Y153841D01*
X126500Y153786D01*
X129704D01*
X131753Y151737D01*
X131638Y151237D01*
X130603D01*
Y147688D01*
X134546D01*
Y151237D01*
X133262D01*
Y151952D01*
X133208Y152225D01*
X133053Y152456D01*
X130505Y155005D01*
X130273Y155159D01*
X130000Y155214D01*
D02*
G37*
G36*
X123840Y153214D02*
X121500D01*
X121227Y153159D01*
X120995Y153005D01*
X120841Y152773D01*
X120786Y152500D01*
X120841Y152227D01*
X120995Y151995D01*
X121227Y151841D01*
X121500Y151786D01*
X123545D01*
X125103Y150228D01*
Y147688D01*
X129046D01*
Y151237D01*
X126112D01*
X124345Y153005D01*
X124114Y153159D01*
X123840Y153214D01*
D02*
G37*
G36*
X80500Y157714D02*
X80227Y157659D01*
X79995Y157505D01*
X79931Y157440D01*
X79776Y157209D01*
X79722Y156936D01*
Y147434D01*
X78565D01*
Y148149D01*
X78511Y148422D01*
X78356Y148653D01*
X76505Y150505D01*
X76273Y150659D01*
X76000Y150714D01*
X75727Y150659D01*
X75495Y150505D01*
X75341Y150273D01*
X75286Y150000D01*
X75341Y149727D01*
X75495Y149495D01*
X77056Y147934D01*
X76941Y147434D01*
X75618D01*
Y144278D01*
X81136D01*
Y146665D01*
X81149Y146734D01*
Y156712D01*
X81159Y156727D01*
X81214Y157000D01*
X81159Y157273D01*
X81005Y157505D01*
X80773Y157659D01*
X80500Y157714D01*
D02*
G37*
G36*
X118347Y148963D02*
X116075D01*
Y146888D01*
X118347D01*
Y148963D01*
D02*
G37*
G36*
X115075D02*
X112803D01*
Y146888D01*
X115075D01*
Y148963D01*
D02*
G37*
G36*
X107846D02*
X105575D01*
Y146888D01*
X107846D01*
Y148963D01*
D02*
G37*
G36*
X104575D02*
X102303D01*
Y146888D01*
X104575D01*
Y148963D01*
D02*
G37*
G36*
X6837Y151322D02*
X6163D01*
X5511Y151147D01*
X4927Y150810D01*
X4450Y150333D01*
X4112Y149749D01*
X3938Y149097D01*
Y148423D01*
X4112Y147771D01*
X4450Y147187D01*
X4927Y146710D01*
X5511Y146372D01*
X6163Y146198D01*
X6837D01*
X7489Y146372D01*
X8073Y146710D01*
X8550Y147187D01*
X8888Y147771D01*
X9062Y148423D01*
Y149097D01*
X8888Y149749D01*
X8550Y150333D01*
X8073Y150810D01*
X7489Y151147D01*
X6837Y151322D01*
D02*
G37*
G36*
X75500Y160714D02*
X75227Y160659D01*
X74995Y160505D01*
X71030Y156539D01*
X70875Y156308D01*
X70821Y156035D01*
Y147237D01*
X69563D01*
Y143688D01*
X73506D01*
Y147237D01*
X72248D01*
Y155739D01*
X76005Y159495D01*
X76159Y159727D01*
X76214Y160000D01*
X76159Y160273D01*
X76005Y160505D01*
X75773Y160659D01*
X75500Y160714D01*
D02*
G37*
G36*
X62000D02*
X61727Y160659D01*
X61495Y160505D01*
X59483Y158493D01*
X59329Y158261D01*
X59275Y157988D01*
Y147237D01*
X58017D01*
Y143688D01*
X61960D01*
Y147237D01*
X60702D01*
Y157693D01*
X62505Y159495D01*
X62659Y159727D01*
X62714Y160000D01*
X62659Y160273D01*
X62505Y160505D01*
X62273Y160659D01*
X62000Y160714D01*
D02*
G37*
G36*
X19500D02*
X19227Y160659D01*
X18995Y160505D01*
X18841Y160273D01*
X18786Y160000D01*
X18841Y159727D01*
X18995Y159495D01*
X24995Y153495D01*
X25227Y153341D01*
X25500Y153286D01*
X36704D01*
X44939Y145052D01*
X45170Y144897D01*
X45443Y144843D01*
X46158D01*
Y143688D01*
X50101D01*
Y147237D01*
X48843D01*
Y148834D01*
X52505Y152495D01*
X52659Y152727D01*
X52714Y153000D01*
X52659Y153273D01*
X52505Y153505D01*
X52273Y153659D01*
X52000Y153714D01*
X51727Y153659D01*
X51495Y153505D01*
X47624Y149634D01*
X47470Y149402D01*
X47416Y149129D01*
X47441Y149000D01*
X47416Y148871D01*
Y147237D01*
X46158D01*
Y146467D01*
X45658Y146352D01*
X37505Y154505D01*
X37273Y154659D01*
X37000Y154714D01*
X25796D01*
X20005Y160505D01*
X19773Y160659D01*
X19500Y160714D01*
D02*
G37*
G36*
X67500Y161214D02*
X67227Y161159D01*
X66995Y161005D01*
X66342Y160351D01*
X66187Y160120D01*
X66133Y159846D01*
Y147237D01*
X63603D01*
Y143688D01*
X67546D01*
Y146468D01*
X67560Y146537D01*
Y159551D01*
X68005Y159995D01*
X68159Y160227D01*
X68214Y160500D01*
X68159Y160773D01*
X68005Y161005D01*
X67773Y161159D01*
X67500Y161214D01*
D02*
G37*
G36*
X81936Y141148D02*
X78877D01*
Y139270D01*
X81936D01*
Y141148D01*
D02*
G37*
G36*
X77877D02*
X74818D01*
Y139270D01*
X77877D01*
Y141148D01*
D02*
G37*
G36*
X6837Y143448D02*
X6163D01*
X5511Y143273D01*
X4927Y142936D01*
X4450Y142459D01*
X4112Y141875D01*
X3938Y141223D01*
Y140549D01*
X4112Y139897D01*
X4450Y139313D01*
X4927Y138836D01*
X5511Y138498D01*
X6163Y138324D01*
X6837D01*
X7489Y138498D01*
X8073Y138836D01*
X8550Y139313D01*
X8888Y139897D01*
X9062Y140549D01*
Y141223D01*
X8888Y141875D01*
X8550Y142459D01*
X8073Y142936D01*
X7489Y143273D01*
X6837Y143448D01*
D02*
G37*
G36*
X81936Y138270D02*
X78877D01*
Y136392D01*
X81936D01*
Y138270D01*
D02*
G37*
G36*
X117500Y145717D02*
X97000D01*
X96847Y145653D01*
X96784Y145500D01*
Y144711D01*
X93324D01*
X92478Y144543D01*
X91761Y144063D01*
X82908Y135211D01*
X75916D01*
X75235Y135892D01*
X75442Y136392D01*
X77877D01*
Y138270D01*
X74818D01*
Y137016D01*
X74318Y136809D01*
X73942Y137184D01*
Y138967D01*
X73774Y139813D01*
X73506Y140214D01*
Y140938D01*
X72782D01*
X72381Y141206D01*
X71535Y141374D01*
X45252D01*
X44563Y142063D01*
X43846Y142543D01*
X43000Y142711D01*
X42154Y142543D01*
X41437Y142063D01*
X40957Y141346D01*
X40789Y140500D01*
X40957Y139654D01*
X41437Y138937D01*
X42773Y137600D01*
X43490Y137121D01*
X44337Y136952D01*
X69520D01*
Y136269D01*
X69689Y135423D01*
X70168Y134705D01*
X73437Y131437D01*
X74154Y130957D01*
X75000Y130789D01*
X83824D01*
X84671Y130957D01*
X85388Y131437D01*
X94240Y140289D01*
X96784D01*
Y139900D01*
X96801Y139859D01*
X96801Y139815D01*
X96831Y139786D01*
X96847Y139747D01*
X96888Y139730D01*
X96920Y139699D01*
X100358Y138324D01*
X100263Y137833D01*
X99705D01*
Y132010D01*
Y126187D01*
X102173D01*
Y126685D01*
X102548Y126987D01*
X106885D01*
Y127284D01*
X108060D01*
Y126987D01*
X112397D01*
Y127284D01*
X113572D01*
Y126987D01*
X117909D01*
Y137033D01*
X117717D01*
Y145500D01*
X117653Y145653D01*
X117500Y145717D01*
D02*
G37*
G36*
X98705Y137833D02*
X96236D01*
Y132510D01*
X98705D01*
Y137833D01*
D02*
G37*
G36*
X6837Y135574D02*
X6163D01*
X5511Y135399D01*
X4927Y135062D01*
X4450Y134585D01*
X4112Y134001D01*
X3938Y133349D01*
Y132675D01*
X4112Y132023D01*
X4450Y131439D01*
X4927Y130962D01*
X5511Y130624D01*
X6163Y130450D01*
X6837D01*
X7489Y130624D01*
X8073Y130962D01*
X8550Y131439D01*
X8888Y132023D01*
X9062Y132675D01*
Y133349D01*
X8888Y134001D01*
X8550Y134585D01*
X8073Y135062D01*
X7489Y135399D01*
X6837Y135574D01*
D02*
G37*
G36*
X140046Y144938D02*
X136103D01*
Y141389D01*
X137361D01*
Y137033D01*
X135619D01*
Y126987D01*
X139956D01*
Y137033D01*
X138788D01*
Y141389D01*
X140046D01*
Y144938D01*
D02*
G37*
G36*
X134546D02*
X130603D01*
Y141389D01*
X131861D01*
Y137033D01*
X130107D01*
Y126987D01*
X134444D01*
Y137033D01*
X133289D01*
Y141389D01*
X134546D01*
Y144938D01*
D02*
G37*
G36*
X129046D02*
X125103D01*
Y141389D01*
X126361D01*
Y137033D01*
X124595D01*
Y126987D01*
X128932D01*
Y137033D01*
X127788D01*
Y141389D01*
X129046D01*
Y144938D01*
D02*
G37*
G36*
X123421Y137033D02*
X119083D01*
Y126987D01*
X123421D01*
Y137033D01*
D02*
G37*
G36*
X98705Y131510D02*
X96236D01*
Y126187D01*
X98705D01*
Y131510D01*
D02*
G37*
G36*
X42125Y129972D02*
X38576D01*
Y128575D01*
X37086D01*
X36813Y128521D01*
X36581Y128366D01*
X35995Y127780D01*
X35841Y127549D01*
X35786Y127276D01*
Y121796D01*
X31905Y117914D01*
X31750Y117683D01*
X31696Y117409D01*
Y117222D01*
X29560D01*
Y113278D01*
X30621D01*
Y96665D01*
X30675Y96392D01*
X30830Y96161D01*
X48495Y78495D01*
X48727Y78341D01*
X49000Y78286D01*
X50495D01*
X50768Y78341D01*
X50999Y78495D01*
X51154Y78727D01*
X51209Y79000D01*
X51154Y79273D01*
X50999Y79505D01*
X50768Y79659D01*
X50495Y79714D01*
X49296D01*
X32048Y96961D01*
Y113278D01*
X33109D01*
Y116256D01*
X33123Y116325D01*
Y117114D01*
X37005Y120995D01*
X37159Y121227D01*
X37214Y121500D01*
Y126980D01*
X37381Y127148D01*
X38576D01*
Y126028D01*
X42125D01*
Y129972D01*
D02*
G37*
G36*
X6837Y127700D02*
X6163D01*
X5511Y127525D01*
X4927Y127188D01*
X4450Y126711D01*
X4112Y126127D01*
X3938Y125475D01*
Y124801D01*
X4112Y124149D01*
X4450Y123565D01*
X4927Y123088D01*
X5511Y122750D01*
X6163Y122576D01*
X6837D01*
X7489Y122750D01*
X8073Y123088D01*
X8550Y123565D01*
X8888Y124149D01*
X9062Y124801D01*
Y125475D01*
X8888Y126127D01*
X8550Y126711D01*
X8073Y127188D01*
X7489Y127525D01*
X6837Y127700D01*
D02*
G37*
G36*
X76996Y122872D02*
X75118D01*
Y119813D01*
X76996D01*
Y122872D01*
D02*
G37*
G36*
X74118D02*
X72240D01*
Y119813D01*
X74118D01*
Y122872D01*
D02*
G37*
G36*
X94385Y127879D02*
X84339D01*
Y123655D01*
X84339Y123542D01*
Y123155D01*
X84339Y123042D01*
Y118818D01*
X94385D01*
Y123042D01*
X94385Y123155D01*
Y123542D01*
X94385Y123655D01*
Y127879D01*
D02*
G37*
G36*
X69625Y127472D02*
X66076D01*
Y123528D01*
X66818D01*
Y122072D01*
X65953D01*
Y116554D01*
X69109D01*
Y122072D01*
X68245D01*
Y123528D01*
X69625D01*
Y127472D01*
D02*
G37*
G36*
X76996Y118813D02*
X75118D01*
Y115754D01*
X76996D01*
Y118813D01*
D02*
G37*
G36*
X74118D02*
X72240D01*
Y115754D01*
X74118D01*
Y118813D01*
D02*
G37*
G36*
X6837Y119826D02*
X6163D01*
X5511Y119651D01*
X4927Y119314D01*
X4450Y118837D01*
X4112Y118253D01*
X3938Y117601D01*
Y116927D01*
X4112Y116275D01*
X4450Y115691D01*
X4927Y115214D01*
X5511Y114876D01*
X6163Y114702D01*
X6837D01*
X7489Y114876D01*
X8073Y115214D01*
X8550Y115691D01*
X8888Y116275D01*
X9062Y116927D01*
Y117601D01*
X8888Y118253D01*
X8550Y118837D01*
X8073Y119314D01*
X7489Y119651D01*
X6837Y119826D01*
D02*
G37*
G36*
X48424Y129972D02*
X44875D01*
Y126028D01*
X48424D01*
Y127286D01*
X49619D01*
X49786Y127119D01*
Y120328D01*
X49841Y120055D01*
X49995Y119824D01*
X51481Y118338D01*
X51615Y118137D01*
X53040Y116712D01*
Y113778D01*
X56590D01*
Y117722D01*
X54049D01*
X52759Y119012D01*
X52625Y119213D01*
X51214Y120624D01*
Y127414D01*
X51159Y127687D01*
X51005Y127919D01*
X50419Y128505D01*
X50187Y128659D01*
X49914Y128714D01*
X48424D01*
Y129972D01*
D02*
G37*
G36*
X48424Y123972D02*
X44875D01*
Y120028D01*
X45936D01*
Y117722D01*
X45560D01*
Y113778D01*
X49109D01*
Y116708D01*
X49505Y117103D01*
X49659Y117334D01*
X49714Y117607D01*
Y119000D01*
X49659Y119273D01*
X49505Y119505D01*
X49273Y119659D01*
X49000Y119714D01*
X48852Y119756D01*
X48663Y119849D01*
X48510Y119945D01*
X48435Y120045D01*
X48424Y120442D01*
X48424Y120525D01*
Y123972D01*
D02*
G37*
G36*
X94385Y117643D02*
X84339D01*
Y113306D01*
X94385D01*
Y117643D01*
D02*
G37*
G36*
X42125Y123972D02*
X38576D01*
Y120028D01*
X39637D01*
Y117278D01*
X39580Y117222D01*
X37040D01*
Y113278D01*
X40590D01*
Y116212D01*
X40855Y116478D01*
X41010Y116709D01*
X41064Y116982D01*
Y120028D01*
X42125D01*
Y123972D01*
D02*
G37*
G36*
X63000Y114714D02*
X62727Y114659D01*
X62495Y114505D01*
X56580Y108590D01*
X52850D01*
Y109848D01*
X49300D01*
Y105904D01*
X50361D01*
Y103561D01*
X48537Y101737D01*
X45603D01*
Y98188D01*
X49546D01*
Y100728D01*
X51579Y102761D01*
X51734Y102993D01*
X51789Y103266D01*
Y105904D01*
X52850D01*
Y107162D01*
X56876D01*
X57149Y107217D01*
X57381Y107371D01*
X63505Y113495D01*
X63659Y113727D01*
X63714Y114000D01*
X63659Y114273D01*
X63505Y114505D01*
X63273Y114659D01*
X63000Y114714D01*
D02*
G37*
G36*
X46500Y111714D02*
X46227Y111659D01*
X45995Y111505D01*
X42580Y108090D01*
X36850D01*
Y109348D01*
X33300D01*
Y105404D01*
X34361D01*
Y104672D01*
X34415Y104399D01*
X34570Y104167D01*
X37599Y101138D01*
X37408Y100676D01*
X36963D01*
X36689Y100622D01*
X36458Y100467D01*
X35495Y99505D01*
X35341Y99273D01*
X35286Y99000D01*
X35341Y98727D01*
X35495Y98495D01*
X35727Y98341D01*
X36000Y98286D01*
X36273Y98341D01*
X36505Y98495D01*
X37258Y99249D01*
X38103D01*
Y98188D01*
X42046D01*
Y101737D01*
X39069D01*
X39006Y101750D01*
X35852Y104904D01*
X35941Y105404D01*
X36850D01*
Y106662D01*
X42876D01*
X43149Y106717D01*
X43381Y106871D01*
X47005Y110495D01*
X47159Y110727D01*
X47214Y111000D01*
X47159Y111273D01*
X47005Y111505D01*
X46773Y111659D01*
X46500Y111714D01*
D02*
G37*
G36*
X75924Y127472D02*
X72375D01*
Y123528D01*
X75924D01*
Y124451D01*
X76424Y124566D01*
X80824Y120167D01*
Y110791D01*
X80878Y110518D01*
X81033Y110286D01*
X81861Y109458D01*
X82093Y109303D01*
X82366Y109249D01*
X84339D01*
Y107794D01*
X94385D01*
Y112131D01*
X84339D01*
Y110676D01*
X82661D01*
X82251Y111087D01*
Y120463D01*
X82197Y120736D01*
X82042Y120967D01*
X77143Y125866D01*
X76912Y126021D01*
X76639Y126075D01*
X75924D01*
Y127472D01*
D02*
G37*
G36*
X6837Y111952D02*
X6163D01*
X5511Y111777D01*
X4927Y111440D01*
X4450Y110963D01*
X4112Y110379D01*
X3938Y109727D01*
Y109052D01*
X4112Y108401D01*
X4450Y107817D01*
X4927Y107340D01*
X5511Y107002D01*
X6163Y106828D01*
X6837D01*
X7489Y107002D01*
X8073Y107340D01*
X8550Y107817D01*
X8888Y108401D01*
X9062Y109052D01*
Y109727D01*
X8888Y110379D01*
X8550Y110963D01*
X8073Y111440D01*
X7489Y111777D01*
X6837Y111952D01*
D02*
G37*
G36*
X74118Y109872D02*
X72240D01*
Y106813D01*
X74118D01*
Y109872D01*
D02*
G37*
G36*
X69700Y114785D02*
X66150D01*
Y110841D01*
X66818D01*
Y109072D01*
X65953D01*
Y103554D01*
X69109D01*
Y109072D01*
X68245D01*
Y110841D01*
X69700D01*
Y114785D01*
D02*
G37*
G36*
X74118Y105813D02*
X72240D01*
Y102754D01*
X74118D01*
Y105813D01*
D02*
G37*
G36*
X75999Y114785D02*
X72450D01*
Y110841D01*
X75999D01*
Y112073D01*
X76918D01*
X77286Y111704D01*
Y110252D01*
X76996Y109872D01*
X76786Y109872D01*
X75118D01*
Y106313D01*
Y102754D01*
X76996D01*
Y104428D01*
X77493Y104580D01*
X77496Y104580D01*
X78081Y103995D01*
X78313Y103841D01*
X78586Y103786D01*
X84339D01*
Y102282D01*
X94385D01*
Y106619D01*
X84339D01*
Y105214D01*
X78881D01*
X78714Y105381D01*
Y112000D01*
X78659Y112273D01*
X78505Y112505D01*
X77718Y113291D01*
X77486Y113446D01*
X77213Y113500D01*
X75999D01*
Y114785D01*
D02*
G37*
G36*
X6837Y104078D02*
X6163D01*
X5511Y103903D01*
X4927Y103566D01*
X4450Y103089D01*
X4112Y102505D01*
X3938Y101853D01*
Y101178D01*
X4112Y100527D01*
X4450Y99942D01*
X4927Y99466D01*
X5511Y99128D01*
X6163Y98953D01*
X6837D01*
X7489Y99128D01*
X8073Y99466D01*
X8550Y99942D01*
X8888Y100527D01*
X9062Y101178D01*
Y101853D01*
X8888Y102505D01*
X8550Y103089D01*
X8073Y103566D01*
X7489Y103903D01*
X6837Y104078D01*
D02*
G37*
G36*
X75999Y101285D02*
X72450D01*
Y97341D01*
X75999D01*
Y98599D01*
X84339D01*
Y96771D01*
X94385D01*
Y101108D01*
X84339D01*
Y100027D01*
X75999D01*
Y101285D01*
D02*
G37*
G36*
X76996Y95872D02*
X75118D01*
Y92813D01*
X76996D01*
Y95872D01*
D02*
G37*
G36*
X74118D02*
X72240D01*
Y92813D01*
X74118D01*
Y95872D01*
D02*
G37*
G36*
X126979Y193011D02*
X118705D01*
Y189068D01*
X126979D01*
Y189786D01*
X140072D01*
X140102Y189742D01*
X140633Y189211D01*
Y126952D01*
X130395Y116714D01*
X111000D01*
X110727Y116659D01*
X110495Y116505D01*
X95231Y101241D01*
X95077Y101009D01*
X95022Y100736D01*
Y91265D01*
X94864Y91209D01*
X94385Y91570D01*
Y95596D01*
X84339D01*
Y92672D01*
X83945D01*
X83672Y92618D01*
X83440Y92463D01*
X77004Y86027D01*
X75999D01*
Y87285D01*
X72450D01*
Y83341D01*
X75999D01*
Y84599D01*
X77299D01*
X77572Y84654D01*
X77804Y84808D01*
X83077Y90082D01*
X83539Y89890D01*
Y88415D01*
X89362D01*
Y87915D01*
X89862D01*
Y84947D01*
X95022D01*
Y64764D01*
X95077Y64491D01*
X95231Y64259D01*
X123212Y36279D01*
Y25785D01*
X122150D01*
Y21841D01*
X125700D01*
Y25785D01*
X124639D01*
Y36575D01*
X124585Y36848D01*
X124430Y37080D01*
X96450Y65059D01*
Y100441D01*
X111296Y115286D01*
X130690D01*
X130963Y115341D01*
X131195Y115495D01*
X141851Y126152D01*
X142006Y126383D01*
X142060Y126656D01*
Y189506D01*
X142006Y189779D01*
X141851Y190011D01*
X141194Y190668D01*
X141111Y190792D01*
X140898Y191005D01*
X140667Y191159D01*
X140394Y191214D01*
X126979D01*
Y193011D01*
D02*
G37*
G36*
X69700Y101285D02*
X66150D01*
Y97341D01*
X66818D01*
Y95072D01*
X65953D01*
Y89554D01*
X69109D01*
Y95072D01*
X68245D01*
Y97341D01*
X69700D01*
Y101285D01*
D02*
G37*
G36*
X76996Y91813D02*
X75118D01*
Y88754D01*
X76996D01*
Y91813D01*
D02*
G37*
G36*
X74118D02*
X72240D01*
Y88754D01*
X74118D01*
Y91813D01*
D02*
G37*
G36*
X88862Y87415D02*
X83539D01*
Y84947D01*
X88862D01*
Y87415D01*
D02*
G37*
G36*
X24500Y87217D02*
X12000D01*
X11847Y87153D01*
X10847Y86153D01*
X10784Y86000D01*
X10784Y84000D01*
X10847Y83847D01*
X11847Y82847D01*
X12000Y82784D01*
X24500Y82784D01*
X24653Y82847D01*
X25653Y83847D01*
X25717Y84000D01*
Y86000D01*
X25653Y86153D01*
X24653Y87153D01*
X24608Y87172D01*
X24500Y87217D01*
D02*
G37*
G36*
X76996Y82372D02*
X75118D01*
Y79313D01*
X76996D01*
Y82372D01*
D02*
G37*
G36*
X74118D02*
X72240D01*
Y79313D01*
X74118D01*
Y82372D01*
D02*
G37*
G36*
X7000Y80347D02*
Y77500D01*
X9847D01*
X9633Y78298D01*
X9190Y79064D01*
X8564Y79690D01*
X7798Y80133D01*
X7000Y80347D01*
D02*
G37*
G36*
X6000D02*
X5202Y80133D01*
X4436Y79690D01*
X3810Y79064D01*
X3367Y78298D01*
X3153Y77500D01*
X6000D01*
Y80347D01*
D02*
G37*
G36*
X116000Y227214D02*
X115727Y227159D01*
X115495Y227005D01*
X115341Y226773D01*
X115286Y226500D01*
Y225052D01*
X115341Y224779D01*
X115495Y224547D01*
X118236Y221806D01*
X118468Y221652D01*
X118705Y221604D01*
Y219068D01*
X126979D01*
Y220893D01*
X143598D01*
X145893Y218598D01*
Y92659D01*
X144447Y91214D01*
X113000D01*
X112727Y91159D01*
X112495Y91005D01*
X109348Y87858D01*
X109194Y87626D01*
X109140Y87353D01*
Y86639D01*
X108060D01*
Y76593D01*
X112397D01*
Y86639D01*
X110763D01*
X110648Y87139D01*
X113296Y89786D01*
X144743D01*
X145016Y89841D01*
X145247Y89995D01*
X147111Y91859D01*
X147266Y92090D01*
X147320Y92364D01*
Y218894D01*
X147266Y219167D01*
X147111Y219398D01*
X144398Y222111D01*
X144167Y222266D01*
X143894Y222320D01*
X126979D01*
Y223011D01*
X121640D01*
X121571Y223025D01*
X119036D01*
X116714Y225347D01*
Y226500D01*
X116659Y226773D01*
X116505Y227005D01*
X116273Y227159D01*
X116000Y227214D01*
D02*
G37*
G36*
X126979Y198011D02*
X118705D01*
Y194068D01*
X126979D01*
Y195326D01*
X141619D01*
X141893Y195052D01*
Y191075D01*
X141947Y190802D01*
X142102Y190570D01*
X143786Y188885D01*
Y94796D01*
X142204Y93214D01*
X103500D01*
X103227Y93159D01*
X102995Y93005D01*
X98700Y88709D01*
X98545Y88478D01*
X98491Y88205D01*
Y86639D01*
X97036D01*
Y76593D01*
X101373D01*
Y86639D01*
X99918D01*
Y87909D01*
X103796Y91786D01*
X142500D01*
X142773Y91841D01*
X143005Y91995D01*
X145005Y93995D01*
X145159Y94227D01*
X145214Y94500D01*
Y189181D01*
X145159Y189454D01*
X145005Y189686D01*
X143320Y191370D01*
Y195335D01*
X143266Y195608D01*
X143111Y195840D01*
X143029Y195923D01*
X143005Y195958D01*
X142419Y196544D01*
X142187Y196699D01*
X141914Y196753D01*
X126979D01*
Y198011D01*
D02*
G37*
G36*
X69700Y87285D02*
X66150D01*
Y83341D01*
X66818D01*
Y81572D01*
X65953D01*
Y76054D01*
X69109D01*
Y81572D01*
X68245D01*
Y83341D01*
X69700D01*
Y87285D01*
D02*
G37*
G36*
X140756Y81116D02*
X138287D01*
Y75793D01*
X140756D01*
Y81116D01*
D02*
G37*
G36*
X144722Y224320D02*
X143500D01*
X143227Y224266D01*
X142995Y224111D01*
X142841Y223879D01*
X142786Y223606D01*
X142841Y223333D01*
X142995Y223102D01*
X143227Y222947D01*
X143500Y222893D01*
X144427D01*
X147893Y219426D01*
Y91831D01*
X145275Y89214D01*
X117313D01*
X117039Y89159D01*
X116808Y89005D01*
X115661Y87858D01*
X115506Y87626D01*
X115452Y87353D01*
Y86639D01*
X113572D01*
Y76593D01*
X117783D01*
X117909Y76593D01*
X118283Y76291D01*
Y75793D01*
X120752D01*
Y81616D01*
X121752D01*
Y75793D01*
X124221D01*
Y76291D01*
X124595Y76593D01*
X124721Y76593D01*
X126511D01*
Y73285D01*
X125450D01*
Y69341D01*
X128999D01*
Y70599D01*
X137313D01*
X137586Y70654D01*
X137818Y70808D01*
X139505Y72495D01*
X139659Y72727D01*
X139714Y73000D01*
X139659Y73273D01*
X139505Y73505D01*
X139273Y73659D01*
X139000Y73714D01*
X138727Y73659D01*
X138495Y73505D01*
X137017Y72027D01*
X128999D01*
Y73285D01*
X127938D01*
Y76593D01*
X128807D01*
X128932Y76593D01*
X129307Y76291D01*
Y75793D01*
X131776D01*
Y81616D01*
X132776D01*
Y75793D01*
X137287D01*
Y81616D01*
X137787D01*
Y82116D01*
X140756D01*
Y87286D01*
X140756Y87439D01*
X141112Y87786D01*
X145571D01*
X145844Y87841D01*
X146076Y87995D01*
X149111Y91031D01*
X149266Y91262D01*
X149320Y91535D01*
Y219722D01*
X149266Y219995D01*
X149111Y220227D01*
X145227Y224111D01*
X144995Y224266D01*
X144722Y224320D01*
D02*
G37*
G36*
X76996Y78313D02*
X75118D01*
Y75254D01*
X76996D01*
Y78313D01*
D02*
G37*
G36*
X74118D02*
X72240D01*
Y75254D01*
X74118D01*
Y78313D01*
D02*
G37*
G36*
X123500Y74085D02*
X121425D01*
Y71813D01*
X123500D01*
Y74085D01*
D02*
G37*
G36*
X120425D02*
X118350D01*
Y71813D01*
X120425D01*
Y74085D01*
D02*
G37*
G36*
X55457Y73150D02*
X52791D01*
Y69500D01*
X55457D01*
Y73150D01*
D02*
G37*
G36*
X51791D02*
X49126D01*
Y69500D01*
X51791D01*
Y73150D01*
D02*
G37*
G36*
X123500Y70813D02*
X121425D01*
Y68541D01*
X123500D01*
Y70813D01*
D02*
G37*
G36*
X120425D02*
X118350D01*
Y68541D01*
X120425D01*
Y70813D01*
D02*
G37*
G36*
X16500Y81717D02*
X12000D01*
X11847Y81653D01*
X11347Y81153D01*
X11283Y81000D01*
Y74500D01*
X11347Y74347D01*
X12284Y73410D01*
Y52500D01*
X12347Y52347D01*
X12784Y51910D01*
Y40000D01*
X12847Y39847D01*
X18783Y33910D01*
Y27500D01*
X18847Y27347D01*
X20347Y25847D01*
X20500Y25784D01*
X24910D01*
X26283Y24410D01*
X26283Y20000D01*
X26347Y19847D01*
X27347Y18847D01*
X27500Y18783D01*
X51500D01*
X51653Y18847D01*
X57590Y24783D01*
X69910Y24783D01*
X69969Y24725D01*
X69983Y24719D01*
X69985Y24715D01*
X70138Y24652D01*
X71177D01*
Y24068D01*
X70906D01*
Y18353D01*
X72881D01*
Y24068D01*
X72610D01*
Y24697D01*
X72653Y24715D01*
X72716Y24868D01*
Y26000D01*
X72703Y26033D01*
X72705Y26068D01*
X71039Y31069D01*
X71006Y31106D01*
X70986Y31153D01*
X70954Y31167D01*
X70930Y31194D01*
X70880Y31197D01*
X70833Y31216D01*
X58500D01*
X58347Y31153D01*
X52410Y25216D01*
X32590D01*
X23660Y34146D01*
X18216Y40579D01*
Y41500D01*
Y51910D01*
X19153Y52847D01*
X19217Y53000D01*
Y57028D01*
X19771D01*
Y60972D01*
X19217D01*
Y62000D01*
X19153Y62153D01*
X17153Y64153D01*
X17000Y64217D01*
X16716D01*
Y73283D01*
X25410D01*
X26783Y71910D01*
X26783Y69500D01*
X26847Y69347D01*
X27847Y68347D01*
X28000Y68283D01*
X32500Y68283D01*
X32653Y68347D01*
X33124Y68818D01*
X33187Y68971D01*
Y74529D01*
X33124Y74682D01*
X32653Y75153D01*
X32500Y75217D01*
X18590D01*
X18216Y75590D01*
Y80000D01*
X18153Y80153D01*
X16653Y81653D01*
X16500Y81717D01*
D02*
G37*
G36*
X24759Y79535D02*
X19241D01*
Y76379D01*
X22809D01*
X22878Y76365D01*
X32626D01*
X33786Y75204D01*
Y68000D01*
X33841Y67727D01*
X33995Y67495D01*
X34227Y67341D01*
X34500Y67286D01*
X34773Y67341D01*
X35005Y67495D01*
X35159Y67727D01*
X35214Y68000D01*
Y75500D01*
X35159Y75773D01*
X35005Y76005D01*
X33426Y77583D01*
X33194Y77738D01*
X32921Y77792D01*
X24759D01*
Y79535D01*
D02*
G37*
G36*
X152837Y166192D02*
X152163D01*
X151511Y166017D01*
X150927Y165680D01*
X150450Y165203D01*
X150112Y164619D01*
X149938Y163967D01*
Y163293D01*
X150112Y162641D01*
X150450Y162057D01*
X150927Y161580D01*
X151511Y161242D01*
X151786Y161169D01*
Y80296D01*
X138704Y67214D01*
X110296D01*
X105430Y72079D01*
Y76593D01*
X106885D01*
Y86639D01*
X102548D01*
Y76593D01*
X104003D01*
Y71784D01*
X104057Y71510D01*
X104212Y71279D01*
X109495Y65995D01*
X109727Y65841D01*
X110000Y65786D01*
X139000D01*
X139273Y65841D01*
X139505Y65995D01*
X153005Y79495D01*
X153159Y79727D01*
X153214Y80000D01*
Y161169D01*
X153489Y161242D01*
X154073Y161580D01*
X154550Y162057D01*
X154888Y162641D01*
X155062Y163293D01*
Y163967D01*
X154888Y164619D01*
X154550Y165203D01*
X154073Y165680D01*
X153489Y166017D01*
X152837Y166192D01*
D02*
G37*
G36*
X93634Y67234D02*
X90575D01*
Y65356D01*
X93634D01*
Y67234D01*
D02*
G37*
G36*
X89575D02*
X86516D01*
Y65356D01*
X89575D01*
Y67234D01*
D02*
G37*
G36*
X55457Y68500D02*
X52791D01*
Y64850D01*
X55457D01*
Y68500D01*
D02*
G37*
G36*
X51791D02*
X49126D01*
Y64850D01*
X51791D01*
Y68500D01*
D02*
G37*
G36*
X47575Y95473D02*
X40075D01*
X39900Y95438D01*
X38103D01*
Y91889D01*
X39900D01*
X40075Y91854D01*
X45765D01*
Y86268D01*
X45903Y85576D01*
X46295Y84989D01*
X53764Y77520D01*
X54067Y77067D01*
X57332Y73802D01*
X57720Y73220D01*
X58090Y72974D01*
X58337Y72604D01*
X58720Y72220D01*
X59284Y71844D01*
Y57090D01*
X54410Y52217D01*
X45500D01*
X45347Y52153D01*
X44347Y51153D01*
X44284Y51000D01*
Y47719D01*
X44272Y47224D01*
X43784Y47224D01*
X42000D01*
Y45150D01*
X44272D01*
Y45215D01*
X44772Y45422D01*
X45347Y44847D01*
X45500Y44783D01*
X63410D01*
X68847Y39347D01*
X69000Y39283D01*
X77000D01*
X77153Y39347D01*
X78153Y40347D01*
X78216Y40500D01*
Y55000D01*
X78153Y55153D01*
X76153Y57153D01*
X76000Y57217D01*
X71716D01*
Y67190D01*
X76091D01*
X79603Y63678D01*
Y62688D01*
X81203D01*
X81378Y62653D01*
X81575D01*
X81750Y62688D01*
X83546D01*
Y66237D01*
X82162D01*
X78120Y70280D01*
X77533Y70672D01*
X76841Y70810D01*
X69497D01*
X64153Y76153D01*
X64000Y76217D01*
X60036Y76217D01*
X56929Y79323D01*
X56626Y79776D01*
X49384Y87018D01*
Y91889D01*
X49546D01*
Y95438D01*
X47750D01*
X47575Y95473D01*
D02*
G37*
G36*
X93634Y64356D02*
X90575D01*
Y62478D01*
X93634D01*
Y64356D01*
D02*
G37*
G36*
X89575D02*
X86516D01*
Y62478D01*
X89575D01*
Y64356D01*
D02*
G37*
G36*
X51913Y60793D02*
X48658D01*
Y57931D01*
X51913D01*
Y60793D01*
D02*
G37*
G36*
X47657D02*
X44402D01*
Y57931D01*
X47657D01*
Y60793D01*
D02*
G37*
G36*
X83546Y59938D02*
X79603D01*
Y56389D01*
X83546D01*
Y57450D01*
X87316D01*
Y56192D01*
X92834D01*
Y59348D01*
X87316D01*
Y58877D01*
X83546D01*
Y59938D01*
D02*
G37*
G36*
X51913Y56931D02*
X48658D01*
Y54069D01*
X51913D01*
Y56931D01*
D02*
G37*
G36*
X47657D02*
X44402D01*
Y54069D01*
X47657D01*
Y56931D01*
D02*
G37*
G36*
X9847Y76500D02*
X6500D01*
X3153D01*
X3367Y75702D01*
X3810Y74936D01*
X4436Y74310D01*
X4724Y74143D01*
X4761Y73994D01*
X4747Y73553D01*
X2347Y71153D01*
X2283Y71000D01*
Y51500D01*
X2347Y51347D01*
X2847Y50847D01*
X3000Y50783D01*
X10000Y50783D01*
X10153Y50847D01*
X11153Y51847D01*
X11216Y52000D01*
X11216Y71000D01*
X11153Y71153D01*
X8653Y73653D01*
X8522Y73707D01*
X8482Y73808D01*
X8403Y74217D01*
X8564Y74310D01*
X9190Y74936D01*
X9633Y75702D01*
X9847Y76500D01*
D02*
G37*
G36*
X24724Y52272D02*
X22650D01*
Y50000D01*
X24724D01*
Y52272D01*
D02*
G37*
G36*
X21650D02*
X19575D01*
Y50000D01*
X21650D01*
Y52272D01*
D02*
G37*
G36*
X24724Y49000D02*
X22650D01*
Y46728D01*
X24724D01*
Y49000D01*
D02*
G37*
G36*
X21650D02*
X19575D01*
Y46728D01*
X21650D01*
Y49000D01*
D02*
G37*
G36*
X34000Y45874D02*
X30350D01*
Y43209D01*
X34000D01*
Y45874D01*
D02*
G37*
G36*
Y42209D02*
X30350D01*
Y39543D01*
X34000D01*
Y42209D01*
D02*
G37*
G36*
X41000Y47224D02*
X38728D01*
Y46341D01*
X38650Y45874D01*
X38228Y45874D01*
X35000D01*
Y42709D01*
Y39543D01*
X37584D01*
X37775Y39081D01*
X37347Y38653D01*
X37313Y38571D01*
X36457Y38217D01*
X29090D01*
X26217Y41090D01*
Y45500D01*
X26153Y45653D01*
X26000Y45717D01*
X20500D01*
X20347Y45653D01*
X20283Y45500D01*
Y40000D01*
X20347Y39847D01*
X31150Y29043D01*
Y28926D01*
X31268D01*
X33347Y26847D01*
X33500Y26783D01*
X51000D01*
X51153Y26847D01*
X53153Y28847D01*
X53216Y29000D01*
Y32000D01*
X53153Y32153D01*
X51653Y33653D01*
X51500Y33716D01*
X47000D01*
X46948Y33695D01*
X46893Y33688D01*
X43660Y31841D01*
X43186Y32087D01*
X42634Y34153D01*
X42932Y34554D01*
X49535Y34755D01*
X49599Y34784D01*
X49666Y34804D01*
X52637Y37243D01*
X52643Y37253D01*
X52653Y37257D01*
X52681Y37325D01*
X52715Y37389D01*
X52712Y37400D01*
X52716Y37410D01*
X52716Y42806D01*
X52716Y43000D01*
X52716Y43000D01*
X52653Y43153D01*
X52500Y43216D01*
X52500Y43216D01*
X52306Y43216D01*
X46000Y43216D01*
X45847Y43153D01*
X44772Y42078D01*
X44272Y42285D01*
X44272Y42488D01*
Y44150D01*
X41500D01*
Y44650D01*
X41000D01*
Y47224D01*
D02*
G37*
G36*
X24925Y24772D02*
X22850D01*
Y22500D01*
X24925D01*
Y24772D01*
D02*
G37*
G36*
X21850D02*
X19776D01*
Y22500D01*
X21850D01*
Y24772D01*
D02*
G37*
G36*
X83917Y24868D02*
X82630D01*
Y21711D01*
X83917D01*
Y24868D01*
D02*
G37*
G36*
X24925Y21500D02*
X22850D01*
Y19228D01*
X24925D01*
Y21500D01*
D02*
G37*
G36*
X21850D02*
X19776D01*
Y19228D01*
X21850D01*
Y21500D01*
D02*
G37*
G36*
X106347Y51841D02*
X105976Y51768D01*
X105662Y51558D01*
X105315Y51211D01*
X105105Y50896D01*
X105031Y50526D01*
Y46755D01*
X105031Y46755D01*
Y42366D01*
X101691Y39026D01*
X88057D01*
X87686Y38952D01*
X87372Y38742D01*
X76305Y27675D01*
X76095Y27361D01*
X76021Y26990D01*
Y21232D01*
X76024Y21218D01*
Y18353D01*
X77999D01*
Y24068D01*
X77959D01*
Y26589D01*
X88458Y37088D01*
X102093D01*
X102463Y37162D01*
X102777Y37372D01*
X106685Y41280D01*
X106895Y41594D01*
X106969Y41965D01*
Y46755D01*
X106969Y46755D01*
Y50125D01*
X107032Y50188D01*
X107242Y50502D01*
X107316Y50873D01*
X107242Y51243D01*
X107032Y51558D01*
X106718Y51768D01*
X106347Y51841D01*
D02*
G37*
G36*
X103123Y51825D02*
X102752Y51752D01*
X102438Y51542D01*
X102228Y51227D01*
X102154Y50857D01*
X102228Y50486D01*
X102373Y50270D01*
Y47857D01*
X102373Y47857D01*
Y43242D01*
X100656Y41526D01*
X87021D01*
X86651Y41452D01*
X86337Y41242D01*
X73805Y28711D01*
X73595Y28396D01*
X73522Y28026D01*
Y24672D01*
X73506Y24593D01*
Y24068D01*
X73465D01*
Y18353D01*
X75440D01*
Y21218D01*
X75443Y21232D01*
Y24530D01*
X75459Y24609D01*
Y27624D01*
X87423Y39588D01*
X101057D01*
X101428Y39662D01*
X101742Y39872D01*
X104026Y42156D01*
X104236Y42470D01*
X104310Y42841D01*
Y47857D01*
X104310Y47857D01*
Y50639D01*
X104236Y51009D01*
X104026Y51323D01*
X103808Y51542D01*
X103494Y51752D01*
X103123Y51825D01*
D02*
G37*
G36*
X83917Y20711D02*
X82630D01*
Y17553D01*
X83917D01*
Y20711D01*
D02*
G37*
G36*
X81630Y24868D02*
X80343D01*
Y24068D01*
X78584D01*
Y18353D01*
X80343D01*
Y17553D01*
X81630D01*
Y21211D01*
Y24868D01*
D02*
G37*
G36*
X93353Y24078D02*
X84686D01*
Y17379D01*
X93353D01*
Y24078D01*
D02*
G37*
G36*
X69338D02*
X60670D01*
Y17379D01*
X69338D01*
Y24078D01*
D02*
G37*
G36*
X111142Y16406D02*
X106705D01*
Y10000D01*
X111142D01*
Y16406D01*
D02*
G37*
G36*
X27142D02*
X22705D01*
Y10000D01*
X27142D01*
Y16406D01*
D02*
G37*
G36*
X151083Y15421D02*
X151000D01*
Y10000D01*
X156421D01*
Y10083D01*
X156194Y11227D01*
X155747Y12305D01*
X155099Y13275D01*
X154275Y14099D01*
X153305Y14747D01*
X152227Y15194D01*
X151083Y15421D01*
D02*
G37*
G36*
X150000D02*
X149917D01*
X148773Y15194D01*
X147695Y14747D01*
X146725Y14099D01*
X145901Y13275D01*
X145253Y12305D01*
X144806Y11227D01*
X144579Y10083D01*
Y10000D01*
X150000D01*
Y15421D01*
D02*
G37*
G36*
X105705Y16406D02*
X101268D01*
Y10000D01*
X105705D01*
Y16406D01*
D02*
G37*
G36*
X21705D02*
X17268D01*
Y10000D01*
X21705D01*
Y16406D01*
D02*
G37*
G36*
X95913Y13734D02*
X88032D01*
Y6247D01*
X95913D01*
Y13734D01*
D02*
G37*
G36*
X65991D02*
X58111D01*
Y6247D01*
X65991D01*
Y13734D01*
D02*
G37*
G36*
X8674Y14621D02*
X7326D01*
X6023Y14272D01*
X4856Y13598D01*
X3902Y12644D01*
X3228Y11477D01*
X2879Y10174D01*
Y8826D01*
X3228Y7523D01*
X3902Y6356D01*
X4856Y5402D01*
X6023Y4728D01*
X7326Y4379D01*
X8674D01*
X9977Y4728D01*
X11145Y5402D01*
X12098Y6356D01*
X12772Y7523D01*
X13121Y8826D01*
Y10174D01*
X12772Y11477D01*
X12098Y12644D01*
X11145Y13598D01*
X9977Y14272D01*
X8674Y14621D01*
D02*
G37*
G36*
X156421Y9000D02*
X151000D01*
Y3579D01*
X151083D01*
X152227Y3806D01*
X153305Y4253D01*
X154275Y4901D01*
X155099Y5725D01*
X155747Y6695D01*
X156194Y7773D01*
X156421Y8917D01*
Y9000D01*
D02*
G37*
G36*
X150000D02*
X144579D01*
Y8917D01*
X144806Y7773D01*
X145253Y6695D01*
X145901Y5725D01*
X146725Y4901D01*
X147695Y4253D01*
X148773Y3806D01*
X149917Y3579D01*
X150000D01*
Y9000D01*
D02*
G37*
G36*
X131999Y25785D02*
X128450D01*
Y21841D01*
X129511D01*
Y20276D01*
X129565Y20003D01*
X129720Y19771D01*
X131082Y18409D01*
Y15606D01*
X127658D01*
Y3395D01*
X135932D01*
Y15606D01*
X132509D01*
Y18705D01*
X132455Y18978D01*
X132300Y19209D01*
X130938Y20571D01*
Y21841D01*
X131999D01*
Y25785D01*
D02*
G37*
G36*
X53500Y17714D02*
X53327D01*
X53054Y17659D01*
X52822Y17505D01*
X50923Y15606D01*
X43658D01*
Y3395D01*
X51932D01*
Y14596D01*
X53653Y16317D01*
X53773Y16341D01*
X54005Y16495D01*
X54159Y16727D01*
X54214Y17000D01*
X54159Y17273D01*
X54005Y17505D01*
X53773Y17659D01*
X53500Y17714D01*
D02*
G37*
G36*
X111142Y9000D02*
X106705D01*
Y2595D01*
X111142D01*
Y9000D01*
D02*
G37*
G36*
X105705D02*
X101268D01*
Y2595D01*
X105705D01*
Y9000D01*
D02*
G37*
G36*
X27142D02*
X22705D01*
Y2595D01*
X27142D01*
Y9000D01*
D02*
G37*
G36*
X21705D02*
X17268D01*
Y2595D01*
X21705D01*
Y9000D01*
D02*
G37*
%LPD*%
G36*
X117500Y127500D02*
X103000D01*
Y137500D01*
X102173Y137831D01*
Y137833D01*
X102168D01*
X97000Y139900D01*
Y145500D01*
X117500D01*
Y127500D01*
D02*
G37*
G36*
X25500Y86000D02*
Y84000D01*
X24500Y83000D01*
X12000Y83000D01*
X11000Y84000D01*
X11000Y86000D01*
X12000Y87000D01*
X24500D01*
X25500Y86000D01*
D02*
G37*
G36*
X18000Y80000D02*
Y75500D01*
X18500Y75000D01*
X32500D01*
X32971Y74529D01*
Y68971D01*
X32500Y68500D01*
X28000Y68500D01*
X27000Y69500D01*
X27000Y72000D01*
X25500Y73500D01*
X16500D01*
Y64000D01*
X17000D01*
X19000Y62000D01*
Y53000D01*
X18000Y52000D01*
Y41500D01*
Y40500D01*
X23500Y34000D01*
Y34000D01*
X32500Y25000D01*
X52500D01*
X58500Y31000D01*
X70833D01*
X72500Y26000D01*
Y24868D01*
X72394D01*
Y21211D01*
X71394D01*
Y24868D01*
X70138D01*
Y24878D01*
X70122D01*
X70000Y25000D01*
X57500Y25000D01*
X51500Y19000D01*
X27500D01*
X26500Y20000D01*
X26500Y24500D01*
X25000Y26000D01*
Y26000D01*
X20500D01*
X19000Y27500D01*
Y34000D01*
X13000Y40000D01*
Y52000D01*
X12500Y52500D01*
Y73500D01*
X11500Y74500D01*
Y81000D01*
X12000Y81500D01*
X16500D01*
X18000Y80000D01*
D02*
G37*
G36*
X71500Y68500D02*
Y57000D01*
X76000D01*
X78000Y55000D01*
Y40500D01*
X77000Y39500D01*
X69000D01*
X63500Y45000D01*
X45500D01*
X44500Y46000D01*
Y51000D01*
X45500Y52000D01*
X54500D01*
X59500Y57000D01*
Y75500D01*
X59900Y76000D01*
X64000Y76000D01*
X71500Y68500D01*
D02*
G37*
G36*
X11000Y71000D02*
X11000Y52000D01*
X10000Y51000D01*
X3000Y51000D01*
X2500Y51500D01*
Y71000D01*
X5000Y73500D01*
X8500D01*
X11000Y71000D01*
D02*
G37*
%LPC*%
G36*
X7000Y72552D02*
Y69705D01*
X9847D01*
X9633Y70503D01*
X9190Y71269D01*
X8564Y71895D01*
X7798Y72338D01*
X7000Y72552D01*
D02*
G37*
G36*
X6000D02*
X5202Y72338D01*
X4436Y71895D01*
X3810Y71269D01*
X3367Y70503D01*
X3153Y69705D01*
X6000D01*
Y72552D01*
D02*
G37*
G36*
X9847Y68705D02*
X7000D01*
Y65858D01*
X7798Y66072D01*
X8564Y66514D01*
X9190Y67140D01*
X9633Y67907D01*
X9847Y68705D01*
D02*
G37*
G36*
X6000D02*
X3153D01*
X3367Y67907D01*
X3810Y67140D01*
X4436Y66514D01*
X5202Y66072D01*
X6000Y65858D01*
Y68705D01*
D02*
G37*
%LPD*%
G36*
X26000Y41000D02*
X29000Y38000D01*
X36500D01*
X37500Y38414D01*
Y38500D01*
X38543Y39543D01*
X38650D01*
Y39650D01*
X39500Y40500D01*
X43500D01*
X46000Y43000D01*
X52500Y43000D01*
X52500Y37410D01*
X49528Y34972D01*
X42250Y34750D01*
X43023Y31858D01*
X43500Y31500D01*
X47000Y33500D01*
X51500D01*
X53000Y32000D01*
Y29000D01*
X51000Y27000D01*
X33500D01*
X20500Y40000D01*
Y41000D01*
Y45500D01*
X26000D01*
Y41000D01*
D02*
G37*
%LPC*%
G36*
X50500Y32424D02*
Y31000D01*
X51924D01*
X51869Y31274D01*
X51431Y31931D01*
X50774Y32369D01*
X50500Y32424D01*
D02*
G37*
G36*
X49500D02*
X49226Y32369D01*
X48569Y31931D01*
X48131Y31274D01*
X48076Y31000D01*
X49500D01*
Y32424D01*
D02*
G37*
G36*
X51924Y30000D02*
X50500D01*
Y28576D01*
X50774Y28631D01*
X51431Y29069D01*
X51869Y29726D01*
X51924Y30000D01*
D02*
G37*
G36*
X49500D02*
X48076D01*
X48131Y29726D01*
X48569Y29069D01*
X49226Y28631D01*
X49500Y28576D01*
Y30000D01*
D02*
G37*
%LPD*%
D13*
X112094Y186364D02*
Y187102D01*
Y185183D02*
Y186364D01*
Y187102D01*
Y185183D02*
X112577Y185665D01*
D14*
X55992D02*
D03*
X55913Y191039D02*
D03*
Y196039D02*
D03*
Y201039D02*
D03*
Y206039D02*
D03*
Y211039D02*
D03*
Y216039D02*
D03*
Y221039D02*
D03*
Y226039D02*
D03*
Y231039D02*
D03*
Y236039D02*
D03*
Y241039D02*
D03*
Y246039D02*
D03*
Y251039D02*
D03*
Y256039D02*
D03*
X122843Y191039D02*
D03*
Y196039D02*
D03*
Y201039D02*
D03*
Y206039D02*
D03*
Y211039D02*
D03*
Y216039D02*
D03*
Y221039D02*
D03*
Y226039D02*
D03*
Y231039D02*
D03*
Y236039D02*
D03*
Y241039D02*
D03*
Y246039D02*
D03*
Y251039D02*
D03*
Y256039D02*
D03*
X122921Y165665D02*
D03*
Y185665D02*
D03*
Y180665D02*
D03*
Y175665D02*
D03*
X55992Y180665D02*
D03*
Y175665D02*
D03*
Y170665D02*
D03*
Y165665D02*
D03*
X122921Y170665D02*
D03*
D15*
X85441Y226276D02*
D03*
X93000Y226354D02*
D03*
X78197Y226276D02*
D03*
X85441Y219051D02*
D03*
X93118D02*
D03*
X78216D02*
D03*
Y233559D02*
D03*
X93000Y233500D02*
D03*
X85441D02*
D03*
D16*
X67094Y187102D02*
D03*
X72095D02*
D03*
X77252D02*
D03*
X82095D02*
D03*
X87094D02*
D03*
X92094D02*
D03*
X97095D02*
D03*
X102094D02*
D03*
X107095D02*
D03*
X112094D02*
D03*
D17*
X90075Y64856D02*
D03*
Y57770D02*
D03*
X22000Y85043D02*
D03*
Y77957D02*
D03*
X78377Y138770D02*
D03*
Y145856D02*
D03*
D18*
X81575Y64463D02*
D03*
Y58163D02*
D03*
X41500Y44650D02*
D03*
Y38350D02*
D03*
X14000Y84650D02*
D03*
Y78350D02*
D03*
X48129Y139163D02*
D03*
Y145463D02*
D03*
X71535Y139163D02*
D03*
Y145463D02*
D03*
X65575Y139163D02*
D03*
Y145463D02*
D03*
X59988Y139163D02*
D03*
Y145463D02*
D03*
X138075Y149463D02*
D03*
Y143163D02*
D03*
X132575Y149463D02*
D03*
Y143163D02*
D03*
X127075Y149463D02*
D03*
Y143163D02*
D03*
X115575Y149463D02*
D03*
Y143163D02*
D03*
X105075Y149463D02*
D03*
Y143163D02*
D03*
X44000Y257650D02*
D03*
Y251350D02*
D03*
X47575Y93663D02*
D03*
Y99963D02*
D03*
X40075D02*
D03*
Y93663D02*
D03*
X54075Y145463D02*
D03*
Y139163D02*
D03*
X132000Y255850D02*
D03*
Y262150D02*
D03*
D19*
X127224Y71313D02*
D03*
X120925D02*
D03*
X123925Y23813D02*
D03*
X130224D02*
D03*
X22350Y22000D02*
D03*
X28650D02*
D03*
X22150Y49500D02*
D03*
X15850D02*
D03*
X46650Y128000D02*
D03*
X40350D02*
D03*
X40350Y122000D02*
D03*
X46650D02*
D03*
X31335Y115250D02*
D03*
X38815D02*
D03*
X35075Y107376D02*
D03*
X47335Y115750D02*
D03*
X54815D02*
D03*
X51075Y107876D02*
D03*
X67925Y112813D02*
D03*
X74224D02*
D03*
X67925Y99313D02*
D03*
X74224D02*
D03*
X67925Y85313D02*
D03*
X74224D02*
D03*
X67850Y125500D02*
D03*
X74150D02*
D03*
D20*
X104717Y81616D02*
D03*
X137787Y132010D02*
D03*
X104717D02*
D03*
X132276D02*
D03*
X126764D02*
D03*
X121252D02*
D03*
X115740D02*
D03*
X110228D02*
D03*
X99205D02*
D03*
X110228Y81616D02*
D03*
X115740D02*
D03*
X121252D02*
D03*
X126764D02*
D03*
X132276D02*
D03*
X137787D02*
D03*
X99205D02*
D03*
D21*
X89362Y125711D02*
D03*
Y120986D02*
D03*
Y115474D02*
D03*
Y109963D02*
D03*
Y104451D02*
D03*
Y98939D02*
D03*
Y93427D02*
D03*
Y87915D02*
D03*
D22*
X52291Y69000D02*
D03*
X63709D02*
D03*
D23*
X72567Y48376D02*
D03*
D24*
X48158Y39321D02*
D03*
Y48376D02*
D03*
Y57431D02*
D03*
D25*
X34500Y42709D02*
D03*
Y31291D02*
D03*
D26*
X131795Y9500D02*
D03*
X106205D02*
D03*
X22205D02*
D03*
X47795D02*
D03*
D27*
X91972Y9990D02*
D03*
X62051D02*
D03*
D28*
X82130Y21211D02*
D03*
X79571D02*
D03*
X77012D02*
D03*
X74453D02*
D03*
X71894D02*
D03*
D29*
X65004Y20728D02*
D03*
X89020D02*
D03*
D30*
X22500Y42701D02*
D03*
Y30299D02*
D03*
D31*
X17701Y59000D02*
D03*
X5299D02*
D03*
D32*
X74618Y119313D02*
D03*
X67532D02*
D03*
X74618Y106313D02*
D03*
X67532D02*
D03*
X74618Y92313D02*
D03*
X67532D02*
D03*
X74618Y78813D02*
D03*
X67532D02*
D03*
D56*
X122843Y221500D02*
X122949Y221606D01*
X143894D01*
X122612Y221270D02*
X122843Y221039D01*
X143894Y221606D02*
X146606Y218894D01*
X17165Y246039D02*
X55913D01*
X6500Y235374D02*
X17165Y246039D01*
X47335Y115947D02*
X48409Y117022D01*
X48414D01*
X49000Y117607D02*
Y119000D01*
X48414Y117022D02*
X49000Y117607D01*
X121337Y184081D02*
X122921Y185665D01*
X114378Y184081D02*
X121337D01*
X112094Y186364D02*
X114378Y184081D01*
X121770Y179514D02*
X122921Y180665D01*
X108472Y179514D02*
X121770D01*
X107095Y180892D02*
X108472Y179514D01*
X100825Y170665D02*
X122921D01*
X97095Y174396D02*
X100825Y170665D01*
X97095Y174396D02*
Y187102D01*
X64112Y184120D02*
X67094Y187102D01*
X57537Y184120D02*
X64112D01*
X55992Y185665D02*
X57537Y184120D01*
X107095Y180892D02*
Y187102D01*
X105352Y175665D02*
X122921D01*
X102094Y178923D02*
X105352Y175665D01*
X102094Y178923D02*
Y187102D01*
X77252Y178923D02*
Y187102D01*
X55992Y170665D02*
X77380D01*
X82095Y175380D01*
Y187102D01*
X55992Y165665D02*
X81041D01*
X87094Y171719D01*
Y187102D01*
X72095Y181679D02*
Y187102D01*
X55992Y180665D02*
X71081D01*
X72095Y181679D01*
X55992Y175665D02*
X73994D01*
X77252Y178923D01*
X98344Y165508D02*
X122921D01*
X92291Y171561D02*
X98344Y165508D01*
X92291Y171561D02*
Y187102D01*
X95736Y64764D02*
X123925Y36575D01*
Y23813D02*
Y36575D01*
X95736Y64764D02*
Y100736D01*
X115740Y81616D02*
X116166Y82042D01*
Y87353D02*
X117313Y88500D01*
X116166Y82042D02*
Y87353D01*
X109853Y81991D02*
Y87353D01*
X113000Y90500D01*
X144743D01*
X109853Y81991D02*
X110228Y81616D01*
X99205D02*
Y88205D01*
X103500Y92500D01*
X142500D01*
X48035Y145557D02*
X48129Y145463D01*
X45443Y145557D02*
X48035D01*
X25500Y154000D02*
X37000D01*
X45443Y145557D01*
X48129Y145463D02*
Y148871D01*
X19500Y160000D02*
X25500Y154000D01*
X87704Y169500D02*
X88500D01*
X81870Y163665D02*
X87704Y169500D01*
X20500Y163000D02*
X26500Y157000D01*
X51500D02*
X52914Y155586D01*
X26500Y157000D02*
X51500D01*
X52914Y155586D02*
Y155586D01*
X14500Y196000D02*
X15000D01*
X12500Y230500D02*
X18000Y236000D01*
X10500Y184256D02*
Y231500D01*
X12500Y178382D02*
Y230500D01*
X10500Y231500D02*
X17000Y238000D01*
X6500Y172382D02*
X12500Y178382D01*
X6500Y180256D02*
X10500Y184256D01*
X18000Y236000D02*
X24500D01*
X137510Y250990D02*
X139000Y249500D01*
X135461Y246039D02*
X137500Y244000D01*
X143500Y223606D02*
X144722D01*
X148606Y219722D01*
X137039Y216039D02*
X138500Y217500D01*
X116961Y216039D02*
X137039D01*
X122882Y211000D02*
X144500D01*
X146606Y92364D02*
Y218894D01*
X144743Y90500D02*
X146606Y92364D01*
X145571Y88500D02*
X148606Y91535D01*
Y219722D01*
X137961Y206039D02*
X138500Y205500D01*
X122843Y206039D02*
X137961D01*
X142500Y195442D02*
Y195454D01*
X122843Y196039D02*
X141914D01*
X142500Y195454D01*
X139961Y201039D02*
X144606Y196394D01*
X142500Y195442D02*
X142606Y195335D01*
X53327Y17000D02*
X53500D01*
X47795Y11468D02*
X53327Y17000D01*
X47795Y9500D02*
Y11468D01*
X36963Y99963D02*
X40075D01*
X36000Y99000D02*
X36963Y99963D01*
X80436Y156936D02*
X80500Y157000D01*
X80436Y146734D02*
Y156936D01*
X78377Y145856D02*
X79558D01*
X80436Y146734D01*
X61822Y163665D02*
X81870D01*
X130690Y116000D02*
X141347Y126656D01*
X111000Y116000D02*
X130690D01*
X95736Y100736D02*
X111000Y116000D01*
X49000Y79000D02*
X50495D01*
X31335Y96665D02*
X49000Y79000D01*
X35075Y107376D02*
X42876D01*
X46500Y111000D01*
X35075Y104672D02*
X38709Y101037D01*
X77851Y146381D02*
X78377Y145856D01*
X77851Y146381D02*
Y148149D01*
X76000Y150000D02*
X77851Y148149D01*
X31335Y96665D02*
Y115250D01*
X51075Y107876D02*
X56876D01*
X63000Y114000D01*
X67532Y112419D02*
X67925Y112813D01*
X67532Y106313D02*
Y112419D01*
X144500Y94500D02*
Y189181D01*
X140606Y190246D02*
X141347Y189506D01*
X142606Y191075D02*
Y195335D01*
X140394Y190500D02*
X140606Y190287D01*
X144606Y191903D02*
Y196394D01*
X141347Y126656D02*
Y189506D01*
X142606Y191075D02*
X144500Y189181D01*
X140606Y190246D02*
Y190287D01*
X142500Y92500D02*
X144500Y94500D01*
X117313Y88500D02*
X145571D01*
X122843Y191039D02*
X123382Y190500D01*
X140394D01*
X121571Y222311D02*
X122612Y221270D01*
X122843Y201039D02*
X139961D01*
X113000Y220000D02*
X116961Y216039D01*
X117961Y236039D02*
X122843D01*
X116500Y237500D02*
X117961Y236039D01*
X113172Y237500D02*
X116500D01*
X111000Y235328D02*
X113172Y237500D01*
X111000Y218828D02*
Y235328D01*
Y218828D02*
X114000Y215828D01*
X111500Y193000D02*
Y194672D01*
X114000Y197172D01*
Y215828D01*
X113000Y220000D02*
Y234500D01*
X112000Y198000D02*
Y215000D01*
X107500Y219500D02*
X112000Y215000D01*
X107500Y219500D02*
Y237500D01*
X109000Y195000D02*
X112000Y198000D01*
X111039Y241039D02*
X122843D01*
X107500Y237500D02*
X111039Y241039D01*
X109000Y205500D02*
X110000Y204500D01*
X118741Y222311D02*
X121571D01*
X116000Y225052D02*
X118741Y222311D01*
X116000Y225052D02*
Y226500D01*
X112094Y185183D02*
Y186364D01*
X121500Y152500D02*
X123840D01*
X87500Y207500D02*
X94500Y200500D01*
X107500D01*
X47335Y115750D02*
Y115947D01*
X46650Y116435D02*
X47335Y115750D01*
X46650Y116435D02*
Y122000D01*
X50500Y120328D02*
X52120Y118708D01*
X50500Y120328D02*
Y127414D01*
X52120Y118642D02*
X54815Y115947D01*
X52120Y118642D02*
Y118708D01*
X130224Y20276D02*
Y23813D01*
Y20276D02*
X131795Y18705D01*
Y9500D02*
Y18705D01*
X137787Y132010D02*
X138075Y132297D01*
Y143163D01*
X132276Y132010D02*
X132575Y132309D01*
Y143163D01*
X126764Y132010D02*
X127075Y132321D01*
Y143163D01*
X78000Y105086D02*
X78586Y104500D01*
X89313D01*
X78000Y105086D02*
Y112000D01*
X74251Y112787D02*
X77213D01*
X78000Y112000D01*
X74224Y112813D02*
X74251Y112787D01*
X82366Y109963D02*
X89362D01*
X81537Y110791D02*
X82366Y109963D01*
X81537Y110791D02*
Y120463D01*
X76639Y125361D02*
X81537Y120463D01*
X74150Y125500D02*
X74288Y125361D01*
X76639D01*
X67532Y125181D02*
X67850Y125500D01*
X67532Y119313D02*
Y125181D01*
X89313Y104500D02*
X89362Y104451D01*
X74224Y99313D02*
X88988D01*
X89362Y98939D01*
X67532Y98919D02*
X67925Y99313D01*
X67532Y92313D02*
Y98919D01*
X83945Y91959D02*
X87894D01*
X89362Y93427D01*
X74224Y85313D02*
X77299D01*
X83945Y91959D01*
X67532Y78813D02*
Y84919D01*
X67925Y85313D01*
X81575Y58163D02*
X89681D01*
X90075Y57770D01*
X32921Y77079D02*
X34500Y75500D01*
X22878Y77079D02*
X32921D01*
X34500Y68000D02*
Y75500D01*
X22000Y77957D02*
X22878Y77079D01*
X35075Y104672D02*
Y107376D01*
X39000Y101037D02*
X40075Y99963D01*
X38709Y101037D02*
X39000D01*
X47575Y99963D02*
X47772D01*
X51075Y103266D01*
Y107876D01*
X36500Y121500D02*
Y127276D01*
X37086Y127861D02*
X40212D01*
X32409Y117409D02*
X36500Y121500D01*
Y127276D02*
X37086Y127861D01*
X40212D02*
X40350Y128000D01*
X49914D02*
X50500Y127414D01*
X46650Y128000D02*
X49914D01*
X31335Y115250D02*
X32409Y116325D01*
Y117409D01*
X54815Y115750D02*
Y115947D01*
X38815Y115447D02*
X40350Y116982D01*
X38815Y115250D02*
Y115447D01*
X40350Y116982D02*
Y122000D01*
X152500Y80000D02*
Y163630D01*
X139000Y66500D02*
X152500Y80000D01*
X122892Y250990D02*
X137510D01*
X122843Y251039D02*
X122892Y250990D01*
X104717Y71784D02*
X110000Y66500D01*
X139000D01*
X137313Y71313D02*
X139000Y73000D01*
X127224Y71313D02*
X137313D01*
X104717Y71784D02*
Y81616D01*
X126764D02*
X127224Y81156D01*
Y71313D02*
Y81156D01*
X72000Y210000D02*
X90000D01*
X94500Y205500D02*
X109000D01*
X90000Y210000D02*
X94500Y205500D01*
X69000Y213000D02*
X72000Y210000D01*
X66000D02*
X68500Y207500D01*
X66453Y205500D02*
X81500D01*
X85000Y202000D01*
X68500Y207500D02*
X87500D01*
X61350Y210602D02*
X66453Y205500D01*
X60765Y196459D02*
X64305Y200000D01*
X74500D02*
X75500Y199000D01*
X64305Y200000D02*
X74500D01*
X62516Y201039D02*
X63477Y202000D01*
X78500D01*
X82500Y198000D01*
X85000Y202000D02*
X88500D01*
X90000Y200500D01*
X60015Y229768D02*
X69000Y220783D01*
Y213000D02*
Y220783D01*
X55913Y231039D02*
X57185Y229768D01*
X60015D01*
X39925Y240925D02*
X40000Y241000D01*
X39925Y235925D02*
X40250Y236250D01*
X48129Y149129D02*
X52000Y153000D01*
X54000Y145537D02*
Y154500D01*
X132548Y149489D02*
X132575Y149463D01*
X132548Y149489D02*
Y151952D01*
X130000Y154500D02*
X132548Y151952D01*
X126500Y154500D02*
X130000D01*
X66000Y210000D02*
Y217000D01*
X61961Y221039D02*
X66000Y217000D01*
X55913Y221039D02*
X61961D01*
X33500Y216039D02*
X58079D01*
X59807Y214311D02*
X60472D01*
X61350Y210602D02*
Y213432D01*
X60472Y214311D02*
X61350Y213432D01*
X58079Y216039D02*
X59807Y214311D01*
X82500Y198000D02*
X107500D01*
X126878Y149463D02*
X127075D01*
X123840Y152500D02*
X126878Y149463D01*
X55913Y201039D02*
X62516D01*
X101527Y195500D02*
X105823Y191204D01*
Y188374D02*
X107095Y187102D01*
X105823Y188374D02*
Y191204D01*
X70500Y195500D02*
X101527D01*
X111751Y184840D02*
X112094Y185183D01*
X111014Y181514D02*
X111751Y182251D01*
Y184840D01*
X112094Y186364D02*
Y187102D01*
X59856Y161699D02*
X61822Y163665D01*
X56857Y158700D02*
X59856Y161699D01*
X56857Y157357D02*
Y158700D01*
X59856Y161699D02*
X59856D01*
X59988Y145463D02*
Y157988D01*
X62000Y160000D01*
X54000Y154500D02*
X56857Y157357D01*
X52914Y155586D02*
X54000Y154500D01*
X52914Y155586D02*
X52914D01*
X71535Y156035D02*
X75500Y160000D01*
X71535Y145463D02*
Y156035D01*
X66847Y159846D02*
X67500Y160500D01*
X66847Y146537D02*
Y159846D01*
X65575Y145463D02*
X65772D01*
X66847Y146537D01*
X61961Y191039D02*
X62000Y191000D01*
X55913Y191039D02*
X61961D01*
X54000Y145537D02*
X54075Y145463D01*
X55913Y196039D02*
X56333Y196459D01*
X60765D01*
X29642Y201039D02*
X55913D01*
X26606Y198004D02*
X29642Y201039D01*
X15004Y196004D02*
X55878D01*
X138075Y149463D02*
Y155425D01*
X131500Y162000D02*
X138075Y155425D01*
X99024Y162000D02*
X131500D01*
X90000Y171024D02*
X99024Y162000D01*
X90000Y171024D02*
Y179000D01*
X66461Y246039D02*
X70000Y242500D01*
Y227000D02*
Y242500D01*
X55913Y246039D02*
X66461D01*
X17000Y238000D02*
X24500D01*
X15000Y196000D02*
X15004Y196004D01*
X133541Y236039D02*
X142959Y226622D01*
X122843Y236039D02*
X133541D01*
X122843Y241039D02*
X134978D01*
X141522Y234496D01*
X152500D01*
X142959Y226622D02*
X152500D01*
X152461Y203039D02*
X152500Y203000D01*
X133961Y231039D02*
X139500Y225500D01*
X122843Y231039D02*
X133961D01*
X122843Y246039D02*
X135461D01*
X32500Y188500D02*
X40335Y180665D01*
X55992D01*
X18500Y188500D02*
X32500D01*
X18500Y193000D02*
X20461Y191039D01*
X55913D01*
X26500Y211000D02*
X26539Y211039D01*
X55913D01*
X30500Y213039D02*
X33500Y216039D01*
X26539Y206039D02*
X55913D01*
X26500Y206000D02*
X26539Y206039D01*
X55110Y220236D02*
X55913Y221039D01*
X30736Y220236D02*
X55110D01*
X55374Y225500D02*
X55913Y226039D01*
X55374Y230500D02*
X55913Y231039D01*
X34500Y230500D02*
X55374D01*
X38039Y226039D02*
X55913D01*
X35000Y223000D02*
X38039Y226039D01*
X40000Y241000D02*
X55874D01*
X40250Y236250D02*
X55702D01*
X55913Y236039D01*
X55874Y241000D02*
X55913Y241039D01*
D57*
X106000Y50526D02*
X106347Y50873D01*
X103123Y50857D02*
X103341Y50639D01*
X106000Y46755D02*
Y50526D01*
X103341Y47857D02*
X103341Y47857D01*
X106000Y46755D02*
X106000Y46755D01*
X103341Y42841D02*
Y47857D01*
X106000Y41965D02*
Y46755D01*
X103341Y47857D02*
Y50639D01*
X102093Y38057D02*
X106000Y41965D01*
X88057Y38057D02*
X102093D01*
X101057Y40557D02*
X103341Y42841D01*
X87021Y40557D02*
X101057D01*
X76990Y26990D02*
X88057Y38057D01*
X76990Y21232D02*
Y26990D01*
X74490Y28026D02*
X87021Y40557D01*
X74490Y24609D02*
Y28026D01*
X74474Y24593D02*
X74490Y24609D01*
X74474Y21232D02*
Y24593D01*
X76990Y21232D02*
X77012Y21211D01*
X74453D02*
X74474Y21232D01*
D58*
X93324Y142500D02*
X100000D01*
X100500Y142000D01*
X43000Y140500D02*
X44337Y139163D01*
X48129D02*
X54075D01*
X44337D02*
X48129D01*
X47764Y39321D02*
X48158D01*
X33516Y31291D02*
X34500D01*
X132000Y255850D02*
X147406D01*
X152500Y250756D01*
X83824Y133000D02*
X93324Y142500D01*
X59988Y139163D02*
X65575D01*
X65575D02*
X71535D01*
X75000Y133000D02*
X83824D01*
X54075Y139163D02*
X59988D01*
X71731Y136269D02*
Y138967D01*
X71535Y139163D02*
X71731Y138967D01*
Y136269D02*
X75000Y133000D01*
D59*
X55346Y78347D02*
X59000Y74693D01*
X59616Y73884D02*
Y74077D01*
X59232Y74461D02*
X59616Y74077D01*
X60000Y73693D02*
X63709Y69984D01*
X59616Y73884D02*
X60000Y73500D01*
X59000Y74500D02*
Y74693D01*
X63709Y69000D02*
Y69984D01*
X6500Y251634D02*
X43520D01*
X47575Y86268D02*
X55346Y78497D01*
Y78347D02*
Y78497D01*
X47575Y86268D02*
Y93663D01*
X76841Y69000D02*
X81378Y64463D01*
X63709Y69000D02*
X76841D01*
X81378Y64463D02*
X81575D01*
X40075Y93663D02*
X47575D01*
X44114Y251039D02*
X55913D01*
X43803Y251350D02*
X44000D01*
X43520Y251634D02*
X43803Y251350D01*
D60*
X6500Y77000D02*
D03*
Y69205D02*
D03*
Y101516D02*
D03*
Y109390D02*
D03*
Y117264D02*
D03*
Y125138D02*
D03*
Y133012D02*
D03*
Y140886D02*
D03*
Y148760D02*
D03*
Y156634D02*
D03*
Y164508D02*
D03*
Y172382D02*
D03*
Y180256D02*
D03*
Y188130D02*
D03*
Y196004D02*
D03*
Y203878D02*
D03*
Y211752D02*
D03*
Y219626D02*
D03*
Y227500D02*
D03*
Y235374D02*
D03*
Y243248D02*
D03*
Y251634D02*
D03*
X152500Y163630D02*
D03*
Y171504D02*
D03*
Y179378D02*
D03*
Y187252D02*
D03*
Y195126D02*
D03*
Y203000D02*
D03*
Y210874D02*
D03*
Y218748D02*
D03*
Y226622D02*
D03*
Y234496D02*
D03*
Y242370D02*
D03*
Y250756D02*
D03*
D61*
X49000Y119000D02*
D03*
X81885Y226337D02*
D03*
X81898Y219228D02*
D03*
X89299Y219346D02*
D03*
X93118Y230252D02*
D03*
X85402Y222772D02*
D03*
X85283Y229740D02*
D03*
X81779Y233480D02*
D03*
X93118Y222772D02*
D03*
X89142Y226236D02*
D03*
X77527Y229898D02*
D03*
X78118Y222811D02*
D03*
X89181Y233362D02*
D03*
X106347Y50873D02*
D03*
X103123Y50857D02*
D03*
X98500Y144500D02*
D03*
X97500Y142500D02*
D03*
X100500Y140000D02*
D03*
X88500Y169500D02*
D03*
X14500Y196000D02*
D03*
X24500Y236000D02*
D03*
X139000Y249500D02*
D03*
X137500Y244000D02*
D03*
X143500Y223606D02*
D03*
X138500Y217500D02*
D03*
X144500Y211000D02*
D03*
X138500Y205500D02*
D03*
X53500Y17000D02*
D03*
X36000Y99000D02*
D03*
X80500Y157000D02*
D03*
X111000Y116000D02*
D03*
X59000Y74500D02*
D03*
X60000Y73500D02*
D03*
X58500Y76500D02*
D03*
X57000Y76000D02*
D03*
X61000Y74500D02*
D03*
X50495Y79000D02*
D03*
X112000Y145000D02*
D03*
X109000Y142500D02*
D03*
X112000Y138500D02*
D03*
Y141500D02*
D03*
X108000Y140500D02*
D03*
X110500Y140000D02*
D03*
X112000Y143500D02*
D03*
X109000Y144500D02*
D03*
X46500Y111000D02*
D03*
X63000Y114000D02*
D03*
X144606Y191903D02*
D03*
X142500Y195442D02*
D03*
X140394Y190500D02*
D03*
X113000Y234500D02*
D03*
X110000Y204500D02*
D03*
X109000Y195000D02*
D03*
X111500Y193000D02*
D03*
X116000Y226500D02*
D03*
X111014Y181514D02*
D03*
X121500Y152500D02*
D03*
X107500Y200500D02*
D03*
X34500Y68000D02*
D03*
X32000Y69500D02*
D03*
X30500D02*
D03*
X28500D02*
D03*
X4000Y51500D02*
D03*
X7000D02*
D03*
X8500Y53500D02*
D03*
X6500Y54500D02*
D03*
X3500Y54000D02*
D03*
X139000Y73000D02*
D03*
X75500Y199000D02*
D03*
X101500Y144500D02*
D03*
X103000Y139000D02*
D03*
X114500Y138000D02*
D03*
X116000Y139000D02*
D03*
X114000Y140000D02*
D03*
X108500Y138500D02*
D03*
X105500D02*
D03*
X39925Y240925D02*
D03*
Y235925D02*
D03*
X52000Y153000D02*
D03*
X126500Y154500D02*
D03*
X107500Y198000D02*
D03*
X62000Y160000D02*
D03*
X75500D02*
D03*
X67500Y160500D02*
D03*
X62000Y191000D02*
D03*
X70500Y195500D02*
D03*
X71081Y180665D02*
D03*
X90000Y200500D02*
D03*
X26606Y198004D02*
D03*
X90000Y179000D02*
D03*
X70000Y227000D02*
D03*
X24500Y238000D02*
D03*
X139500Y225500D02*
D03*
X19500Y160000D02*
D03*
X18500Y188500D02*
D03*
Y193000D02*
D03*
X20500Y163000D02*
D03*
X26500Y211000D02*
D03*
X30500Y213039D02*
D03*
X26500Y206000D02*
D03*
X30736Y220236D02*
D03*
X35000Y223000D02*
D03*
X34500Y230500D02*
D03*
D62*
X8000Y9500D02*
D03*
X150500D02*
D03*
X149000Y265500D02*
D03*
X8000D02*
D03*
D63*
X43000Y140500D02*
D03*
X50000Y30500D02*
D03*
X137500Y256000D02*
D03*
X100500Y142000D02*
D03*
X39239Y251500D02*
D03*
M02*
