G04*
G04 #@! TF.GenerationSoftware,Altium Limited,Altium Designer,22.1.2 (22)*
G04*
G04 Layer_Color=8388736*
%FSLAX25Y25*%
%MOIN*%
G70*
G04*
G04 #@! TF.SameCoordinates,E6BCAF42-7E50-4797-BEDC-23F1F838AA05*
G04*
G04*
G04 #@! TF.FilePolarity,Negative*
G04*
G01*
G75*
%ADD33R,0.08268X0.03937*%
%ADD34R,0.05630X0.05630*%
%ADD35R,0.03937X0.08268*%
%ADD36R,0.05512X0.03150*%
%ADD37R,0.03937X0.03543*%
%ADD38R,0.03543X0.03937*%
%ADD39R,0.04331X0.10039*%
%ADD40R,0.10039X0.04331*%
%ADD41R,0.04724X0.06693*%
%ADD42R,0.05906X0.14173*%
%ADD43R,0.05906X0.05118*%
%ADD44R,0.06693X0.04724*%
%ADD45R,0.08268X0.12205*%
%ADD46R,0.07874X0.07480*%
%ADD47R,0.01968X0.05709*%
%ADD48R,0.08661X0.06693*%
%ADD49R,0.03937X0.04134*%
%ADD50R,0.04134X0.03937*%
%ADD51R,0.03150X0.05512*%
%ADD52C,0.05118*%
%ADD53C,0.01181*%
%ADD54C,0.10236*%
%ADD55C,0.02362*%
D33*
X55992Y185665D02*
D03*
X55913Y191039D02*
D03*
Y196039D02*
D03*
Y201039D02*
D03*
Y206039D02*
D03*
Y211039D02*
D03*
Y216039D02*
D03*
Y221039D02*
D03*
Y226039D02*
D03*
Y231039D02*
D03*
Y236039D02*
D03*
Y241039D02*
D03*
Y246039D02*
D03*
Y251039D02*
D03*
Y256039D02*
D03*
X122843Y191039D02*
D03*
Y196039D02*
D03*
Y201039D02*
D03*
Y206039D02*
D03*
Y211039D02*
D03*
Y216039D02*
D03*
Y221039D02*
D03*
Y226039D02*
D03*
Y231039D02*
D03*
Y236039D02*
D03*
Y241039D02*
D03*
Y246039D02*
D03*
Y251039D02*
D03*
Y256039D02*
D03*
X122921Y165665D02*
D03*
Y185665D02*
D03*
Y180665D02*
D03*
Y175665D02*
D03*
X55992Y180665D02*
D03*
Y175665D02*
D03*
Y170665D02*
D03*
Y165665D02*
D03*
X122921Y170665D02*
D03*
D34*
X85441Y226276D02*
D03*
X93000Y226354D02*
D03*
X78197Y226276D02*
D03*
X85441Y219051D02*
D03*
X93118D02*
D03*
X78216D02*
D03*
Y233559D02*
D03*
X93000Y233500D02*
D03*
X85441D02*
D03*
D35*
X67094Y187102D02*
D03*
X72095D02*
D03*
X77252D02*
D03*
X82095D02*
D03*
X87094D02*
D03*
X92094D02*
D03*
X97095D02*
D03*
X102094D02*
D03*
X107095D02*
D03*
X112094D02*
D03*
D36*
X90075Y64856D02*
D03*
Y57770D02*
D03*
X22000Y85043D02*
D03*
Y77957D02*
D03*
X78377Y138770D02*
D03*
Y145856D02*
D03*
D37*
X81575Y64463D02*
D03*
Y58163D02*
D03*
X41500Y44650D02*
D03*
Y38350D02*
D03*
X14000Y84650D02*
D03*
Y78350D02*
D03*
X48129Y139163D02*
D03*
Y145463D02*
D03*
X71535Y139163D02*
D03*
Y145463D02*
D03*
X65575Y139163D02*
D03*
Y145463D02*
D03*
X59988Y139163D02*
D03*
Y145463D02*
D03*
X138075Y149463D02*
D03*
Y143163D02*
D03*
X132575Y149463D02*
D03*
Y143163D02*
D03*
X127075Y149463D02*
D03*
Y143163D02*
D03*
X115575Y149463D02*
D03*
Y143163D02*
D03*
X105075Y149463D02*
D03*
Y143163D02*
D03*
X44000Y257650D02*
D03*
Y251350D02*
D03*
X47575Y93663D02*
D03*
Y99963D02*
D03*
X40075D02*
D03*
Y93663D02*
D03*
X54075Y145463D02*
D03*
Y139163D02*
D03*
X132000Y255850D02*
D03*
Y262150D02*
D03*
D38*
X127224Y71313D02*
D03*
X120925D02*
D03*
X123925Y23813D02*
D03*
X130224D02*
D03*
X22350Y22000D02*
D03*
X28650D02*
D03*
X22150Y49500D02*
D03*
X15850D02*
D03*
X46650Y128000D02*
D03*
X40350D02*
D03*
X40350Y122000D02*
D03*
X46650D02*
D03*
X31335Y115250D02*
D03*
X38815D02*
D03*
X35075Y107376D02*
D03*
X47335Y115750D02*
D03*
X54815D02*
D03*
X51075Y107876D02*
D03*
X67925Y112813D02*
D03*
X74224D02*
D03*
X67925Y99313D02*
D03*
X74224D02*
D03*
X67925Y85313D02*
D03*
X74224D02*
D03*
X67850Y125500D02*
D03*
X74150D02*
D03*
D39*
X104717Y81616D02*
D03*
X137787Y132010D02*
D03*
X104717D02*
D03*
X132276D02*
D03*
X126764D02*
D03*
X121252D02*
D03*
X115740D02*
D03*
X110228D02*
D03*
X99205D02*
D03*
X110228Y81616D02*
D03*
X115740D02*
D03*
X121252D02*
D03*
X126764D02*
D03*
X132276D02*
D03*
X137787D02*
D03*
X99205D02*
D03*
D40*
X89362Y125711D02*
D03*
Y120986D02*
D03*
Y115474D02*
D03*
Y109963D02*
D03*
Y104451D02*
D03*
Y98939D02*
D03*
Y93427D02*
D03*
Y87915D02*
D03*
D41*
X52291Y69000D02*
D03*
X63709D02*
D03*
D42*
X72567Y48376D02*
D03*
D43*
X48158Y39321D02*
D03*
Y48376D02*
D03*
Y57431D02*
D03*
D44*
X34500Y42709D02*
D03*
Y31291D02*
D03*
D45*
X131795Y9500D02*
D03*
X106205D02*
D03*
X22205D02*
D03*
X47795D02*
D03*
D46*
X91972Y9990D02*
D03*
X62051D02*
D03*
D47*
X82130Y21211D02*
D03*
X79571D02*
D03*
X77012D02*
D03*
X74453D02*
D03*
X71894D02*
D03*
D48*
X65004Y20728D02*
D03*
X89020D02*
D03*
D49*
X22500Y42701D02*
D03*
Y30299D02*
D03*
D50*
X17701Y59000D02*
D03*
X5299D02*
D03*
D51*
X74618Y119313D02*
D03*
X67532D02*
D03*
X74618Y106313D02*
D03*
X67532D02*
D03*
X74618Y92313D02*
D03*
X67532D02*
D03*
X74618Y78813D02*
D03*
X67532D02*
D03*
D52*
X6500Y77000D02*
D03*
Y69205D02*
D03*
Y101516D02*
D03*
Y109390D02*
D03*
Y117264D02*
D03*
Y125138D02*
D03*
Y133012D02*
D03*
Y140886D02*
D03*
Y148760D02*
D03*
Y156634D02*
D03*
Y164508D02*
D03*
Y172382D02*
D03*
Y180256D02*
D03*
Y188130D02*
D03*
Y196004D02*
D03*
Y203878D02*
D03*
Y211752D02*
D03*
Y219626D02*
D03*
Y227500D02*
D03*
Y235374D02*
D03*
Y243248D02*
D03*
Y251634D02*
D03*
X152500Y163630D02*
D03*
Y171504D02*
D03*
Y179378D02*
D03*
Y187252D02*
D03*
Y195126D02*
D03*
Y203000D02*
D03*
Y210874D02*
D03*
Y218748D02*
D03*
Y226622D02*
D03*
Y234496D02*
D03*
Y242370D02*
D03*
Y250756D02*
D03*
D53*
X49000Y119000D02*
D03*
X81885Y226337D02*
D03*
X81898Y219228D02*
D03*
X89299Y219346D02*
D03*
X93118Y230252D02*
D03*
X85402Y222772D02*
D03*
X85283Y229740D02*
D03*
X81779Y233480D02*
D03*
X93118Y222772D02*
D03*
X89142Y226236D02*
D03*
X77527Y229898D02*
D03*
X78118Y222811D02*
D03*
X89181Y233362D02*
D03*
X106347Y50873D02*
D03*
X103123Y50857D02*
D03*
X98500Y144500D02*
D03*
X97500Y142500D02*
D03*
X100500Y140000D02*
D03*
X88500Y169500D02*
D03*
X14500Y196000D02*
D03*
X24500Y236000D02*
D03*
X139000Y249500D02*
D03*
X137500Y244000D02*
D03*
X143500Y223606D02*
D03*
X138500Y217500D02*
D03*
X144500Y211000D02*
D03*
X138500Y205500D02*
D03*
X53500Y17000D02*
D03*
X36000Y99000D02*
D03*
X80500Y157000D02*
D03*
X111000Y116000D02*
D03*
X59000Y74500D02*
D03*
X60000Y73500D02*
D03*
X58500Y76500D02*
D03*
X57000Y76000D02*
D03*
X61000Y74500D02*
D03*
X50495Y79000D02*
D03*
X112000Y145000D02*
D03*
X109000Y142500D02*
D03*
X112000Y138500D02*
D03*
Y141500D02*
D03*
X108000Y140500D02*
D03*
X110500Y140000D02*
D03*
X112000Y143500D02*
D03*
X109000Y144500D02*
D03*
X46500Y111000D02*
D03*
X63000Y114000D02*
D03*
X144606Y191903D02*
D03*
X142500Y195442D02*
D03*
X140394Y190500D02*
D03*
X113000Y234500D02*
D03*
X110000Y204500D02*
D03*
X109000Y195000D02*
D03*
X111500Y193000D02*
D03*
X116000Y226500D02*
D03*
X111014Y181514D02*
D03*
X121500Y152500D02*
D03*
X107500Y200500D02*
D03*
X34500Y68000D02*
D03*
X32000Y69500D02*
D03*
X30500D02*
D03*
X28500D02*
D03*
X4000Y51500D02*
D03*
X7000D02*
D03*
X8500Y53500D02*
D03*
X6500Y54500D02*
D03*
X3500Y54000D02*
D03*
X139000Y73000D02*
D03*
X75500Y199000D02*
D03*
X101500Y144500D02*
D03*
X103000Y139000D02*
D03*
X114500Y138000D02*
D03*
X116000Y139000D02*
D03*
X114000Y140000D02*
D03*
X108500Y138500D02*
D03*
X105500D02*
D03*
X39925Y240925D02*
D03*
Y235925D02*
D03*
X52000Y153000D02*
D03*
X126500Y154500D02*
D03*
X107500Y198000D02*
D03*
X62000Y160000D02*
D03*
X75500D02*
D03*
X67500Y160500D02*
D03*
X62000Y191000D02*
D03*
X70500Y195500D02*
D03*
X71081Y180665D02*
D03*
X90000Y200500D02*
D03*
X26606Y198004D02*
D03*
X90000Y179000D02*
D03*
X70000Y227000D02*
D03*
X24500Y238000D02*
D03*
X139500Y225500D02*
D03*
X19500Y160000D02*
D03*
X18500Y188500D02*
D03*
Y193000D02*
D03*
X20500Y163000D02*
D03*
X26500Y211000D02*
D03*
X30500Y213039D02*
D03*
X26500Y206000D02*
D03*
X30736Y220236D02*
D03*
X35000Y223000D02*
D03*
X34500Y230500D02*
D03*
D54*
X8000Y9500D02*
D03*
X150500D02*
D03*
X149000Y265500D02*
D03*
X8000D02*
D03*
D55*
X43000Y140500D02*
D03*
X50000Y30500D02*
D03*
X137500Y256000D02*
D03*
X100500Y142000D02*
D03*
X39239Y251500D02*
D03*
M02*
