M48
;Layer_Color=9474304
;FILE_FORMAT=2:5
INCH,LZ
;TYPE=PLATED
T1F00S00C0.00394
T2F00S00C0.01181
T3F00S00C0.03150
T4F00S00C0.09843
%
T01
X00535Y0017
X0057Y0076
X00585Y00765
X0059Y00745
X006Y00735
X0061Y00745
X0050495Y0079
X0103123Y0050857
X0106347Y0050873
X0139Y0073
X00345Y0068
X0032Y00695
X00305
X00285
X00085Y00535
X00065Y00545
X0007Y00515
X0004
X00035Y0054
X0036Y0099
X00465Y0111
X0049Y0119
X00195Y016
X00205Y0163
X00185Y01885
Y0193
X00145Y0196
X0026606Y0198004
X00265Y0206
Y0211
X00305Y0213039
X0030736Y0220236
X0035Y0223
X00345Y02305
X0039925Y0235925
X00245Y0236
Y0238
X007Y0227
X0077527Y0229898
X0078118Y0222811
X0081885Y0226337
X0085283Y022974
X0085402Y0222772
X0081898Y0219228
X0089299Y0219346
X0089142Y0226236
X0089181Y0233362
X0093118Y0230252
Y0222772
X0081779Y023348
X0113Y02345
X0116Y02265
X01395Y02255
X01435Y0223606
X01385Y02175
Y02055
X01445Y0211
X01425Y0195442
X0144606Y0191903
X0140394Y01905
X01115Y0193
X0109Y0195
X01075Y0198
Y02005
X011Y02045
X0111014Y0181514
X009Y0179
X00885Y01695
X00805Y0157
X00755Y016
X00675Y01605
X0062Y016
X0052Y0153
X0071081Y0180665
X00705Y01955
X00755Y0199
X009Y02005
X0062Y0191
X0063Y0114
X0111Y0116
X0112Y01385
Y01415
Y01435
Y0145
X0109Y01445
Y01425
X0108Y01405
X01085Y01385
X01055
X0103Y0139
X01005Y014
X00975Y01425
X00985Y01445
X01015
X01105Y014
X0114
X01145Y0138
X0116Y0139
X01215Y01525
X01265Y01545
X01375Y0244
X0139Y02495
X0039925Y0240925
T02
X005Y00305
X0043Y01405
X01005Y0142
X01375Y0256
X0039239Y02515
T03
X00065Y0069205
Y0077
Y0101516
Y010939
Y0117264
Y0125138
Y0133012
Y0140886
Y014876
Y0156634
Y0164508
Y0172382
Y0180256
Y018813
Y0196004
Y0203878
Y0211752
Y0219626
Y02275
Y0235374
X01525Y0234496
Y0226622
Y0218748
Y0210874
Y0203
Y0195126
Y0187252
Y0179378
Y0171504
Y016363
Y024237
Y0250756
X00065Y0251634
Y0243248
T04
X01505Y00095
X0008
X0149Y02655
X0008
M30
