G04*
G04 #@! TF.GenerationSoftware,Altium Limited,Altium Designer,22.1.2 (22)*
G04*
G04 Layer_Color=65280*
%FSLAX25Y25*%
%MOIN*%
G70*
G04*
G04 #@! TF.SameCoordinates,E6BCAF42-7E50-4797-BEDC-23F1F838AA05*
G04*
G04*
G04 #@! TF.FilePolarity,Positive*
G04*
G01*
G75*
%ADD11C,0.00394*%
%ADD12C,0.00787*%
%ADD13C,0.00197*%
D11*
X53236Y258096D02*
Y283618D01*
X124890D01*
Y258028D02*
Y283618D01*
Y159209D02*
Y163539D01*
X53236Y159209D02*
X124890D01*
X53236D02*
Y163146D01*
X84047Y137522D02*
X140347Y137128D01*
X84047Y76498D02*
Y137522D01*
Y76498D02*
X140347D01*
Y137128D01*
X75717Y35384D02*
Y61368D01*
X44818Y35384D02*
X75717D01*
X44818D02*
Y61368D01*
X75717D01*
X101795Y2256D02*
X101953Y16587D01*
X136008Y16508D01*
Y2177D02*
Y16508D01*
X101795Y2256D02*
X136008Y2177D01*
X58035Y24459D02*
X58075Y10D01*
X96286Y49D01*
X96247Y24341D02*
X96286Y49D01*
X58035Y24459D02*
X96247Y24341D01*
X17795Y2256D02*
X52008Y2177D01*
Y16508D01*
X17953Y16587D02*
X52008Y16508D01*
X17795Y2256D02*
X17953Y16587D01*
X88776Y57691D02*
X90744D01*
Y58675D01*
X90416Y59003D01*
X89104D01*
X88776Y58675D01*
Y57691D01*
X90744Y60971D02*
Y59659D01*
X89432Y60971D01*
X89104D01*
X88776Y60643D01*
Y59987D01*
X89104Y59659D01*
X64326Y68541D02*
X64654Y68213D01*
X65310D01*
X65638Y68541D01*
Y69853D01*
X65310Y70181D01*
X64654D01*
X64326Y69853D01*
X62686Y70181D02*
Y68213D01*
X63670Y69197D01*
X62358D01*
X34041Y30674D02*
X33713Y30346D01*
Y29690D01*
X34041Y29362D01*
X35353D01*
X35681Y29690D01*
Y30346D01*
X35353Y30674D01*
X34041Y31330D02*
X33713Y31658D01*
Y32314D01*
X34041Y32642D01*
X34369D01*
X34697Y32314D01*
Y31986D01*
Y32314D01*
X35025Y32642D01*
X35353D01*
X35681Y32314D01*
Y31658D01*
X35353Y31330D01*
X118502Y5300D02*
X118174Y4972D01*
Y4316D01*
X118502Y3988D01*
X118830D01*
X119158Y4316D01*
Y4972D01*
X119486Y5300D01*
X119814D01*
X120142Y4972D01*
Y4316D01*
X119814Y3988D01*
X118174Y5956D02*
X120142D01*
X119486Y6612D01*
X120142Y7268D01*
X118174D01*
X120142Y9236D02*
Y7924D01*
X118830Y9236D01*
X118502D01*
X118174Y8908D01*
Y8252D01*
X118502Y7924D01*
X68862Y16584D02*
Y14944D01*
X69191Y14616D01*
X69846D01*
X70174Y14944D01*
Y16584D01*
X72142Y16256D02*
X71814Y16584D01*
X71158D01*
X70830Y16256D01*
Y15928D01*
X71158Y15600D01*
X71814D01*
X72142Y15272D01*
Y14944D01*
X71814Y14616D01*
X71158D01*
X70830Y14944D01*
X72798Y16584D02*
Y14616D01*
X73782D01*
X74110Y14944D01*
Y15272D01*
X73782Y15600D01*
X72798D01*
X73782D01*
X74110Y15928D01*
Y16256D01*
X73782Y16584D01*
X72798D01*
X74766Y14616D02*
X75422D01*
X75094D01*
Y16584D01*
X74766Y16256D01*
X34502Y5300D02*
X34174Y4972D01*
Y4316D01*
X34502Y3988D01*
X34830D01*
X35158Y4316D01*
Y4972D01*
X35486Y5300D01*
X35814D01*
X36142Y4972D01*
Y4316D01*
X35814Y3988D01*
X34174Y5956D02*
X36142D01*
X35486Y6612D01*
X36142Y7268D01*
X34174D01*
X36142Y7924D02*
Y8580D01*
Y8252D01*
X34174D01*
X34502Y7924D01*
X22382Y29493D02*
X24350D01*
Y30476D01*
X24022Y30804D01*
X22710D01*
X22382Y30476D01*
Y29493D01*
X24350Y32444D02*
X22382D01*
X23366Y31460D01*
Y32772D01*
X4493Y59118D02*
Y57150D01*
X5476D01*
X5804Y57478D01*
Y58790D01*
X5476Y59118D01*
X4493D01*
X6460Y57150D02*
X7116D01*
X6788D01*
Y59118D01*
X6460Y58790D01*
X10752Y74480D02*
X10424D01*
X10096Y74152D01*
Y72513D01*
X8784Y73824D02*
X8128D01*
X8456D01*
Y71856D01*
X8784Y72184D01*
X23299Y85122D02*
X21331D01*
Y84138D01*
X21659Y83810D01*
X22971D01*
X23299Y84138D01*
Y85122D01*
X22971Y83154D02*
X23299Y82826D01*
Y82170D01*
X22971Y81842D01*
X22643D01*
X22315Y82170D01*
Y82498D01*
Y82170D01*
X21987Y81842D01*
X21659D01*
X21331Y82170D01*
Y82826D01*
X21659Y83154D01*
X37385Y111772D02*
Y110460D01*
X37713Y110133D01*
X38369D01*
X38697Y110460D01*
Y111772D01*
X38369Y112100D01*
X37713D01*
X38041Y111444D02*
X37385Y112100D01*
X37713D02*
X37385Y111772D01*
X36729Y112100D02*
X36073D01*
X36401D01*
Y110133D01*
X36729Y110460D01*
X53385Y112272D02*
Y110960D01*
X53713Y110633D01*
X54369D01*
X54697Y110960D01*
Y112272D01*
X54369Y112600D01*
X53713D01*
X54041Y111944D02*
X53385Y112600D01*
X53713D02*
X53385Y112272D01*
X51417Y112600D02*
X52729D01*
X51417Y111288D01*
Y110960D01*
X51745Y110633D01*
X52401D01*
X52729Y110960D01*
X67453Y120612D02*
Y118644D01*
X68437D01*
X68765Y118972D01*
Y120284D01*
X68437Y120612D01*
X67453D01*
X70732D02*
X69421D01*
Y119628D01*
X70077Y119956D01*
X70404D01*
X70732Y119628D01*
Y118972D01*
X70404Y118644D01*
X69749D01*
X69421Y118972D01*
X67453Y107612D02*
Y105644D01*
X68437D01*
X68765Y105972D01*
Y107284D01*
X68437Y107612D01*
X67453D01*
X70732D02*
X70077Y107284D01*
X69421Y106628D01*
Y105972D01*
X69749Y105644D01*
X70404D01*
X70732Y105972D01*
Y106300D01*
X70404Y106628D01*
X69421D01*
X67453Y93612D02*
Y91644D01*
X68437D01*
X68765Y91972D01*
Y93284D01*
X68437Y93612D01*
X67453D01*
X69421D02*
X70732D01*
Y93284D01*
X69421Y91972D01*
Y91644D01*
X67453Y80112D02*
Y78144D01*
X68437D01*
X68765Y78472D01*
Y79784D01*
X68437Y80112D01*
X67453D01*
X69421Y79784D02*
X69749Y80112D01*
X70404D01*
X70732Y79784D01*
Y79456D01*
X70404Y79128D01*
X70732Y78800D01*
Y78472D01*
X70404Y78144D01*
X69749D01*
X69421Y78472D01*
Y78800D01*
X69749Y79128D01*
X69421Y79456D01*
Y79784D01*
X69749Y79128D02*
X70404D01*
X77406Y140003D02*
X77078Y139675D01*
Y139019D01*
X77406Y138691D01*
X78718D01*
X79046Y139019D01*
Y139675D01*
X78718Y140003D01*
X79046Y140659D02*
Y141315D01*
Y140987D01*
X77078D01*
X77406Y140659D01*
X77078Y143611D02*
Y142299D01*
X78062D01*
X77734Y142955D01*
Y143283D01*
X78062Y143611D01*
X78718D01*
X79046Y143283D01*
Y142627D01*
X78718Y142299D01*
X4269Y177362D02*
X3613D01*
X3941D01*
Y175722D01*
X3613Y175394D01*
X3285D01*
X2957Y175722D01*
X6236Y175394D02*
X4924D01*
X6236Y176706D01*
Y177034D01*
X5909Y177362D01*
X5252D01*
X4924Y177034D01*
X151706Y208232D02*
X151050D01*
X151378D01*
Y206592D01*
X151050Y206264D01*
X150722D01*
X150394Y206592D01*
X152362Y207904D02*
X152690Y208232D01*
X153346D01*
X153674Y207904D01*
Y207576D01*
X153346Y207248D01*
X153017D01*
X153346D01*
X153674Y206920D01*
Y206592D01*
X153346Y206264D01*
X152690D01*
X152362Y206592D01*
D12*
X80402Y270625D02*
Y267345D01*
X81058Y266689D01*
X82369D01*
X83025Y267345D01*
Y270625D01*
X86305Y266689D02*
Y270625D01*
X84337Y268657D01*
X86961D01*
X120660Y115868D02*
X117380D01*
X116724Y115212D01*
Y113900D01*
X117380Y113244D01*
X120660D01*
Y109309D02*
Y111932D01*
X118692D01*
X119348Y110620D01*
Y109965D01*
X118692Y109309D01*
X117380D01*
X116724Y109965D01*
Y111276D01*
X117380Y111932D01*
X61542Y55069D02*
X58262D01*
X57606Y54413D01*
Y53101D01*
X58262Y52445D01*
X61542D01*
X57606Y51133D02*
Y49821D01*
Y50477D01*
X61542D01*
X60886Y51133D01*
D13*
X87240Y56116D02*
X87279Y66510D01*
X92870Y66470D01*
X92831Y56077D02*
X92870Y66470D01*
X87240Y56116D02*
X92831Y56077D01*
X79488Y56274D02*
Y66330D01*
X83661Y56274D02*
Y66369D01*
X79488Y56274D02*
X83661D01*
X79488Y66330D02*
X83661Y66369D01*
X119035Y73400D02*
X129092D01*
X119035Y69226D02*
X129131D01*
X119035D02*
Y73400D01*
X129092D02*
X129131Y69226D01*
X49772Y65457D02*
X66189Y65496D01*
X49732Y72425D02*
X49772Y65457D01*
X49732Y72425D02*
X66268Y72504D01*
X66189Y65496D02*
X66268Y72504D01*
X39413Y36444D02*
X43587Y36483D01*
X39413Y46539D02*
X43587D01*
X39413Y36444D02*
Y46539D01*
X43587Y36483D02*
Y46539D01*
X30957Y45228D02*
X30996Y28811D01*
X30957Y45228D02*
X37925Y45268D01*
X38004Y28732D01*
X30996Y28811D02*
X38004Y28732D01*
X122058Y21726D02*
X132114D01*
X122019Y25900D02*
X132114D01*
Y21726D02*
Y25900D01*
X122019D02*
X122058Y21726D01*
X30517Y24087D02*
X30556Y19913D01*
X20461D02*
Y24087D01*
Y19913D02*
X30556D01*
X20461Y24087D02*
X30517D01*
X19153Y27996D02*
Y44965D01*
X25807Y44886D01*
Y27996D02*
Y44886D01*
X19153Y27996D02*
X25807D01*
X13944Y51587D02*
X13983Y47413D01*
X24039D02*
Y51587D01*
X13944D02*
X24039D01*
X13983Y47413D02*
X24039D01*
X2996Y62347D02*
X19965D01*
X19886Y55693D02*
X19965Y62347D01*
X2996Y55693D02*
X19886D01*
X2996D02*
Y62347D01*
X9200Y79756D02*
X9243Y66567D01*
X3775Y79756D02*
X9200D01*
X3775D02*
X3818Y66518D01*
X9243Y66567D01*
X19244Y86736D02*
X24835Y86697D01*
X19205Y76342D02*
X19244Y86736D01*
X19205Y76342D02*
X24795Y76303D01*
X24835Y86697D01*
X11913Y76444D02*
X16087Y76483D01*
X11913Y86539D02*
X16087D01*
X11913Y76444D02*
Y86539D01*
X16087Y76483D02*
Y86539D01*
X38461Y130087D02*
X48517D01*
X38461Y125913D02*
X48556D01*
X38461D02*
Y130087D01*
X48517D02*
X48556Y125913D01*
X38483Y119913D02*
X48539D01*
X38444Y124087D02*
X48539D01*
Y119913D02*
Y124087D01*
X38444D02*
X38483Y119913D01*
X29169Y105368D02*
X41216Y105329D01*
X29169Y105368D02*
Y117337D01*
X41216Y117494D01*
Y105329D02*
Y117494D01*
X45169Y105868D02*
X57217Y105829D01*
X45169Y105868D02*
Y117837D01*
X57217Y117994D01*
Y105829D02*
Y117994D01*
X65878Y122148D02*
X76272Y122108D01*
X76232Y116518D02*
X76272Y122108D01*
X65839Y116557D02*
X76232Y116518D01*
X65839Y116557D02*
X65878Y122148D01*
X66058Y110726D02*
X76114D01*
X66019Y114900D02*
X76114D01*
Y110726D02*
Y114900D01*
X66019D02*
X66058Y110726D01*
X65878Y109148D02*
X76272Y109108D01*
X76232Y103518D02*
X76272Y109108D01*
X65839Y103557D02*
X76232Y103518D01*
X65839Y103557D02*
X65878Y109148D01*
X66058Y97226D02*
X76114D01*
X66019Y101400D02*
X76114D01*
Y97226D02*
Y101400D01*
X66019D02*
X66058Y97226D01*
X65878Y95148D02*
X76272Y95108D01*
X76232Y89518D02*
X76272Y95108D01*
X65839Y89557D02*
X76232Y89518D01*
X65839Y89557D02*
X65878Y95148D01*
X66058Y83226D02*
X76114D01*
X66019Y87400D02*
X76114D01*
Y83226D02*
Y87400D01*
X66019D02*
X66058Y83226D01*
X65878Y81648D02*
X76272Y81608D01*
X76232Y76018D02*
X76272Y81608D01*
X65839Y76057D02*
X76232Y76018D01*
X65839Y76057D02*
X65878Y81648D01*
X50216Y137296D02*
Y147352D01*
X46043Y137257D02*
Y147352D01*
X50216D01*
X46043Y137257D02*
X50216Y137296D01*
X73621D02*
Y147352D01*
X69448Y137257D02*
Y147352D01*
X73621D01*
X69448Y137257D02*
X73621Y137296D01*
X67661Y137296D02*
Y147352D01*
X63488Y137257D02*
Y147352D01*
X67661D01*
X63488Y137257D02*
X67661Y137296D01*
X62075Y137296D02*
Y147352D01*
X57902Y137257D02*
Y147352D01*
X62075D01*
X57902Y137257D02*
X62075Y137296D01*
X75542Y137116D02*
X81133Y137077D01*
X81172Y147470D01*
X75581Y147510D02*
X81172Y147470D01*
X75542Y137116D02*
X75581Y147510D01*
X135988Y141274D02*
Y151330D01*
X140161Y141274D02*
Y151369D01*
X135988Y141274D02*
X140161D01*
X135988Y151330D02*
X140161Y151369D01*
X130488Y141274D02*
Y151330D01*
X134661Y141274D02*
Y151369D01*
X130488Y141274D02*
X134661D01*
X130488Y151330D02*
X134661Y151369D01*
X124988Y141274D02*
Y151330D01*
X129161Y141274D02*
Y151369D01*
X124988Y141274D02*
X129161D01*
X124988Y151330D02*
X129161Y151369D01*
X113488Y141257D02*
X117661Y141296D01*
X113488Y151352D02*
X117661D01*
X113488Y141257D02*
Y151352D01*
X117661Y141296D02*
Y151352D01*
X102988Y141257D02*
X107161Y141296D01*
X102988Y151352D02*
X107161D01*
X102988Y141257D02*
Y151352D01*
X107161Y141296D02*
Y151352D01*
X41913Y249444D02*
X46087Y249483D01*
X41913Y259539D02*
X46087D01*
X41913Y249444D02*
Y259539D01*
X46087Y249483D02*
Y259539D01*
X45488Y101830D02*
X49661Y101869D01*
X45488Y91774D02*
X49661D01*
Y101869D01*
X45488Y91774D02*
Y101830D01*
X37988Y91774D02*
Y101830D01*
X42161Y91774D02*
Y101869D01*
X37988Y91774D02*
X42161D01*
X37988Y101830D02*
X42161Y101869D01*
X51988Y137257D02*
X56161Y137296D01*
X51988Y147352D02*
X56161D01*
X51988Y137257D02*
Y147352D01*
X56161Y137296D02*
Y147352D01*
X3792Y254377D02*
X3792Y98807D01*
X9194D01*
X9194Y254377D02*
X9194Y98807D01*
X3792Y254377D02*
X9194D01*
X65983Y123413D02*
X76039D01*
X65944Y127587D02*
X76039D01*
Y123413D02*
Y127587D01*
X65944D02*
X65983Y123413D01*
X148169Y254466D02*
X156437D01*
Y159555D02*
Y254466D01*
X148169Y159555D02*
X156437D01*
X148169D02*
Y254466D01*
X134087Y253983D02*
Y264039D01*
X129913Y253944D02*
Y264039D01*
X134087D01*
X129913Y253944D02*
X134087Y253983D01*
X82677Y58872D02*
X81496D01*
Y59462D01*
X81693Y59659D01*
X82087D01*
X82284Y59462D01*
Y58872D01*
Y59266D02*
X82677Y59659D01*
Y60053D02*
Y60446D01*
Y60250D01*
X81496D01*
X81693Y60053D01*
X121634Y70211D02*
Y71391D01*
X122224D01*
X122421Y71195D01*
Y70801D01*
X122224Y70604D01*
X121634D01*
X122027D02*
X122421Y70211D01*
X122815D02*
X123208D01*
X123011D01*
Y71391D01*
X122815Y71195D01*
X123799Y70211D02*
X124192D01*
X123995D01*
Y71391D01*
X123799Y71195D01*
X41382Y43154D02*
X41578Y43351D01*
Y43744D01*
X41382Y43941D01*
X40594D01*
X40398Y43744D01*
Y43351D01*
X40594Y43154D01*
X40398Y42760D02*
Y42367D01*
Y42563D01*
X41578D01*
X41382Y42760D01*
X129516Y24915D02*
Y23735D01*
X128925D01*
X128729Y23931D01*
Y24325D01*
X128925Y24522D01*
X129516D01*
X129122D02*
X128729Y24915D01*
X127548Y23735D02*
X128335D01*
Y24325D01*
X127942Y24128D01*
X127745D01*
X127548Y24325D01*
Y24719D01*
X127745Y24915D01*
X128138D01*
X128335Y24719D01*
X23846Y21882D02*
X23649Y22078D01*
X23256D01*
X23059Y21882D01*
Y21094D01*
X23256Y20898D01*
X23649D01*
X23846Y21094D01*
X24240Y20898D02*
X24633D01*
X24437D01*
Y22078D01*
X24240Y21882D01*
X25224Y20898D02*
X25617D01*
X25420D01*
Y22078D01*
X25224Y21882D01*
X20654Y49618D02*
X20851Y49422D01*
X21244D01*
X21441Y49618D01*
Y50406D01*
X21244Y50602D01*
X20851D01*
X20654Y50406D01*
X19473Y49422D02*
X19866Y49618D01*
X20260Y50012D01*
Y50406D01*
X20063Y50602D01*
X19670D01*
X19473Y50406D01*
Y50209D01*
X19670Y50012D01*
X20260D01*
X12898Y83941D02*
X14078D01*
Y83351D01*
X13882Y83154D01*
X13488D01*
X13291Y83351D01*
Y83941D01*
Y83547D02*
X12898Y83154D01*
Y81973D02*
Y82760D01*
X13685Y81973D01*
X13882D01*
X14078Y82170D01*
Y82563D01*
X13882Y82760D01*
X41059Y126898D02*
Y128078D01*
X41649D01*
X41846Y127882D01*
Y127488D01*
X41649Y127291D01*
X41059D01*
X41453D02*
X41846Y126898D01*
X43027Y128078D02*
X42633Y127882D01*
X42240Y127488D01*
Y127094D01*
X42437Y126898D01*
X42830D01*
X43027Y127094D01*
Y127291D01*
X42830Y127488D01*
X42240D01*
X45941Y123102D02*
Y121922D01*
X45351D01*
X45154Y122118D01*
Y122512D01*
X45351Y122709D01*
X45941D01*
X45547D02*
X45154Y123102D01*
X44170D02*
Y121922D01*
X44760Y122512D01*
X43973D01*
X73516Y113915D02*
Y112735D01*
X72925D01*
X72729Y112931D01*
Y113325D01*
X72925Y113522D01*
X73516D01*
X73122D02*
X72729Y113915D01*
X72335D02*
X71941D01*
X72138D01*
Y112735D01*
X72335Y112931D01*
X70564Y113915D02*
X71351D01*
X70564Y113128D01*
Y112931D01*
X70761Y112735D01*
X71154D01*
X71351Y112931D01*
X73516Y100415D02*
Y99235D01*
X72925D01*
X72729Y99431D01*
Y99825D01*
X72925Y100022D01*
X73516D01*
X73122D02*
X72729Y100415D01*
X72335D02*
X71941D01*
X72138D01*
Y99235D01*
X72335Y99431D01*
X70761Y100415D02*
Y99235D01*
X71351Y99825D01*
X70564D01*
X73516Y86415D02*
Y85235D01*
X72925D01*
X72729Y85431D01*
Y85825D01*
X72925Y86022D01*
X73516D01*
X73122D02*
X72729Y86415D01*
X71548D02*
X72335D01*
X71548Y85628D01*
Y85431D01*
X71745Y85235D01*
X72138D01*
X72335Y85431D01*
X71154Y86415D02*
X70761D01*
X70957D01*
Y85235D01*
X71154Y85431D01*
X47027Y144754D02*
X48208D01*
Y144164D01*
X48011Y143967D01*
X47617D01*
X47420Y144164D01*
Y144754D01*
Y144360D02*
X47027Y143967D01*
Y143573D02*
Y143180D01*
Y143376D01*
X48208D01*
X48011Y143573D01*
X47224Y142589D02*
X47027Y142393D01*
Y141999D01*
X47224Y141802D01*
X48011D01*
X48208Y141999D01*
Y142393D01*
X48011Y142589D01*
X47814D01*
X47617Y142393D01*
Y141802D01*
X70432Y144754D02*
X71613D01*
Y144164D01*
X71416Y143967D01*
X71023D01*
X70826Y144164D01*
Y144754D01*
Y144360D02*
X70432Y143967D01*
Y143573D02*
Y143180D01*
Y143376D01*
X71613D01*
X71416Y143573D01*
X71613Y141802D02*
X71416Y142196D01*
X71023Y142589D01*
X70629D01*
X70432Y142393D01*
Y141999D01*
X70629Y141802D01*
X70826D01*
X71023Y141999D01*
Y142589D01*
X64472Y144754D02*
X65653D01*
Y144164D01*
X65456Y143967D01*
X65063D01*
X64866Y144164D01*
Y144754D01*
Y144360D02*
X64472Y143967D01*
Y143573D02*
Y143180D01*
Y143376D01*
X65653D01*
X65456Y143573D01*
X65653Y142589D02*
Y141802D01*
X65456D01*
X64669Y142589D01*
X64472D01*
X58886Y144754D02*
X60066D01*
Y144164D01*
X59870Y143967D01*
X59476D01*
X59279Y144164D01*
Y144754D01*
Y144360D02*
X58886Y143967D01*
Y143573D02*
Y143180D01*
Y143376D01*
X60066D01*
X59870Y143573D01*
Y142589D02*
X60066Y142393D01*
Y141999D01*
X59870Y141802D01*
X59673D01*
X59476Y141999D01*
X59279Y141802D01*
X59083D01*
X58886Y141999D01*
Y142393D01*
X59083Y142589D01*
X59279D01*
X59476Y142393D01*
X59673Y142589D01*
X59870D01*
X59476Y142393D02*
Y141999D01*
X139177Y143872D02*
X137996D01*
Y144462D01*
X138193Y144659D01*
X138587D01*
X138784Y144462D01*
Y143872D01*
Y144266D02*
X139177Y144659D01*
X138980Y145053D02*
X139177Y145249D01*
Y145643D01*
X138980Y145840D01*
X138193D01*
X137996Y145643D01*
Y145249D01*
X138193Y145053D01*
X138390D01*
X138587Y145249D01*
Y145840D01*
X133677Y143872D02*
X132496D01*
Y144462D01*
X132693Y144659D01*
X133087D01*
X133284Y144462D01*
Y143872D01*
Y144266D02*
X133677Y144659D01*
X132693Y145053D02*
X132496Y145249D01*
Y145643D01*
X132693Y145840D01*
X132890D01*
X133087Y145643D01*
X133284Y145840D01*
X133480D01*
X133677Y145643D01*
Y145249D01*
X133480Y145053D01*
X133284D01*
X133087Y145249D01*
X132890Y145053D01*
X132693D01*
X133087Y145249D02*
Y145643D01*
X128177Y143872D02*
X126996D01*
Y144462D01*
X127193Y144659D01*
X127587D01*
X127784Y144462D01*
Y143872D01*
Y144266D02*
X128177Y144659D01*
X126996Y145053D02*
Y145840D01*
X127193D01*
X127980Y145053D01*
X128177D01*
X115456Y147967D02*
X115653Y148164D01*
Y148557D01*
X115456Y148754D01*
X114669D01*
X114472Y148557D01*
Y148164D01*
X114669Y147967D01*
X114472Y147573D02*
Y147180D01*
Y147376D01*
X115653D01*
X115456Y147573D01*
X114472Y145999D02*
X115653D01*
X115063Y146589D01*
Y145802D01*
X104956Y147967D02*
X105153Y148164D01*
Y148557D01*
X104956Y148754D01*
X104169D01*
X103972Y148557D01*
Y148164D01*
X104169Y147967D01*
X103972Y147573D02*
Y147180D01*
Y147376D01*
X105153D01*
X104956Y147573D01*
Y146589D02*
X105153Y146393D01*
Y145999D01*
X104956Y145802D01*
X104760D01*
X104563Y145999D01*
Y146196D01*
Y145999D01*
X104366Y145802D01*
X104169D01*
X103972Y145999D01*
Y146393D01*
X104169Y146589D01*
X43882Y256154D02*
X44078Y256351D01*
Y256744D01*
X43882Y256941D01*
X43094D01*
X42898Y256744D01*
Y256351D01*
X43094Y256154D01*
X42898Y255760D02*
Y255367D01*
Y255563D01*
X44078D01*
X43882Y255760D01*
X42898Y253989D02*
Y254776D01*
X43685Y253989D01*
X43882D01*
X44078Y254186D01*
Y254579D01*
X43882Y254776D01*
X48677Y94372D02*
X47496D01*
Y94962D01*
X47693Y95159D01*
X48087D01*
X48284Y94962D01*
Y94372D01*
Y94766D02*
X48677Y95159D01*
Y95553D02*
Y95946D01*
Y95749D01*
X47496D01*
X47693Y95553D01*
Y96537D02*
X47496Y96733D01*
Y97127D01*
X47693Y97324D01*
X47890D01*
X48087Y97127D01*
Y96930D01*
Y97127D01*
X48284Y97324D01*
X48480D01*
X48677Y97127D01*
Y96733D01*
X48480Y96537D01*
X41177Y94372D02*
X39996D01*
Y94962D01*
X40193Y95159D01*
X40587D01*
X40784Y94962D01*
Y94372D01*
Y94766D02*
X41177Y95159D01*
Y96340D02*
Y95553D01*
X40390Y96340D01*
X40193D01*
X39996Y96143D01*
Y95749D01*
X40193Y95553D01*
Y96733D02*
X39996Y96930D01*
Y97324D01*
X40193Y97521D01*
X40980D01*
X41177Y97324D01*
Y96930D01*
X40980Y96733D01*
X40193D01*
X52972Y144754D02*
X54153D01*
Y144164D01*
X53956Y143967D01*
X53563D01*
X53366Y144164D01*
Y144754D01*
Y144360D02*
X52972Y143967D01*
Y143573D02*
Y143180D01*
Y143376D01*
X54153D01*
X53956Y143573D01*
X54153Y141802D02*
Y142589D01*
X53563D01*
X53760Y142196D01*
Y141999D01*
X53563Y141802D01*
X53169D01*
X52972Y141999D01*
Y142393D01*
X53169Y142589D01*
X73441Y126602D02*
Y125422D01*
X72851D01*
X72654Y125618D01*
Y126012D01*
X72851Y126209D01*
X73441D01*
X73047D02*
X72654Y126602D01*
X72260D02*
X71867D01*
X72063D01*
Y125422D01*
X72260Y125618D01*
X71276D02*
X71079Y125422D01*
X70686D01*
X70489Y125618D01*
Y126406D01*
X70686Y126602D01*
X71079D01*
X71276Y126406D01*
Y125618D01*
X133681Y259516D02*
X133878Y259713D01*
Y260106D01*
X133681Y260303D01*
X132894D01*
X132697Y260106D01*
Y259713D01*
X132894Y259516D01*
X132697Y258335D02*
Y259122D01*
X133484Y258335D01*
X133681D01*
X133878Y258532D01*
Y258926D01*
X133681Y259122D01*
M02*
