G04*
G04 #@! TF.GenerationSoftware,Altium Limited,Altium Designer,22.1.2 (22)*
G04*
G04 Layer_Color=255*
%FSLAX25Y25*%
%MOIN*%
G70*
G04*
G04 #@! TF.SameCoordinates,E6BCAF42-7E50-4797-BEDC-23F1F838AA05*
G04*
G04*
G04 #@! TF.FilePolarity,Positive*
G04*
G01*
G75*
%ADD14R,0.07874X0.03543*%
%ADD15R,0.05236X0.05236*%
%ADD16R,0.03543X0.07874*%
%ADD17R,0.05118X0.02756*%
%ADD18R,0.03543X0.03150*%
%ADD19R,0.03150X0.03543*%
%ADD20R,0.03937X0.09646*%
%ADD21R,0.09646X0.03937*%
%ADD22R,0.04331X0.06299*%
%ADD23R,0.05512X0.13780*%
%ADD24R,0.05512X0.04724*%
%ADD25R,0.06299X0.04331*%
%ADD26R,0.07874X0.11811*%
%ADD27R,0.07480X0.07087*%
%ADD28R,0.01575X0.05315*%
%ADD29R,0.08268X0.06299*%
%ADD30R,0.03543X0.03740*%
%ADD31R,0.03740X0.03543*%
%ADD32R,0.02756X0.05118*%
%ADD60C,0.04724*%
D14*
X55992Y185665D02*
D03*
X55913Y191039D02*
D03*
Y196039D02*
D03*
Y201039D02*
D03*
Y206039D02*
D03*
Y211039D02*
D03*
Y216039D02*
D03*
Y221039D02*
D03*
Y226039D02*
D03*
Y231039D02*
D03*
Y236039D02*
D03*
Y241039D02*
D03*
Y246039D02*
D03*
Y251039D02*
D03*
Y256039D02*
D03*
X122843Y191039D02*
D03*
Y196039D02*
D03*
Y201039D02*
D03*
Y206039D02*
D03*
Y211039D02*
D03*
Y216039D02*
D03*
Y221039D02*
D03*
Y226039D02*
D03*
Y231039D02*
D03*
Y236039D02*
D03*
Y241039D02*
D03*
Y246039D02*
D03*
Y251039D02*
D03*
Y256039D02*
D03*
X122921Y165665D02*
D03*
Y185665D02*
D03*
Y180665D02*
D03*
Y175665D02*
D03*
X55992Y180665D02*
D03*
Y175665D02*
D03*
Y170665D02*
D03*
Y165665D02*
D03*
X122921Y170665D02*
D03*
D15*
X85441Y226276D02*
D03*
X93000Y226354D02*
D03*
X78197Y226276D02*
D03*
X85441Y219051D02*
D03*
X93118D02*
D03*
X78216D02*
D03*
Y233559D02*
D03*
X93000Y233500D02*
D03*
X85441D02*
D03*
D16*
X67094Y187102D02*
D03*
X72095D02*
D03*
X77252D02*
D03*
X82095D02*
D03*
X87094D02*
D03*
X92094D02*
D03*
X97095D02*
D03*
X102094D02*
D03*
X107095D02*
D03*
X112094D02*
D03*
D17*
X90075Y64856D02*
D03*
Y57770D02*
D03*
X22000Y85043D02*
D03*
Y77957D02*
D03*
X78377Y138770D02*
D03*
Y145856D02*
D03*
D18*
X81575Y64463D02*
D03*
Y58163D02*
D03*
X41500Y44650D02*
D03*
Y38350D02*
D03*
X14000Y84650D02*
D03*
Y78350D02*
D03*
X48129Y139163D02*
D03*
Y145463D02*
D03*
X71535Y139163D02*
D03*
Y145463D02*
D03*
X65575Y139163D02*
D03*
Y145463D02*
D03*
X59988Y139163D02*
D03*
Y145463D02*
D03*
X138075Y149463D02*
D03*
Y143163D02*
D03*
X132575Y149463D02*
D03*
Y143163D02*
D03*
X127075Y149463D02*
D03*
Y143163D02*
D03*
X115575Y149463D02*
D03*
Y143163D02*
D03*
X105075Y149463D02*
D03*
Y143163D02*
D03*
X44000Y257650D02*
D03*
Y251350D02*
D03*
X47575Y93663D02*
D03*
Y99963D02*
D03*
X40075D02*
D03*
Y93663D02*
D03*
X54075Y145463D02*
D03*
Y139163D02*
D03*
X132000Y255850D02*
D03*
Y262150D02*
D03*
D19*
X127224Y71313D02*
D03*
X120925D02*
D03*
X123925Y23813D02*
D03*
X130224D02*
D03*
X22350Y22000D02*
D03*
X28650D02*
D03*
X22150Y49500D02*
D03*
X15850D02*
D03*
X46650Y128000D02*
D03*
X40350D02*
D03*
X40350Y122000D02*
D03*
X46650D02*
D03*
X31335Y115250D02*
D03*
X38815D02*
D03*
X35075Y107376D02*
D03*
X47335Y115750D02*
D03*
X54815D02*
D03*
X51075Y107876D02*
D03*
X67925Y112813D02*
D03*
X74224D02*
D03*
X67925Y99313D02*
D03*
X74224D02*
D03*
X67925Y85313D02*
D03*
X74224D02*
D03*
X67850Y125500D02*
D03*
X74150D02*
D03*
D20*
X104717Y81616D02*
D03*
X137787Y132010D02*
D03*
X104717D02*
D03*
X132276D02*
D03*
X126764D02*
D03*
X121252D02*
D03*
X115740D02*
D03*
X110228D02*
D03*
X99205D02*
D03*
X110228Y81616D02*
D03*
X115740D02*
D03*
X121252D02*
D03*
X126764D02*
D03*
X132276D02*
D03*
X137787D02*
D03*
X99205D02*
D03*
D21*
X89362Y125711D02*
D03*
Y120986D02*
D03*
Y115474D02*
D03*
Y109963D02*
D03*
Y104451D02*
D03*
Y98939D02*
D03*
Y93427D02*
D03*
Y87915D02*
D03*
D22*
X52291Y69000D02*
D03*
X63709D02*
D03*
D23*
X72567Y48376D02*
D03*
D24*
X48158Y39321D02*
D03*
Y48376D02*
D03*
Y57431D02*
D03*
D25*
X34500Y42709D02*
D03*
Y31291D02*
D03*
D26*
X131795Y9500D02*
D03*
X106205D02*
D03*
X22205D02*
D03*
X47795D02*
D03*
D27*
X91972Y9990D02*
D03*
X62051D02*
D03*
D28*
X82130Y21211D02*
D03*
X79571D02*
D03*
X77012D02*
D03*
X74453D02*
D03*
X71894D02*
D03*
D29*
X65004Y20728D02*
D03*
X89020D02*
D03*
D30*
X22500Y42701D02*
D03*
Y30299D02*
D03*
D31*
X17701Y59000D02*
D03*
X5299D02*
D03*
D32*
X74618Y119313D02*
D03*
X67532D02*
D03*
X74618Y106313D02*
D03*
X67532D02*
D03*
X74618Y92313D02*
D03*
X67532D02*
D03*
X74618Y78813D02*
D03*
X67532D02*
D03*
D60*
X6500Y77000D02*
D03*
Y69205D02*
D03*
Y101516D02*
D03*
Y109390D02*
D03*
Y117264D02*
D03*
Y125138D02*
D03*
Y133012D02*
D03*
Y140886D02*
D03*
Y148760D02*
D03*
Y156634D02*
D03*
Y164508D02*
D03*
Y172382D02*
D03*
Y180256D02*
D03*
Y188130D02*
D03*
Y196004D02*
D03*
Y203878D02*
D03*
Y211752D02*
D03*
Y219626D02*
D03*
Y227500D02*
D03*
Y235374D02*
D03*
Y243248D02*
D03*
Y251634D02*
D03*
X152500Y163630D02*
D03*
Y171504D02*
D03*
Y179378D02*
D03*
Y187252D02*
D03*
Y195126D02*
D03*
Y203000D02*
D03*
Y210874D02*
D03*
Y218748D02*
D03*
Y226622D02*
D03*
Y234496D02*
D03*
Y242370D02*
D03*
Y250756D02*
D03*
M02*
