G04*
G04 #@! TF.GenerationSoftware,Altium Limited,Altium Designer,22.1.2 (22)*
G04*
G04 Layer_Color=2752767*
%FSLAX25Y25*%
%MOIN*%
G70*
G04*
G04 #@! TF.SameCoordinates,E6BCAF42-7E50-4797-BEDC-23F1F838AA05*
G04*
G04*
G04 #@! TF.FilePolarity,Positive*
G04*
G01*
G75*
%ADD73C,0.00200*%
%ADD74C,0.00267*%
D73*
X5700Y76200D02*
Y77800D01*
X7300D01*
Y76200D01*
X5700D01*
Y68405D02*
Y70005D01*
X7300D01*
Y68405D01*
X5700D01*
Y100716D02*
Y102316D01*
X7300D01*
Y100716D01*
X5700D01*
Y108590D02*
Y110190D01*
X7300D01*
Y108590D01*
X5700D01*
Y116464D02*
Y118064D01*
X7300D01*
Y116464D01*
X5700D01*
Y124338D02*
Y125938D01*
X7300D01*
Y124338D01*
X5700D01*
Y132212D02*
Y133812D01*
X7300D01*
Y132212D01*
X5700D01*
Y140086D02*
Y141686D01*
X7300D01*
Y140086D01*
X5700D01*
Y147960D02*
Y149560D01*
X7300D01*
Y147960D01*
X5700D01*
Y155834D02*
Y157434D01*
X7300D01*
Y155834D01*
X5700D01*
Y163708D02*
Y165308D01*
X7300D01*
Y163708D01*
X5700D01*
Y171582D02*
Y173182D01*
X7300D01*
Y171582D01*
X5700D01*
Y179456D02*
Y181056D01*
X7300D01*
Y179456D01*
X5700D01*
Y187330D02*
Y188930D01*
X7300D01*
Y187330D01*
X5700D01*
Y195204D02*
Y196804D01*
X7300D01*
Y195204D01*
X5700D01*
Y203078D02*
Y204678D01*
X7300D01*
Y203078D01*
X5700D01*
Y210952D02*
Y212552D01*
X7300D01*
Y210952D01*
X5700D01*
Y218826D02*
Y220426D01*
X7300D01*
Y218826D01*
X5700D01*
Y226700D02*
Y228300D01*
X7300D01*
Y226700D01*
X5700D01*
Y234574D02*
Y236174D01*
X7300D01*
Y234574D01*
X5700D01*
Y242448D02*
Y244048D01*
X7300D01*
Y242448D01*
X5700D01*
Y250834D02*
Y252434D01*
X7300D01*
Y250834D01*
X5700D01*
X151700Y162830D02*
Y164430D01*
X153300D01*
Y162830D01*
X151700D01*
Y170704D02*
Y172304D01*
X153300D01*
Y170704D01*
X151700D01*
Y178578D02*
Y180178D01*
X153300D01*
Y178578D01*
X151700D01*
Y186452D02*
Y188052D01*
X153300D01*
Y186452D01*
X151700D01*
Y194326D02*
Y195926D01*
X153300D01*
Y194326D01*
X151700D01*
Y202200D02*
Y203800D01*
X153300D01*
Y202200D01*
X151700D01*
Y210074D02*
Y211674D01*
X153300D01*
Y210074D01*
X151700D01*
Y217948D02*
Y219548D01*
X153300D01*
Y217948D01*
X151700D01*
Y225822D02*
Y227422D01*
X153300D01*
Y225822D01*
X151700D01*
Y233696D02*
Y235296D01*
X153300D01*
Y233696D01*
X151700D01*
Y241570D02*
Y243170D01*
X153300D01*
Y241570D01*
X151700D01*
Y249956D02*
Y251556D01*
X153300D01*
Y249956D01*
X151700D01*
X8000Y8700D02*
X7200Y10300D01*
X8800D01*
X8000Y8700D01*
X150500D02*
X149700Y10300D01*
X151300D01*
X150500Y8700D01*
X149000Y264700D02*
X148200Y266300D01*
X149800D01*
X149000Y264700D01*
X8000D02*
X7200Y266300D01*
X8800D01*
X8000Y264700D01*
X43000Y139700D02*
X43400Y140100D01*
X43800D01*
X43400Y140500D01*
X43800Y140900D01*
X43400D01*
X43000Y141300D01*
X42600Y140900D01*
X42200D01*
X42600Y140500D01*
X42200Y140100D01*
X42600D01*
X43000Y139700D01*
X50000Y29700D02*
X50400Y30100D01*
X50800D01*
X50400Y30500D01*
X50800Y30900D01*
X50400D01*
X50000Y31300D01*
X49600Y30900D01*
X49200D01*
X49600Y30500D01*
X49200Y30100D01*
X49600D01*
X50000Y29700D01*
X137500Y255200D02*
X137900Y255600D01*
X138300D01*
X137900Y256000D01*
X138300Y256400D01*
X137900D01*
X137500Y256800D01*
X137100Y256400D01*
X136700D01*
X137100Y256000D01*
X136700Y255600D01*
X137100D01*
X137500Y255200D01*
X100500Y141200D02*
X100900Y141600D01*
X101300D01*
X100900Y142000D01*
X101300Y142400D01*
X100900D01*
X100500Y142800D01*
X100100Y142400D01*
X99700D01*
X100100Y142000D01*
X99700Y141600D01*
X100100D01*
X100500Y141200D01*
X39239Y250700D02*
X39639Y251100D01*
X40039D01*
X39639Y251500D01*
X40039Y251900D01*
X39639D01*
X39239Y252300D01*
X38839Y251900D01*
X38439D01*
X38839Y251500D01*
X38439Y251100D01*
X38839D01*
X39239Y250700D01*
D74*
X49800Y119000D02*
G03*
X49800Y119000I-800J0D01*
G01*
X82685Y226337D02*
G03*
X82685Y226337I-800J0D01*
G01*
X82698Y219228D02*
G03*
X82698Y219228I-800J0D01*
G01*
X90099Y219346D02*
G03*
X90099Y219346I-800J0D01*
G01*
X93918Y230252D02*
G03*
X93918Y230252I-800J0D01*
G01*
X86202Y222772D02*
G03*
X86202Y222772I-800J0D01*
G01*
X86084Y229740D02*
G03*
X86084Y229740I-800J0D01*
G01*
X82579Y233480D02*
G03*
X82579Y233480I-800J0D01*
G01*
X93918Y222772D02*
G03*
X93918Y222772I-800J0D01*
G01*
X89942Y226236D02*
G03*
X89942Y226236I-800J0D01*
G01*
X78328Y229898D02*
G03*
X78328Y229898I-800J0D01*
G01*
X78918Y222811D02*
G03*
X78918Y222811I-800J0D01*
G01*
X89981Y233362D02*
G03*
X89981Y233362I-800J0D01*
G01*
X107147Y50873D02*
G03*
X107147Y50873I-800J0D01*
G01*
X103923Y50857D02*
G03*
X103923Y50857I-800J0D01*
G01*
X99300Y144500D02*
G03*
X99300Y144500I-800J0D01*
G01*
X98300Y142500D02*
G03*
X98300Y142500I-800J0D01*
G01*
X101300Y140000D02*
G03*
X101300Y140000I-800J0D01*
G01*
X89300Y169500D02*
G03*
X89300Y169500I-800J0D01*
G01*
X15300Y196000D02*
G03*
X15300Y196000I-800J0D01*
G01*
X25300Y236000D02*
G03*
X25300Y236000I-800J0D01*
G01*
X139800Y249500D02*
G03*
X139800Y249500I-800J0D01*
G01*
X138300Y244000D02*
G03*
X138300Y244000I-800J0D01*
G01*
X144300Y223606D02*
G03*
X144300Y223606I-800J0D01*
G01*
X139300Y217500D02*
G03*
X139300Y217500I-800J0D01*
G01*
X145300Y211000D02*
G03*
X145300Y211000I-800J0D01*
G01*
X139300Y205500D02*
G03*
X139300Y205500I-800J0D01*
G01*
X54300Y17000D02*
G03*
X54300Y17000I-800J0D01*
G01*
X36800Y99000D02*
G03*
X36800Y99000I-800J0D01*
G01*
X81300Y157000D02*
G03*
X81300Y157000I-800J0D01*
G01*
X111800Y116000D02*
G03*
X111800Y116000I-800J0D01*
G01*
X59800Y74500D02*
G03*
X59800Y74500I-800J0D01*
G01*
X60800Y73500D02*
G03*
X60800Y73500I-800J0D01*
G01*
X59300Y76500D02*
G03*
X59300Y76500I-800J0D01*
G01*
X57800Y76000D02*
G03*
X57800Y76000I-800J0D01*
G01*
X61800Y74500D02*
G03*
X61800Y74500I-800J0D01*
G01*
X51295Y79000D02*
G03*
X51295Y79000I-800J0D01*
G01*
X112800Y145000D02*
G03*
X112800Y145000I-800J0D01*
G01*
X109800Y142500D02*
G03*
X109800Y142500I-800J0D01*
G01*
X112800Y138500D02*
G03*
X112800Y138500I-800J0D01*
G01*
Y141500D02*
G03*
X112800Y141500I-800J0D01*
G01*
X108800Y140500D02*
G03*
X108800Y140500I-800J0D01*
G01*
X111300Y140000D02*
G03*
X111300Y140000I-800J0D01*
G01*
X112800Y143500D02*
G03*
X112800Y143500I-800J0D01*
G01*
X109800Y144500D02*
G03*
X109800Y144500I-800J0D01*
G01*
X47300Y111000D02*
G03*
X47300Y111000I-800J0D01*
G01*
X63800Y114000D02*
G03*
X63800Y114000I-800J0D01*
G01*
X145406Y191903D02*
G03*
X145406Y191903I-800J0D01*
G01*
X143300Y195442D02*
G03*
X143300Y195442I-800J0D01*
G01*
X141194Y190500D02*
G03*
X141194Y190500I-800J0D01*
G01*
X113800Y234500D02*
G03*
X113800Y234500I-800J0D01*
G01*
X110800Y204500D02*
G03*
X110800Y204500I-800J0D01*
G01*
X109800Y195000D02*
G03*
X109800Y195000I-800J0D01*
G01*
X112300Y193000D02*
G03*
X112300Y193000I-800J0D01*
G01*
X116800Y226500D02*
G03*
X116800Y226500I-800J0D01*
G01*
X111814Y181514D02*
G03*
X111814Y181514I-800J0D01*
G01*
X122300Y152500D02*
G03*
X122300Y152500I-800J0D01*
G01*
X108300Y200500D02*
G03*
X108300Y200500I-800J0D01*
G01*
X35300Y68000D02*
G03*
X35300Y68000I-800J0D01*
G01*
X32800Y69500D02*
G03*
X32800Y69500I-800J0D01*
G01*
X31300D02*
G03*
X31300Y69500I-800J0D01*
G01*
X29300D02*
G03*
X29300Y69500I-800J0D01*
G01*
X4800Y51500D02*
G03*
X4800Y51500I-800J0D01*
G01*
X7800D02*
G03*
X7800Y51500I-800J0D01*
G01*
X9300Y53500D02*
G03*
X9300Y53500I-800J0D01*
G01*
X7300Y54500D02*
G03*
X7300Y54500I-800J0D01*
G01*
X4300Y54000D02*
G03*
X4300Y54000I-800J0D01*
G01*
X139800Y73000D02*
G03*
X139800Y73000I-800J0D01*
G01*
X76300Y199000D02*
G03*
X76300Y199000I-800J0D01*
G01*
X102300Y144500D02*
G03*
X102300Y144500I-800J0D01*
G01*
X103800Y139000D02*
G03*
X103800Y139000I-800J0D01*
G01*
X115300Y138000D02*
G03*
X115300Y138000I-800J0D01*
G01*
X116800Y139000D02*
G03*
X116800Y139000I-800J0D01*
G01*
X114800Y140000D02*
G03*
X114800Y140000I-800J0D01*
G01*
X109300Y138500D02*
G03*
X109300Y138500I-800J0D01*
G01*
X106300D02*
G03*
X106300Y138500I-800J0D01*
G01*
X40725Y240925D02*
G03*
X40725Y240925I-800J0D01*
G01*
Y235925D02*
G03*
X40725Y235925I-800J0D01*
G01*
X52800Y153000D02*
G03*
X52800Y153000I-800J0D01*
G01*
X127300Y154500D02*
G03*
X127300Y154500I-800J0D01*
G01*
X108300Y198000D02*
G03*
X108300Y198000I-800J0D01*
G01*
X62800Y160000D02*
G03*
X62800Y160000I-800J0D01*
G01*
X76300D02*
G03*
X76300Y160000I-800J0D01*
G01*
X68300Y160500D02*
G03*
X68300Y160500I-800J0D01*
G01*
X62800Y191000D02*
G03*
X62800Y191000I-800J0D01*
G01*
X71300Y195500D02*
G03*
X71300Y195500I-800J0D01*
G01*
X71881Y180665D02*
G03*
X71881Y180665I-800J0D01*
G01*
X90800Y200500D02*
G03*
X90800Y200500I-800J0D01*
G01*
X27406Y198004D02*
G03*
X27406Y198004I-800J0D01*
G01*
X90800Y179000D02*
G03*
X90800Y179000I-800J0D01*
G01*
X70800Y227000D02*
G03*
X70800Y227000I-800J0D01*
G01*
X25300Y238000D02*
G03*
X25300Y238000I-800J0D01*
G01*
X140300Y225500D02*
G03*
X140300Y225500I-800J0D01*
G01*
X20300Y160000D02*
G03*
X20300Y160000I-800J0D01*
G01*
X19300Y188500D02*
G03*
X19300Y188500I-800J0D01*
G01*
Y193000D02*
G03*
X19300Y193000I-800J0D01*
G01*
X21300Y163000D02*
G03*
X21300Y163000I-800J0D01*
G01*
X27300Y211000D02*
G03*
X27300Y211000I-800J0D01*
G01*
X31300Y213039D02*
G03*
X31300Y213039I-800J0D01*
G01*
X27300Y206000D02*
G03*
X27300Y206000I-800J0D01*
G01*
X31536Y220236D02*
G03*
X31536Y220236I-800J0D01*
G01*
X35800Y223000D02*
G03*
X35800Y223000I-800J0D01*
G01*
X35300Y230500D02*
G03*
X35300Y230500I-800J0D01*
G01*
M02*
