G04*
G04 #@! TF.GenerationSoftware,Altium Limited,Altium Designer,22.1.2 (22)*
G04*
G04 Layer_Color=10085887*
%FSLAX25Y25*%
%MOIN*%
G70*
G04*
G04 #@! TF.SameCoordinates,E6BCAF42-7E50-4797-BEDC-23F1F838AA05*
G04*
G04*
G04 #@! TF.FilePolarity,Positive*
G04*
G01*
G75*
%ADD11C,0.00394*%
%ADD12C,0.00787*%
%ADD13C,0.00197*%
D11*
X129918Y66234D02*
Y106392D01*
X89761D02*
X129918D01*
X89761Y66234D02*
Y106392D01*
Y66234D02*
X129918D01*
X65780Y43323D02*
X78260Y43520D01*
X65780Y43323D02*
X65819Y58520D01*
X78260Y58559D01*
X78260Y43520D01*
X71724Y46118D02*
X69756Y47430D01*
X71724D02*
X69756Y46118D01*
Y48086D02*
Y48742D01*
Y48414D01*
X71724D01*
X71396Y48086D01*
X80320Y65553D02*
X80784Y65553D01*
X81248Y65089D01*
X81248Y64625D01*
X80320Y63697D01*
X79856D01*
X79392Y64161D01*
Y64625D01*
X78696Y64857D02*
X78233Y65321D01*
X78465Y65089D01*
X79856Y66480D01*
X79856Y66017D01*
X78696Y67176D02*
Y67640D01*
X78233Y68104D01*
X77769D01*
X76841Y67176D01*
Y66712D01*
X77305Y66249D01*
X77769D01*
X78696Y67176D01*
X84680Y57947D02*
X84216Y57947D01*
X83753Y58411D01*
X83753Y58875D01*
X84680Y59803D01*
X85144D01*
X85608Y59339D01*
Y58875D01*
X86072Y58411D02*
X86536D01*
X86999Y57947D01*
Y57483D01*
X86072Y56556D01*
X85608D01*
X85144Y57020D01*
X85144Y57483D01*
X85376Y57715D01*
X85840D01*
X86536Y57020D01*
X38732Y68442D02*
Y66802D01*
X38404Y66474D01*
X37748D01*
X37420Y66802D01*
Y68442D01*
X35452Y66474D02*
X36764D01*
X35452Y67786D01*
Y68114D01*
X35781Y68442D01*
X36436D01*
X36764Y68114D01*
D12*
X109838Y76077D02*
X106558D01*
X105902Y76733D01*
Y78045D01*
X106558Y78701D01*
X109838D01*
X109182Y80013D02*
X109838Y80668D01*
Y81980D01*
X109182Y82636D01*
X108526D01*
X107870Y81980D01*
Y81324D01*
Y81980D01*
X107214Y82636D01*
X106558D01*
X105902Y81980D01*
Y80668D01*
X106558Y80013D01*
D13*
X137587Y82961D02*
Y93017D01*
X133413Y82961D02*
Y93056D01*
Y82961D02*
X137587D01*
X133413Y93056D02*
X137587Y93017D01*
X112983Y64087D02*
X123039D01*
X112944Y59913D02*
X123039D01*
Y64087D01*
X112944Y59913D02*
X112983Y64087D01*
X76302Y72151D02*
X83679Y64830D01*
X72377Y68170D02*
X76302Y72151D01*
X72377Y68170D02*
X79754Y60849D01*
X83679Y64830D01*
X81321Y58670D02*
X88698Y51349D01*
X92623Y55330D01*
X85246Y62651D02*
X92623Y55330D01*
X81321Y58670D02*
X85246Y62651D01*
X28921Y76913D02*
X38977D01*
X28921Y81087D02*
X39017D01*
X28921Y76913D02*
Y81087D01*
X38977Y76913D02*
X39017Y81087D01*
X21486Y63483D02*
X25660Y63444D01*
X21486Y73539D02*
X25660D01*
Y63444D02*
Y73539D01*
X21486Y63483D02*
Y73539D01*
X39677Y74270D02*
X39717Y61435D01*
X27512Y61514D02*
X39717Y61435D01*
X27512Y74270D02*
X39677D01*
X27512Y61514D02*
Y74270D01*
X135382Y86346D02*
X135578Y86149D01*
Y85756D01*
X135382Y85559D01*
X134594D01*
X134398Y85756D01*
Y86149D01*
X134594Y86346D01*
X135382Y86740D02*
X135578Y86936D01*
Y87330D01*
X135382Y87527D01*
X135185D01*
X134988Y87330D01*
X134791Y87527D01*
X134594D01*
X134398Y87330D01*
Y86936D01*
X134594Y86740D01*
X134791D01*
X134988Y86936D01*
X135185Y86740D01*
X135382D01*
X134988Y86936D02*
Y87330D01*
X119654Y61882D02*
X119851Y62078D01*
X120244D01*
X120441Y61882D01*
Y61094D01*
X120244Y60898D01*
X119851D01*
X119654Y61094D01*
X119260Y62078D02*
X118473D01*
Y61882D01*
X119260Y61094D01*
Y60898D01*
X31520Y80102D02*
Y78922D01*
X32110D01*
X32307Y79118D01*
Y79512D01*
X32110Y79709D01*
X31520D01*
X31913D02*
X32307Y80102D01*
X32700Y79118D02*
X32897Y78922D01*
X33291D01*
X33487Y79118D01*
Y79315D01*
X33291Y79512D01*
X33094D01*
X33291D01*
X33487Y79709D01*
Y79906D01*
X33291Y80102D01*
X32897D01*
X32700Y79906D01*
X23692Y70154D02*
X23495Y70350D01*
Y70744D01*
X23692Y70941D01*
X24479D01*
X24676Y70744D01*
Y70350D01*
X24479Y70154D01*
X23495Y68973D02*
Y69760D01*
X24085D01*
X23888Y69367D01*
Y69170D01*
X24085Y68973D01*
X24479D01*
X24676Y69170D01*
Y69563D01*
X24479Y69760D01*
M02*
