G04*
G04 #@! TF.GenerationSoftware,Altium Limited,Altium Designer,22.1.2 (22)*
G04*
G04 Layer_Color=16711935*
%FSLAX25Y25*%
%MOIN*%
G70*
G04*
G04 #@! TF.SameCoordinates,E6BCAF42-7E50-4797-BEDC-23F1F838AA05*
G04*
G04*
G04 #@! TF.FilePolarity,Negative*
G04*
G01*
G75*
%ADD37R,0.03937X0.03543*%
%ADD38R,0.03543X0.03937*%
%ADD52C,0.05118*%
%ADD53C,0.01181*%
%ADD54C,0.10236*%
%ADD55C,0.02362*%
%ADD68R,0.03543X0.05512*%
%ADD69R,0.04724X0.05512*%
G04:AMPARAMS|DCode=70|XSize=55.12mil|YSize=31.5mil|CornerRadius=0mil|HoleSize=0mil|Usage=FLASHONLY|Rotation=45.000|XOffset=0mil|YOffset=0mil|HoleType=Round|Shape=Rectangle|*
%AMROTATEDRECTD70*
4,1,4,-0.00835,-0.03062,-0.03062,-0.00835,0.00835,0.03062,0.03062,0.00835,-0.00835,-0.03062,0.0*
%
%ADD70ROTATEDRECTD70*%

%ADD71R,0.02362X0.03347*%
D37*
X135500Y91150D02*
D03*
Y84850D02*
D03*
X23573Y71650D02*
D03*
Y65350D02*
D03*
D38*
X114850Y62000D02*
D03*
X121150D02*
D03*
X37110Y79000D02*
D03*
X30811D02*
D03*
D52*
X6500Y77000D02*
D03*
Y69205D02*
D03*
Y101516D02*
D03*
Y109390D02*
D03*
Y117264D02*
D03*
Y125138D02*
D03*
Y133012D02*
D03*
Y140886D02*
D03*
Y148760D02*
D03*
Y156634D02*
D03*
Y164508D02*
D03*
Y172382D02*
D03*
Y180256D02*
D03*
Y188130D02*
D03*
Y196004D02*
D03*
Y203878D02*
D03*
Y211752D02*
D03*
Y219626D02*
D03*
Y227500D02*
D03*
Y235374D02*
D03*
Y243248D02*
D03*
Y251634D02*
D03*
X152500Y163630D02*
D03*
Y171504D02*
D03*
Y179378D02*
D03*
Y187252D02*
D03*
Y195126D02*
D03*
Y203000D02*
D03*
Y210874D02*
D03*
Y218748D02*
D03*
Y226622D02*
D03*
Y234496D02*
D03*
Y242370D02*
D03*
Y250756D02*
D03*
D53*
X49000Y119000D02*
D03*
X81885Y226337D02*
D03*
X81898Y219228D02*
D03*
X89299Y219346D02*
D03*
X93118Y230252D02*
D03*
X85402Y222772D02*
D03*
X85283Y229740D02*
D03*
X81779Y233480D02*
D03*
X93118Y222772D02*
D03*
X89142Y226236D02*
D03*
X77527Y229898D02*
D03*
X78118Y222811D02*
D03*
X89181Y233362D02*
D03*
X106347Y50873D02*
D03*
X103123Y50857D02*
D03*
X98500Y144500D02*
D03*
X97500Y142500D02*
D03*
X100500Y140000D02*
D03*
X88500Y169500D02*
D03*
X14500Y196000D02*
D03*
X24500Y236000D02*
D03*
X139000Y249500D02*
D03*
X137500Y244000D02*
D03*
X143500Y223606D02*
D03*
X138500Y217500D02*
D03*
X144500Y211000D02*
D03*
X138500Y205500D02*
D03*
X53500Y17000D02*
D03*
X36000Y99000D02*
D03*
X80500Y157000D02*
D03*
X111000Y116000D02*
D03*
X59000Y74500D02*
D03*
X60000Y73500D02*
D03*
X58500Y76500D02*
D03*
X57000Y76000D02*
D03*
X61000Y74500D02*
D03*
X50495Y79000D02*
D03*
X112000Y145000D02*
D03*
X109000Y142500D02*
D03*
X112000Y138500D02*
D03*
Y141500D02*
D03*
X108000Y140500D02*
D03*
X110500Y140000D02*
D03*
X112000Y143500D02*
D03*
X109000Y144500D02*
D03*
X46500Y111000D02*
D03*
X63000Y114000D02*
D03*
X144606Y191903D02*
D03*
X142500Y195442D02*
D03*
X140394Y190500D02*
D03*
X113000Y234500D02*
D03*
X110000Y204500D02*
D03*
X109000Y195000D02*
D03*
X111500Y193000D02*
D03*
X116000Y226500D02*
D03*
X111014Y181514D02*
D03*
X121500Y152500D02*
D03*
X107500Y200500D02*
D03*
X34500Y68000D02*
D03*
X32000Y69500D02*
D03*
X30500D02*
D03*
X28500D02*
D03*
X4000Y51500D02*
D03*
X7000D02*
D03*
X8500Y53500D02*
D03*
X6500Y54500D02*
D03*
X3500Y54000D02*
D03*
X139000Y73000D02*
D03*
X75500Y199000D02*
D03*
X101500Y144500D02*
D03*
X103000Y139000D02*
D03*
X114500Y138000D02*
D03*
X116000Y139000D02*
D03*
X114000Y140000D02*
D03*
X108500Y138500D02*
D03*
X105500D02*
D03*
X39925Y240925D02*
D03*
Y235925D02*
D03*
X52000Y153000D02*
D03*
X126500Y154500D02*
D03*
X107500Y198000D02*
D03*
X62000Y160000D02*
D03*
X75500D02*
D03*
X67500Y160500D02*
D03*
X62000Y191000D02*
D03*
X70500Y195500D02*
D03*
X71081Y180665D02*
D03*
X90000Y200500D02*
D03*
X26606Y198004D02*
D03*
X90000Y179000D02*
D03*
X70000Y227000D02*
D03*
X24500Y238000D02*
D03*
X139500Y225500D02*
D03*
X19500Y160000D02*
D03*
X18500Y188500D02*
D03*
Y193000D02*
D03*
X20500Y163000D02*
D03*
X26500Y211000D02*
D03*
X30500Y213039D02*
D03*
X26500Y206000D02*
D03*
X30736Y220236D02*
D03*
X35000Y223000D02*
D03*
X34500Y230500D02*
D03*
D54*
X8000Y9500D02*
D03*
X150500D02*
D03*
X149000Y265500D02*
D03*
X8000D02*
D03*
D55*
X43000Y140500D02*
D03*
X50000Y30500D02*
D03*
X137500Y256000D02*
D03*
X100500Y142000D02*
D03*
X39239Y251500D02*
D03*
D68*
X127339Y103045D02*
D03*
X122339D02*
D03*
X117339D02*
D03*
X112339D02*
D03*
X107339D02*
D03*
X102339D02*
D03*
X97339D02*
D03*
X92339D02*
D03*
Y69581D02*
D03*
X97339D02*
D03*
X102339D02*
D03*
X107339D02*
D03*
X112339D02*
D03*
X117339D02*
D03*
X122339D02*
D03*
X127339D02*
D03*
D69*
X75543Y46472D02*
D03*
Y55528D02*
D03*
X68457Y46472D02*
D03*
Y55528D02*
D03*
D70*
X75494Y69006D02*
D03*
X80506Y63994D02*
D03*
X89505Y54495D02*
D03*
X84495Y59505D02*
D03*
D71*
X37315Y63187D02*
D03*
X33575D02*
D03*
X29835D02*
D03*
X37315Y72439D02*
D03*
X29835D02*
D03*
M02*
