G04*
G04 #@! TF.GenerationSoftware,Altium Limited,Altium Designer,22.1.2 (22)*
G04*
G04 Layer_Color=32896*
%FSLAX25Y25*%
%MOIN*%
G70*
G04*
G04 #@! TF.SameCoordinates,E6BCAF42-7E50-4797-BEDC-23F1F838AA05*
G04*
G04*
G04 #@! TF.FilePolarity,Positive*
G04*
G01*
G75*
%ADD11C,0.00394*%
%ADD12C,0.00787*%
%ADD13C,0.00197*%
%ADD56C,0.01000*%
%ADD72C,0.01968*%
D11*
X129839Y66313D02*
Y106313D01*
X89839D02*
X129839D01*
X89839Y66313D02*
Y106313D01*
Y66313D02*
X129839D01*
X65796Y43400D02*
X78142Y43559D01*
X65757Y58559D02*
X65796Y43400D01*
X65757Y58559D02*
X78142Y58559D01*
Y43559D02*
Y58559D01*
X38693Y73443D02*
X39598D01*
X39677Y62026D01*
X38772D02*
X39677D01*
X27401Y73443D02*
X28417D01*
X27401Y62026D02*
Y73443D01*
Y61944D02*
X28417D01*
X31291Y73482D02*
X35858Y73443D01*
D12*
X79523Y44504D02*
G03*
X79523Y44504I-278J0D01*
G01*
X41042Y62205D02*
G03*
X41042Y62205I-276J0D01*
G01*
D13*
X133413Y82961D02*
Y93067D01*
X137587Y93028D01*
Y82961D02*
Y93028D01*
X133413Y82961D02*
X137587D01*
X112933Y59913D02*
X123039D01*
X112933D02*
X112972Y64087D01*
X123039D01*
Y59913D02*
Y64087D01*
X76314Y72195D02*
X83694Y64815D01*
X72333Y68158D02*
X76314Y72195D01*
X72333Y68158D02*
X79769Y60834D01*
X83694Y64815D01*
X77193Y63466D02*
X81034Y67363D01*
X76686Y63902D02*
X80632Y67860D01*
X81306Y58685D02*
X88687Y51305D01*
X92667Y55342D01*
X85231Y62666D02*
X92667Y55342D01*
X81306Y58685D02*
X85231Y62666D01*
X83966Y56137D02*
X87807Y60034D01*
X84368Y55640D02*
X88314Y59598D01*
X28921Y81087D02*
X39028D01*
X38989Y76913D02*
X39028Y81087D01*
X28921Y76913D02*
X38989D01*
X28921D02*
Y81087D01*
X21486Y73539D02*
X25660D01*
X21486Y63472D02*
Y73539D01*
Y63472D02*
X25660Y63433D01*
Y73539D01*
D56*
X36780Y83032D02*
Y86968D01*
X34812D01*
X34156Y86312D01*
Y85000D01*
X34812Y84344D01*
X36780D01*
X35468D02*
X34156Y83032D01*
X32844Y86312D02*
X32188Y86968D01*
X30876D01*
X30220Y86312D01*
Y85656D01*
X30876Y85000D01*
X31532D01*
X30876D01*
X30220Y84344D01*
Y83688D01*
X30876Y83032D01*
X32188D01*
X32844Y83688D01*
X70624Y64468D02*
X68000Y60532D01*
Y64468D02*
X70624Y60532D01*
X66688D02*
X65376D01*
X66032D01*
Y64468D01*
X66688Y63812D01*
X128780Y113468D02*
Y110188D01*
X128124Y109532D01*
X126812D01*
X126156Y110188D01*
Y113468D01*
X124844Y112812D02*
X124188Y113468D01*
X122876D01*
X122220Y112812D01*
Y112156D01*
X122876Y111500D01*
X123532D01*
X122876D01*
X122220Y110844D01*
Y110188D01*
X122876Y109532D01*
X124188D01*
X124844Y110188D01*
X48280Y70468D02*
Y67188D01*
X47624Y66532D01*
X46312D01*
X45656Y67188D01*
Y70468D01*
X41720Y66532D02*
X44344D01*
X41720Y69156D01*
Y69812D01*
X42376Y70468D01*
X43688D01*
X44344Y69812D01*
X76796Y76812D02*
X77452Y77468D01*
X78764D01*
X79420Y76812D01*
Y74188D01*
X78764Y73532D01*
X77452D01*
X76796Y74188D01*
X75484Y73532D02*
X74172D01*
X74828D01*
Y77468D01*
X75484Y76812D01*
X72204D02*
X71548Y77468D01*
X70236D01*
X69580Y76812D01*
Y74188D01*
X70236Y73532D01*
X71548D01*
X72204Y74188D01*
Y76812D01*
X96156Y52312D02*
X96812Y52968D01*
X98124D01*
X98780Y52312D01*
Y49688D01*
X98124Y49032D01*
X96812D01*
X96156Y49688D01*
X94844D02*
X94188Y49032D01*
X92876D01*
X92220Y49688D01*
Y52312D01*
X92876Y52968D01*
X94188D01*
X94844Y52312D01*
Y51656D01*
X94188Y51000D01*
X92220D01*
X136156Y98312D02*
X136812Y98968D01*
X138124D01*
X138780Y98312D01*
Y95688D01*
X138124Y95032D01*
X136812D01*
X136156Y95688D01*
X134844Y98312D02*
X134188Y98968D01*
X132876D01*
X132220Y98312D01*
Y97656D01*
X132876Y97000D01*
X132220Y96344D01*
Y95688D01*
X132876Y95032D01*
X134188D01*
X134844Y95688D01*
Y96344D01*
X134188Y97000D01*
X134844Y97656D01*
Y98312D01*
X134188Y97000D02*
X132876D01*
X128656Y62812D02*
X129312Y63468D01*
X130624D01*
X131280Y62812D01*
Y60188D01*
X130624Y59532D01*
X129312D01*
X128656Y60188D01*
X127344Y63468D02*
X124720D01*
Y62812D01*
X127344Y60188D01*
Y59532D01*
X22656Y79312D02*
X23312Y79968D01*
X24624D01*
X25280Y79312D01*
Y76688D01*
X24624Y76032D01*
X23312D01*
X22656Y76688D01*
X18720Y79968D02*
X21344D01*
Y78000D01*
X20032Y78656D01*
X19376D01*
X18720Y78000D01*
Y76688D01*
X19376Y76032D01*
X20688D01*
X21344Y76688D01*
D72*
X132866Y67375D02*
G03*
X132866Y67375I-787J0D01*
G01*
M02*
